<svg width="33" height="32" viewBox="0 0 33 32" fill="none" xmlns="http://www.w3.org/2000/svg">
<g clip-path="url(#clip0_2471_37034)">
<path fill-rule="evenodd" clip-rule="evenodd" d="M23.3505 16.3521H22.1705V15.6483H23.3505C23.3138 15.7583 23.2937 15.876 23.2937 15.9984C23.2931 16.1239 23.3138 16.2421 23.3505 16.3521ZM23.6391 13.1252H21.0267C21.0143 13.1252 21.0024 13.1252 20.99 13.1252L21.3236 12.7875L20.9694 12.4296C20.9859 12.4255 21.006 12.4255 21.0262 12.4255H23.6391C23.855 12.4255 24.0337 12.2463 24.0337 12.0309V11.1846C24.1436 11.2212 24.2614 11.2414 24.3879 11.2414C24.5098 11.2414 24.628 11.2212 24.7421 11.1846V12.0309C24.738 12.6325 24.2454 13.1252 23.6391 13.1252Z" fill="#FFAB00"/>
<path fill-rule="evenodd" clip-rule="evenodd" d="M24.0341 20.82V19.9736C24.0341 19.7578 23.8591 19.5791 23.6396 19.5791H21.0396L21.3246 19.2904L20.9218 18.8794C20.9383 18.8752 20.9585 18.8752 20.9786 18.8752H23.6437C24.25 18.8752 24.7426 19.3674 24.7426 19.9741V20.8205C24.6326 20.7838 24.5149 20.7637 24.3884 20.7637C24.2619 20.7637 24.1436 20.7833 24.0341 20.82Z" fill="#FFAB00"/>
<path fill-rule="evenodd" clip-rule="evenodd" d="M10.8294 16.3522H9.64941C9.68608 16.2422 9.70622 16.1245 9.70622 15.9979C9.70622 15.8761 9.68608 15.7578 9.64941 15.6478H10.8294V16.0021V16.3522Z" fill="#FFAB00"/>
<path fill-rule="evenodd" clip-rule="evenodd" d="M8.26599 20.82V19.9736C8.26599 19.3674 8.75812 18.8748 9.36488 18.8748H12.03C12.0501 18.8748 12.0667 18.8748 12.0868 18.8789L11.684 19.2899L11.9691 19.5786H9.3685C9.14851 19.5786 8.97397 19.7578 8.97397 19.9731V20.8195C8.86398 20.7828 8.74624 20.7627 8.62385 20.7627C8.49372 20.7627 8.37598 20.7834 8.26599 20.82Z" fill="#FFAB00"/>
<path fill-rule="evenodd" clip-rule="evenodd" d="M11.9768 13.1252H9.36439C8.75814 13.1252 8.2655 12.6331 8.2655 12.0263V11.1799C8.3755 11.2166 8.49323 11.2367 8.61975 11.2367C8.74162 11.2367 8.85987 11.2166 8.974 11.1799V12.0263C8.974 12.2422 9.15319 12.4208 9.36852 12.4208H11.981C12.0011 12.4208 12.0176 12.4208 12.0378 12.425L11.6835 12.7828L12.0171 13.1205C12.0016 13.1252 11.9892 13.1252 11.9768 13.1252Z" fill="#FFAB00"/>
<path fill-rule="evenodd" clip-rule="evenodd" d="M15.871 14.8665C15.5493 14.8665 15.2849 15.1308 15.2849 15.4526V15.8311H16.4566V15.4526C16.4571 15.1314 16.1969 14.8665 15.871 14.8665Z" fill="#FFAB00"/>
<path fill-rule="evenodd" clip-rule="evenodd" d="M16.5021 13.0679C14.8945 13.0679 13.5886 14.3986 13.5886 16.0382C13.5886 17.6777 14.8945 19.0085 16.5021 19.0085C18.1096 19.0085 19.4156 17.6777 19.4156 16.0382C19.4156 14.3986 18.1091 13.0679 16.5021 13.0679ZM17.7146 17.4139V14.6671C17.7146 14.553 17.808 14.4596 17.9222 14.4596C18.0363 14.4596 18.1297 14.553 18.1297 14.6671V17.4139C18.1297 17.528 18.0363 17.6214 17.9222 17.6214C17.808 17.6173 17.7146 17.5238 17.7146 17.4139ZM15.871 14.4554C16.4205 14.4554 16.8682 14.9031 16.8682 15.4526V17.4097C16.8682 17.5238 16.7747 17.6173 16.6606 17.6173C16.5465 17.6173 16.453 17.5238 16.453 17.4097V16.2416H15.2813V17.4097C15.2813 17.5238 15.1878 17.6173 15.0737 17.6173C14.9596 17.6173 14.8661 17.5238 14.8661 17.4097V16.0346V15.4526C14.8744 14.9031 15.3221 14.4554 15.871 14.4554Z" fill="#FFAB00"/>
<path fill-rule="evenodd" clip-rule="evenodd" d="M15.7615 11.5383C15.7615 11.6359 15.6923 11.7175 15.5989 11.7377C15.0819 11.8477 14.5981 12.0552 14.1545 12.3439C14.0729 12.3966 13.9634 12.3847 13.8942 12.3155L13.3004 11.7134L12.2505 12.7797L12.8485 13.386C12.9177 13.4552 12.926 13.5611 12.8769 13.6421C12.5883 14.094 12.3884 14.5861 12.2789 15.1113C12.2588 15.2047 12.1731 15.2739 12.0796 15.2739H11.2405V15.9943V16.7875H12.0786C12.1762 16.7875 12.2619 16.8567 12.2779 16.9502C12.3879 17.4753 12.5914 17.9716 12.8759 18.4193C12.9286 18.5009 12.9167 18.6062 12.8475 18.6754L12.2495 19.2817L13.2993 20.348L13.8932 19.7459C13.9624 19.6767 14.0724 19.6643 14.1535 19.7175C14.597 20.0103 15.0814 20.2138 15.5978 20.3238C15.6913 20.3439 15.7605 20.4296 15.7605 20.5231V21.3819H17.2415V20.5231C17.2415 20.4255 17.3107 20.3439 17.4042 20.3238C17.9211 20.2138 18.405 20.0062 18.8485 19.7175C18.9301 19.6648 19.0396 19.6767 19.1088 19.7459L19.7027 20.348L20.7525 19.2817L20.1545 18.6754C20.0853 18.6062 20.077 18.5004 20.1261 18.4193C20.4148 17.9675 20.6146 17.4753 20.7241 16.9502C20.7442 16.8567 20.8299 16.7875 20.9234 16.7875H21.7615V15.9938V15.2734H20.9234C20.8258 15.2734 20.7401 15.2042 20.7241 15.1108C20.6141 14.5856 20.4106 14.0893 20.1261 13.6416C20.0734 13.56 20.0853 13.4547 20.1545 13.3855L20.7525 12.7792L19.7042 11.7129L19.1103 12.3155C19.0411 12.3847 18.9312 12.3971 18.8501 12.3439C18.4065 12.0511 17.9221 11.8477 17.4057 11.7377C17.3123 11.7175 17.2431 11.6318 17.2431 11.5383V10.6796H15.762V11.5383H15.7615ZM13.1733 16.0387C13.1733 14.175 14.6668 12.6574 16.502 12.6574C18.3373 12.6574 19.8307 14.175 19.8307 16.0387C19.8307 17.9024 18.3373 19.4201 16.502 19.4201C14.6668 19.4201 13.1733 17.9024 13.1733 16.0387Z" fill="#FFAB00"/>
<path fill-rule="evenodd" clip-rule="evenodd" d="M23.7042 10.1466C23.7042 10.521 24.0094 10.8262 24.3838 10.8262C24.7582 10.8262 25.0634 10.521 25.0634 10.1466C25.0634 9.77223 24.7582 9.46704 24.3838 9.46704C24.0094 9.46704 23.7042 9.77223 23.7042 10.1466Z" fill="#FFAB00"/>
<path fill-rule="evenodd" clip-rule="evenodd" d="M24.3838 15.3184C24.0094 15.3184 23.7042 15.6235 23.7042 15.9979C23.7042 16.3723 24.0094 16.6775 24.3838 16.6775C24.7582 16.6775 25.0634 16.3723 25.0634 15.9979C25.0634 15.6235 24.7582 15.3184 24.3838 15.3184Z" fill="#FFAB00"/>
<path fill-rule="evenodd" clip-rule="evenodd" d="M24.3838 21.1737C24.0094 21.1737 23.7042 21.4789 23.7042 21.8533C23.7042 22.2277 24.0094 22.5329 24.3838 22.5329C24.7582 22.5329 25.0634 22.2277 25.0634 21.8533C25.0634 21.4789 24.7582 21.1737 24.3838 21.1737Z" fill="#FFAB00"/>
<path fill-rule="evenodd" clip-rule="evenodd" d="M8.61616 21.1737C8.24177 21.1737 7.93658 21.4789 7.93658 21.8533C7.93658 22.2277 8.24177 22.5329 8.61616 22.5329C8.99055 22.5329 9.29574 22.2277 9.29574 21.8533C9.29574 21.4789 8.99055 21.1737 8.61616 21.1737Z" fill="#FFAB00"/>
<path fill-rule="evenodd" clip-rule="evenodd" d="M7.93658 10.1466C7.93658 10.521 8.24177 10.8262 8.61616 10.8262C8.99055 10.8262 9.29574 10.521 9.29574 10.1466C9.29574 9.77223 8.99055 9.46704 8.61616 9.46704C8.24177 9.46704 7.93658 9.77223 7.93658 10.1466Z" fill="#FFAB00"/>
<path fill-rule="evenodd" clip-rule="evenodd" d="M8.61616 15.3184C8.24177 15.3184 7.93658 15.6235 7.93658 15.9979C7.93658 16.3723 8.24177 16.6775 8.61616 16.6775C8.99055 16.6775 9.29574 16.3723 9.29574 15.9979C9.29574 15.6235 8.99055 15.3184 8.61616 15.3184Z" fill="#FFAB00"/>
</g>
<defs>
<clipPath id="clip0_2471_37034">
<rect width="20" height="20" fill="white" transform="translate(6.5 6)"/>
</clipPath>
</defs>
</svg>
