<svg width="33" height="32" viewBox="0 0 33 32" fill="none" xmlns="http://www.w3.org/2000/svg">
<path d="M24.5 11.75C24.5 11.5511 24.421 11.3603 24.2803 11.2197C24.1397 11.079 23.9489 11 23.75 11H9.25C9.05109 11 8.86032 11.079 8.71967 11.2197C8.57902 11.3603 8.5 11.5511 8.5 11.75C8.5 11.9489 8.57902 12.1397 8.71967 12.2803C8.86032 12.421 9.05109 12.5 9.25 12.5H23.75C23.9489 12.5 24.1397 12.421 24.2803 12.2803C24.421 12.1397 24.5 11.9489 24.5 11.75ZM24.5 14.75C24.5 14.5511 24.421 14.3603 24.2803 14.2197C24.1397 14.079 23.9489 14 23.75 14H9.25C9.05109 14 8.86032 14.079 8.71967 14.2197C8.57902 14.3603 8.5 14.5511 8.5 14.75C8.5 14.9489 8.57902 15.1397 8.71967 15.2803C8.86032 15.421 9.05109 15.5 9.25 15.5H18.706C19.4256 15.1696 20.2082 14.999 21 15C21.7918 14.999 22.5744 15.1696 23.294 15.5H23.75C23.9489 15.5 24.1397 15.421 24.2803 15.2803C24.421 15.1397 24.5 14.9489 24.5 14.75ZM15.522 20C15.4772 20.5008 15.5004 21.0054 15.591 21.5H9.25C9.05109 21.5 8.86032 21.421 8.71967 21.2803C8.57902 21.1397 8.5 20.9489 8.5 20.75C8.5 20.5511 8.57902 20.3603 8.71967 20.2197C8.86032 20.079 9.05109 20 9.25 20H15.522ZM16.757 17C16.3852 17.45 16.0875 17.9563 15.875 18.5H9.25C9.05109 18.5 8.86032 18.421 8.71967 18.2803C8.57902 18.1397 8.5 17.9489 8.5 17.75C8.5 17.5511 8.57902 17.3603 8.71967 17.2197C8.86032 17.079 9.05109 17 9.25 17H16.757ZM25.5 20.5C25.5 19.3065 25.0259 18.1619 24.182 17.318C23.3381 16.4741 22.1935 16 21 16C19.8065 16 18.6619 16.4741 17.818 17.318C16.9741 18.1619 16.5 19.3065 16.5 20.5C16.5 21.6935 16.9741 22.8381 17.818 23.682C18.6619 24.5259 19.8065 25 21 25C22.1935 25 23.3381 24.5259 24.182 23.682C25.0259 22.8381 25.5 21.6935 25.5 20.5ZM23 18.5C23.0903 18.4133 23.2099 18.3637 23.335 18.3609C23.4602 18.358 23.5818 18.4023 23.6759 18.4848C23.7701 18.5674 23.8298 18.6822 23.8433 18.8067C23.8568 18.9312 23.8232 19.0562 23.749 19.157L23.689 19.225L20.177 22.865C20.088 22.9497 19.9709 22.9987 19.848 23.0026C19.7252 23.0065 19.6052 22.965 19.511 22.886L19.444 22.819L18.104 21.174C18.0244 21.0773 17.9841 20.9542 17.9909 20.8291C17.9977 20.704 18.0513 20.5861 18.1409 20.4986C18.2305 20.4111 18.3497 20.3604 18.4749 20.3566C18.6001 20.3528 18.7222 20.3961 18.817 20.478L18.88 20.542L19.879 21.769L23 18.5Z" fill="#8AC926"/>
</svg>
