<svg width="33" height="32" viewBox="0 0 33 32" fill="none" xmlns="http://www.w3.org/2000/svg">
<path d="M16.0558 21.4807C14.6289 21.3589 13.4296 20.7775 12.4578 19.7365C11.4859 18.6955 11 17.45 11 16C11 14.4722 11.5348 13.1736 12.6043 12.1042C13.6736 11.0347 14.9722 10.5 16.5 10.5C17.95 10.5 19.1955 10.9843 20.2365 11.953C21.2775 12.9215 21.8589 14.1193 21.9807 15.5463L20.3905 15.075C20.1743 14.175 19.7088 13.4375 18.9938 12.8625C18.2789 12.2875 17.4477 12 16.5 12C15.4 12 14.4583 12.3917 13.675 13.175C12.8917 13.9583 12.5 14.9 12.5 16C12.5 16.95 12.7891 17.7833 13.3673 18.5C13.9454 19.2167 14.6813 19.6833 15.575 19.9L16.0558 21.4807ZM17.2558 25.4595C17.1298 25.4865 17.0038 25.5 16.878 25.5H16.5C15.1858 25.5 13.9508 25.2507 12.795 24.752C11.6392 24.2533 10.6337 23.5766 9.77875 22.7218C8.92375 21.8669 8.24692 20.8617 7.74825 19.706C7.24942 18.5503 7 17.3156 7 16.0018C7 14.6878 7.24933 13.4527 7.748 12.2965C8.24667 11.1403 8.92342 10.1347 9.77825 9.2795C10.6331 8.42433 11.6383 7.74725 12.794 7.24825C13.9497 6.74942 15.1844 6.5 16.4982 6.5C17.8123 6.5 19.0473 6.74942 20.2035 7.24825C21.3597 7.74692 22.3653 8.42375 23.2205 9.27875C24.0757 10.1338 24.7528 11.1392 25.2518 12.295C25.7506 13.4508 26 14.6858 26 16V16.373C26 16.4973 25.9865 16.6218 25.9595 16.7463L24.5 16.3V16C24.5 13.7667 23.725 11.875 22.175 10.325C20.625 8.775 18.7333 8 16.5 8C14.2667 8 12.375 8.775 10.825 10.325C9.275 11.875 8.5 13.7667 8.5 16C8.5 18.2333 9.275 20.125 10.825 21.675C12.375 23.225 14.2667 24 16.5 24H16.8L17.2558 25.4595ZM24.6402 25.6443L20.1057 21.1L19.0193 24.3845L16.5 16L24.8845 18.5192L21.6 19.6057L26.1443 24.1402L24.6402 25.6443Z" fill="#1877F2"/>
</svg>
