<svg width="33" height="32" viewBox="0 0 33 32" fill="none" xmlns="http://www.w3.org/2000/svg">
<path d="M13.1666 14.3333H19.8333M13.1666 21H19.8333M13.1666 17.6666H16.5M9.83331 23.8333V8.16663C9.83331 8.03402 9.88599 7.90684 9.97976 7.81307C10.0735 7.7193 10.2007 7.66663 10.3333 7.66663H20.0433C20.1759 7.66674 20.303 7.7195 20.3966 7.81329L23.02 10.4366C23.0666 10.4832 23.1036 10.5386 23.1288 10.5995C23.1539 10.6604 23.1668 10.7257 23.1666 10.7916V23.8333C23.1666 23.899 23.1537 23.964 23.1286 24.0246C23.1035 24.0853 23.0666 24.1404 23.0202 24.1868C22.9738 24.2333 22.9187 24.2701 22.858 24.2952C22.7973 24.3204 22.7323 24.3333 22.6666 24.3333H10.3333C10.2677 24.3333 10.2026 24.3204 10.142 24.2952C10.0813 24.2701 10.0262 24.2333 9.97976 24.1868C9.93333 24.1404 9.8965 24.0853 9.87137 24.0246C9.84625 23.964 9.83331 23.899 9.83331 23.8333Z" stroke="#FF595E" stroke-width="0.75" stroke-linecap="round" stroke-linejoin="round"/>
<path d="M19.8333 7.66663V10.5C19.8333 10.6326 19.886 10.7597 19.9798 10.8535C20.0735 10.9473 20.2007 11 20.3333 11H23.1666" stroke="#FF595E" stroke-width="0.75" stroke-linecap="round" stroke-linejoin="round"/>
</svg>
