<svg width="33" height="32" viewBox="0 0 33 32" fill="none" xmlns="http://www.w3.org/2000/svg">
<path d="M23.1666 16V10.7908C23.1667 10.725 23.1538 10.6599 23.1286 10.5991C23.1034 10.5383 23.0665 10.4831 23.02 10.4366L20.3966 7.81329C20.303 7.7195 20.1759 7.66674 20.0433 7.66663H10.3333C10.2007 7.66663 10.0735 7.7193 9.97976 7.81307C9.88599 7.90684 9.83331 8.03402 9.83331 8.16663V23.8333C9.83331 23.9659 9.88599 24.0931 9.97976 24.1868C10.0735 24.2806 10.2007 24.3333 10.3333 24.3333H15.6666M13.1666 14.3333H19.8333M13.1666 11H16.5M13.1666 17.6666H15.6666M21.4616 20.1166L22.295 19.2833C22.3817 19.1965 22.4848 19.1276 22.5981 19.0806C22.7115 19.0336 22.8331 19.0094 22.9558 19.0094C23.0786 19.0094 23.2001 19.0336 23.3135 19.0806C23.4269 19.1276 23.5299 19.1965 23.6166 19.2833C23.7918 19.4585 23.8901 19.696 23.8901 19.9437C23.8901 20.1914 23.7918 20.4289 23.6166 20.6041L22.7833 21.4375L21.4616 20.1158L18.9691 22.6083C18.8445 22.7333 18.7628 22.8947 18.7358 23.0691L18.5325 24.3666L19.83 24.1641C20.0044 24.1371 20.1658 24.0554 20.2908 23.9308L22.7825 21.4375" stroke="#FFAB00" stroke-width="0.75" stroke-linecap="round" stroke-linejoin="round"/>
<path d="M19.8333 7.66663V10.5C19.8333 10.6326 19.886 10.7597 19.9798 10.8535C20.0735 10.9473 20.2007 11 20.3333 11H23.1666" stroke="#FFAB00" stroke-width="0.75" stroke-linecap="round" stroke-linejoin="round"/>
</svg>
