<svg width="33" height="32" viewBox="0 0 33 32" fill="none" xmlns="http://www.w3.org/2000/svg">
<g clip-path="url(#clip0_2471_37093)">
<path fill-rule="evenodd" clip-rule="evenodd" d="M26.5 6V26H6.5V6H26.5ZM16.995 25.3817L16.985 25.3833L16.9258 25.4125L16.9092 25.4158L16.8975 25.4125L16.8383 25.3825C16.83 25.38 16.8225 25.3825 16.8183 25.3875L16.815 25.3958L16.8008 25.7525L16.805 25.7692L16.8133 25.78L16.9 25.8417L16.9125 25.845L16.9225 25.8417L17.0092 25.78L17.0192 25.7667L17.0225 25.7525L17.0083 25.3967C17.0067 25.3883 17.0008 25.3825 16.995 25.3817ZM17.215 25.2875L17.2033 25.2892L17.05 25.3667L17.0417 25.375L17.0392 25.3842L17.0542 25.7425L17.0583 25.7525L17.065 25.7592L17.2325 25.8358C17.2425 25.8392 17.2517 25.8358 17.2567 25.8292L17.26 25.8175L17.2317 25.3058C17.2292 25.2958 17.2233 25.2892 17.215 25.2875ZM16.6192 25.2892C16.6154 25.2874 16.6111 25.287 16.6071 25.2879C16.603 25.2888 16.5994 25.291 16.5967 25.2942L16.5917 25.3058L16.5633 25.8175C16.5633 25.8275 16.5692 25.8342 16.5775 25.8375L16.59 25.8358L16.7575 25.7583L16.7658 25.7517L16.7683 25.7425L16.7833 25.3842L16.7808 25.3742L16.7725 25.3658L16.6192 25.2892Z" fill="#919EAB" fill-opacity="0.08"/>
<path fill-rule="evenodd" clip-rule="evenodd" d="M14 8.5C14.2041 8.50003 14.4011 8.57496 14.5536 8.7106C14.7062 8.84623 14.8036 9.03312 14.8275 9.23583L14.8333 9.33333V10.1667H18.1666C18.379 10.1671 18.5831 10.2486 18.7374 10.3945C18.8917 10.5403 18.9845 10.7396 18.9968 10.9516C19.0092 11.1635 18.9401 11.3722 18.8038 11.535C18.6675 11.6978 18.4742 11.8024 18.2633 11.8275L18.1666 11.8333H17.2875C17.1016 13.5267 16.3575 15.1583 15.1666 16.5733C15.6025 16.9517 16.085 17.305 16.6125 17.6283L16.9341 17.8183L18.6566 13.9917C18.7187 13.8536 18.8172 13.7351 18.9416 13.6488C19.0659 13.5626 19.2114 13.5118 19.3624 13.5019C19.5134 13.4921 19.6643 13.5235 19.7988 13.5929C19.9333 13.6623 20.0463 13.767 20.1258 13.8958L20.1758 13.9917L23.9258 22.325C24.0132 22.5189 24.0231 22.7389 23.9536 22.9399C23.884 23.1409 23.7402 23.3077 23.5517 23.4061C23.3632 23.5045 23.1441 23.5271 22.9394 23.4693C22.7348 23.4115 22.56 23.2775 22.4508 23.095L22.4066 23.0083L21.5025 21H17.33L16.4266 23.0083C16.3398 23.2028 16.1818 23.3566 15.9852 23.4382C15.7885 23.5198 15.568 23.5231 15.369 23.4472C15.17 23.3714 15.0076 23.2223 14.9151 23.0305C14.8226 22.8387 14.8071 22.6188 14.8716 22.4158L14.9066 22.3242L16.2483 19.3442C15.4434 18.9011 14.689 18.3718 13.9983 17.7658C12.9258 18.7125 11.625 19.5142 10.1425 20.1075C9.93727 20.1896 9.70785 20.1868 9.50468 20.0998C9.30152 20.0127 9.14125 19.8485 9.05915 19.6433C8.97704 19.4381 8.97982 19.2087 9.06686 19.0055C9.15391 18.8024 9.3181 18.6421 9.52331 18.56C10.8208 18.0408 11.9291 17.3592 12.8333 16.575C12.1297 15.7476 11.5722 14.8064 11.185 13.7917C11.1074 13.5847 11.1152 13.3554 11.2067 13.1542C11.2982 12.9529 11.4659 12.7963 11.6729 12.7188C11.8799 12.6412 12.1092 12.649 12.3104 12.7405C12.5116 12.832 12.6682 12.9997 12.7458 13.2067C13.0455 13.9902 13.4689 14.7206 14 15.37C14.8241 14.3475 15.3541 13.2233 15.5641 12.0942L15.6066 11.8333H9.83331C9.62091 11.8331 9.41662 11.7518 9.26217 11.606C9.10773 11.4602 9.01478 11.2609 9.00234 11.0488C8.98989 10.8368 9.05888 10.628 9.1952 10.4651C9.33153 10.3023 9.5249 10.1976 9.73581 10.1725L9.83331 10.1667H13.1666V9.33333C13.1666 9.11232 13.2544 8.90036 13.4107 8.74408C13.567 8.5878 13.779 8.5 14 8.5ZM20.7525 19.3333L19.4166 16.3642L18.0816 19.3333H20.7525Z" fill="#6A4C93"/>
</g>
<defs>
<clipPath id="clip0_2471_37093">
<rect width="20" height="20" fill="white" transform="translate(6.5 6)"/>
</clipPath>
</defs>
</svg>
