<svg width="16" height="14" viewBox="0 0 16 14" fill="none" xmlns="http://www.w3.org/2000/svg">
<path d="M15.425 6.99986C15.425 6.91736 15.38 6.83486 15.3575 6.75236C15.3228 6.60682 15.2777 6.46395 15.2225 6.32486C15.185 6.23486 15.1325 6.14486 15.0875 6.04736C15.0425 5.94986 14.975 5.82236 14.9075 5.71736C14.84 5.61236 14.75 5.55986 14.75 5.49986C14.75 5.43986 14.6 5.31236 14.5175 5.22236C14.435 5.13236 14.36 5.07236 14.2775 4.99736L14 4.74986L13.73 4.56986C13.624 4.505 13.5138 4.44737 13.4 4.39736L13.1075 4.26236C12.985 4.21699 12.8597 4.17942 12.7325 4.14986C12.6317 4.12021 12.529 4.09766 12.425 4.08236L12.2525 3.99986C11.9465 3.11565 11.3724 2.34883 10.6103 1.80608C9.84807 1.26334 8.93567 0.97168 8 0.97168C7.06433 0.97168 6.15193 1.26334 5.38975 1.80608C4.62757 2.34883 4.05353 3.11565 3.7475 3.99986L3.6125 4.03736C3.50855 4.05266 3.4058 4.07521 3.305 4.10486C3.17775 4.13442 3.0525 4.17199 2.93 4.21736L2.6375 4.35236C2.52374 4.40237 2.41349 4.46 2.3075 4.52486L2.0375 4.74986L1.76 4.98236C1.6775 5.05736 1.595 5.12486 1.52 5.20736C1.445 5.28986 1.3625 5.39486 1.2875 5.48486C1.2125 5.57486 1.1525 5.65736 1.0925 5.75486C1.0325 5.85236 0.9725 5.97236 0.9125 6.08486C0.8525 6.19736 0.815 6.27236 0.7775 6.36236C0.722331 6.50145 0.677216 6.64432 0.6425 6.78986C0.6425 6.87236 0.59 6.95486 0.575 7.03736C0.528317 7.27208 0.503213 7.51057 0.5 7.74986C0.503516 7.97884 0.526094 8.20713 0.5675 8.43236C0.5675 8.50736 0.605 8.57486 0.62 8.64986C0.65707 8.79721 0.702137 8.94242 0.755 9.08486L0.845 9.30236C0.911021 9.44699 0.986173 9.58727 1.07 9.72236L1.175 9.88736C1.18579 9.90838 1.19833 9.92845 1.2125 9.94736L1.25 9.99986C1.5993 10.4656 2.05224 10.8436 2.57295 11.104C3.09366 11.3643 3.66783 11.4999 4.25 11.4999H6.5V10.4724C6.27212 10.6046 6.01344 10.6744 5.75 10.6749C5.34369 10.6711 4.9554 10.5066 4.67 10.2174C4.53297 10.0756 4.42523 9.90822 4.35294 9.72479C4.28065 9.54136 4.24524 9.34547 4.24872 9.14834C4.25221 8.95121 4.29452 8.7567 4.37324 8.57593C4.45196 8.39517 4.56555 8.23169 4.7075 8.09486L6.9575 5.91986C7.23744 5.65005 7.6112 5.49946 8 5.49986C8.39718 5.50154 8.77749 5.66067 9.0575 5.94236L11.3075 8.19236C11.5869 8.47341 11.7437 8.85358 11.7437 9.24986C11.7437 9.64614 11.5869 10.0263 11.3075 10.3074C11.0275 10.5891 10.6472 10.7482 10.25 10.7499C9.98617 10.7523 9.72673 10.6823 9.5 10.5474V11.4999H11.75C12.3322 11.4999 12.9063 11.3643 13.4271 11.104C13.9478 10.8436 14.4007 10.4656 14.75 9.99986L14.7875 9.96236C14.8017 9.94345 14.8142 9.92338 14.825 9.90236L14.93 9.73736C15.0138 9.60227 15.089 9.46199 15.155 9.31736L15.245 9.09986C15.2979 8.95742 15.3429 8.81221 15.38 8.66486C15.38 8.58986 15.4175 8.52236 15.4325 8.44736C15.4747 8.2172 15.4973 7.98386 15.5 7.74986C15.4991 7.49804 15.474 7.24688 15.425 6.99986Z" fill="#00A76F"/>
<path d="M8.5325 6.46736C8.3923 6.32994 8.20381 6.25297 8.0075 6.25297C7.81119 6.25297 7.6227 6.32994 7.4825 6.46736L5.2325 8.64236C5.15292 8.70803 5.08774 8.78941 5.04104 8.88142C4.99435 8.97343 4.96714 9.07408 4.96112 9.17708C4.9551 9.28008 4.9704 9.38322 5.00605 9.48004C5.04171 9.57686 5.09696 9.66528 5.16835 9.73978C5.23974 9.81427 5.32573 9.87323 5.42095 9.91298C5.51617 9.95272 5.61856 9.97239 5.72172 9.97075C5.82489 9.96912 5.92661 9.94622 6.02052 9.90348C6.11443 9.86074 6.19851 9.79908 6.2675 9.72236L7.25 8.76986V12.9999C7.25 13.1988 7.32902 13.3895 7.46967 13.5302C7.61032 13.6708 7.80109 13.7499 8 13.7499C8.19891 13.7499 8.38968 13.6708 8.53033 13.5302C8.67098 13.3895 8.75 13.1988 8.75 12.9999V8.80736L9.7175 9.78236C9.78722 9.85266 9.87017 9.90845 9.96157 9.94653C10.053 9.98461 10.151 10.0042 10.25 10.0042C10.349 10.0042 10.447 9.98461 10.5384 9.94653C10.6298 9.90845 10.7128 9.85266 10.7825 9.78236C10.8528 9.71264 10.9086 9.62969 10.9467 9.5383C10.9847 9.4469 11.0043 9.34887 11.0043 9.24986C11.0043 9.15085 10.9847 9.05282 10.9467 8.96143C10.9086 8.87004 10.8528 8.78708 10.7825 8.71736L8.5325 6.46736Z" fill="#00A76F"/>
</svg>
