<svg width="16" height="14" viewBox="0 0 16 14" fill="none" xmlns="http://www.w3.org/2000/svg">
<path d="M15.425 6.99999C15.425 6.91749 15.38 6.83498 15.3575 6.75248C15.3228 6.60694 15.2777 6.46407 15.2225 6.32499C15.185 6.23499 15.1325 6.14498 15.0875 6.04748C15.0425 5.94998 14.975 5.82248 14.9075 5.71748C14.84 5.61248 14.75 5.55999 14.75 5.49998C14.75 5.43998 14.6 5.31249 14.5175 5.22249C14.435 5.13248 14.36 5.07248 14.2775 4.99749L14 4.74998L13.73 4.56999C13.624 4.50512 13.5138 4.44749 13.4 4.39748L13.1075 4.26249C12.985 4.21712 12.8597 4.17954 12.7325 4.14998C12.6317 4.12033 12.5289 4.09778 12.425 4.08248L12.2525 3.99998C11.9465 3.11578 11.3724 2.34895 10.6103 1.80621C9.84807 1.26346 8.93567 0.971802 8 0.971802C7.06433 0.971802 6.15193 1.26346 5.38975 1.80621C4.62757 2.34895 4.05353 3.11578 3.7475 3.99998L3.6125 4.03749C3.50855 4.05278 3.4058 4.07533 3.305 4.10499C3.17775 4.13454 3.0525 4.17211 2.93 4.21748L2.6375 4.35249C2.52374 4.40249 2.41349 4.46012 2.3075 4.52498L2.0375 4.74998L1.76 4.98249C1.6775 5.05749 1.595 5.12498 1.52 5.20748C1.445 5.28998 1.3625 5.39498 1.2875 5.48498C1.2125 5.57498 1.1525 5.65749 1.0925 5.75498C1.0325 5.85249 0.9725 5.97248 0.9125 6.08498C0.8525 6.19748 0.815 6.27248 0.7775 6.36248C0.722331 6.50157 0.677216 6.64444 0.6425 6.78999C0.6425 6.87249 0.59 6.95498 0.575 7.03748C0.528317 7.2722 0.503213 7.51069 0.5 7.74999C0.503516 7.97896 0.526094 8.20725 0.5675 8.43249C0.5675 8.50748 0.605 8.57498 0.62 8.64998C0.65707 8.79733 0.702137 8.94254 0.755 9.08498L0.845 9.30248C0.911021 9.44711 0.986173 9.5874 1.07 9.72248L1.175 9.88749C1.18579 9.9085 1.19833 9.92858 1.2125 9.94748L1.25 9.99998C1.5993 10.4657 2.05224 10.8437 2.57295 11.1041C3.09366 11.3644 3.66783 11.5 4.25 11.5H6.5V10.4725C6.27212 10.6047 6.01344 10.6745 5.75 10.675C5.34369 10.6712 4.9554 10.5067 4.67 10.2175C4.53297 10.0757 4.42523 9.90834 4.35294 9.72491C4.28065 9.54148 4.24524 9.34559 4.24872 9.14846C4.25221 8.95133 4.29452 8.75682 4.37324 8.57605C4.45196 8.39529 4.56555 8.23181 4.7075 8.09498L6.9575 5.91999C7.23744 5.65017 7.6112 5.49959 8 5.49998C8.39718 5.50166 8.77749 5.66079 9.0575 5.94248L11.3075 8.19249C11.5869 8.47353 11.7437 8.85371 11.7437 9.24998C11.7437 9.64626 11.5869 10.0264 11.3075 10.3075C11.0275 10.5892 10.6472 10.7483 10.25 10.75C9.98617 10.7525 9.72673 10.6824 9.5 10.5475V11.5H11.75C12.3322 11.5 12.9063 11.3644 13.4271 11.1041C13.9478 10.8437 14.4007 10.4657 14.75 9.99998L14.7875 9.96248C14.8017 9.94357 14.8142 9.9235 14.825 9.90248L14.93 9.73748C15.0138 9.6024 15.089 9.46211 15.155 9.31748L15.245 9.09998C15.2979 8.95754 15.3429 8.81233 15.38 8.66498C15.38 8.58998 15.4175 8.52249 15.4325 8.44749C15.4747 8.21732 15.4973 7.98398 15.5 7.74999C15.4991 7.49816 15.474 7.247 15.425 6.99999Z" fill="#00A76F"/>
<path d="M8.5325 6.46748C8.3923 6.33006 8.20381 6.25309 8.0075 6.25309C7.81119 6.25309 7.6227 6.33006 7.4825 6.46748L5.2325 8.64248C5.15292 8.70815 5.08774 8.78954 5.04105 8.88154C4.99435 8.97355 4.96714 9.0742 4.96112 9.1772C4.9551 9.28021 4.9704 9.38334 5.00605 9.48016C5.04171 9.57698 5.09696 9.6654 5.16835 9.7399C5.23974 9.81439 5.32573 9.87335 5.42095 9.9131C5.51617 9.95284 5.61856 9.97251 5.72172 9.97088C5.82489 9.96924 5.92661 9.94634 6.02052 9.9036C6.11443 9.86086 6.19851 9.7992 6.2675 9.72248L7.25 8.76998V13C7.25 13.1989 7.32902 13.3897 7.46967 13.5303C7.61032 13.671 7.80109 13.75 8 13.75C8.19891 13.75 8.38968 13.671 8.53033 13.5303C8.67098 13.3897 8.75 13.1989 8.75 13V8.80749L9.7175 9.78248C9.78722 9.85278 9.87017 9.90858 9.96157 9.94665C10.053 9.98473 10.151 10.0043 10.25 10.0043C10.349 10.0043 10.447 9.98473 10.5384 9.94665C10.6298 9.90858 10.7128 9.85278 10.7825 9.78248C10.8528 9.71276 10.9086 9.62981 10.9467 9.53842C10.9847 9.44702 11.0043 9.34899 11.0043 9.24998C11.0043 9.15098 10.9847 9.05295 10.9467 8.96155C10.9086 8.87016 10.8528 8.78721 10.7825 8.71748L8.5325 6.46748Z" fill="#00A76F"/>
</svg>
