<svg width="19" height="22" viewBox="0 0 19 22" fill="none" xmlns="http://www.w3.org/2000/svg">
<path d="M6.5 20H2.5C1.95 20 1.47917 19.8042 1.0875 19.4125C0.695833 19.0208 0.5 18.55 0.5 18V4C0.5 3.45 0.695833 2.97917 1.0875 2.5875C1.47917 2.19583 1.95 2 2.5 2H6.5V4H2.5V18H6.5V20ZM8.5 22V0H10.5V22H8.5ZM12.5 20V18H14.5V20H12.5ZM12.5 4V2H14.5V4H12.5ZM16.5 20V18H18.5C18.5 18.55 18.3042 19.0208 17.9125 19.4125C17.5208 19.8042 17.05 20 16.5 20ZM16.5 16V14H18.5V16H16.5ZM16.5 12V10H18.5V12H16.5ZM16.5 8V6H18.5V8H16.5ZM16.5 4V2C17.05 2 17.5208 2.19583 17.9125 2.5875C18.3042 2.97917 18.5 3.45 18.5 4H16.5Z" fill="#929CA7"/>
</svg>
