<svg width="20" height="19" viewBox="0 0 20 19" fill="none" xmlns="http://www.w3.org/2000/svg">
<path d="M19.9 8.99999C19.9 8.88999 19.84 8.77999 19.81 8.66999C19.7637 8.47593 19.7036 8.28544 19.63 8.1C19.58 7.98 19.51 7.85999 19.45 7.72999C19.39 7.59999 19.3 7.42999 19.21 7.28999C19.12 7.14999 19 7.07999 19 6.99999C19 6.91999 18.8 6.74999 18.69 6.62999C18.58 6.50999 18.48 6.42999 18.37 6.32999L18 5.99999L17.64 5.75999C17.4987 5.67351 17.3517 5.59667 17.2 5.52999L16.81 5.34999C16.6467 5.2895 16.4797 5.2394 16.31 5.19999C16.1756 5.16046 16.0386 5.13038 15.9 5.10999H15.72C15.3348 3.90926 14.5811 2.8604 13.5659 2.11238C12.5507 1.36436 11.3257 0.955207 10.0647 0.943029C8.80376 0.930851 7.57103 1.31627 6.54158 2.04454C5.51213 2.77281 4.73831 3.80692 4.33 4.99999H4.15C4.0114 5.02038 3.8744 5.05046 3.74 5.08999C3.57034 5.1294 3.40334 5.1795 3.24 5.23999L2.85 5.41999C2.69832 5.48667 2.55132 5.56351 2.41 5.64999L2.05 5.99999L1.68 6.31C1.57 6.41 1.46 6.49999 1.36 6.60999C1.26 6.71999 1.15 6.85999 1.05 6.97999C0.95 7.09999 0.87 7.20999 0.79 7.33999C0.71 7.47 0.63 7.62999 0.55 7.77999C0.47 7.92999 0.42 8.02999 0.37 8.14999C0.296442 8.33544 0.236288 8.52593 0.19 8.72C0.19 8.83 0.12 8.93999 0.0999999 9.04999C0.0377566 9.36295 0.00428374 9.68094 0 9.99999C0.0046879 10.3053 0.0347918 10.6097 0.0899999 10.91C0.0899999 11.01 0.14 11.1 0.16 11.2C0.209427 11.3965 0.269516 11.5901 0.34 11.78L0.46 12.07C0.548028 12.2628 0.64823 12.4499 0.76 12.63L0.9 12.85C0.914387 12.878 0.931113 12.9048 0.95 12.93L1 13C1.46574 13.621 2.06965 14.125 2.76393 14.4721C3.45821 14.8193 4.22377 15 5 15C5.00223 14.4704 5.21441 13.9633 5.59 13.59C5.96335 13.2144 6.47042 13.0022 7 13C7.35177 12.9967 7.6977 13.0901 8 13.27V9.99999C8 9.46956 8.21071 8.96085 8.58579 8.58578C8.96086 8.21071 9.46957 7.99999 10 7.99999C10.5304 7.99999 11.0391 8.21071 11.4142 8.58578C11.7893 8.96085 12 9.46956 12 9.99999V13.37C12.3038 13.1937 12.6487 13.1006 13 13.1C13.5417 13.1051 14.0595 13.3244 14.44 13.71C14.7767 14.058 14.9757 14.5164 15 15C15.7762 15 16.5418 14.8193 17.2361 14.4721C17.9303 14.125 18.5343 13.621 19 13L19.05 12.95C19.0689 12.9248 19.0856 12.898 19.1 12.87L19.24 12.65C19.3518 12.4699 19.452 12.2828 19.54 12.09L19.66 11.8C19.7305 11.6101 19.7906 11.4165 19.84 11.22C19.84 11.12 19.89 11.03 19.91 10.93C19.9663 10.6231 19.9964 10.312 20 9.99999C19.9988 9.66422 19.9654 9.32934 19.9 8.99999Z" fill="#212B36"/>
<path d="M12.31 14.38L11 15.64V9.99999C11 9.73478 10.8946 9.48042 10.7071 9.29289C10.5196 9.10535 10.2652 8.99999 10 8.99999C9.73478 8.99999 9.48043 9.10535 9.29289 9.29289C9.10536 9.48042 9 9.73478 9 9.99999V15.59L7.71 14.29C7.61676 14.1968 7.50607 14.1228 7.38425 14.0723C7.26243 14.0219 7.13186 13.9959 7 13.9959C6.86814 13.9959 6.73757 14.0219 6.61575 14.0723C6.49393 14.1228 6.38324 14.1968 6.29 14.29C6.19676 14.3832 6.1228 14.4939 6.07234 14.6157C6.02188 14.7376 5.99591 14.8681 5.99591 15C5.99591 15.1319 6.02188 15.2624 6.07234 15.3842C6.1228 15.5061 6.19676 15.6168 6.29 15.71L9.29 18.71C9.38344 18.8027 9.49426 18.876 9.61609 18.9258C9.73793 18.9755 9.86839 19.0008 10 19C10.2575 18.999 10.5046 18.8987 10.69 18.72L13.69 15.82C13.7961 15.7324 13.883 15.6239 13.9453 15.5013C14.0075 15.3786 14.0438 15.2444 14.0518 15.107C14.0599 14.9697 14.0395 14.8322 13.9919 14.7031C13.9444 14.574 13.8707 14.4561 13.7755 14.3568C13.6803 14.2575 13.5657 14.1788 13.4387 14.1258C13.3118 14.0729 13.1753 14.0466 13.0377 14.0488C12.9002 14.051 12.7645 14.0815 12.6393 14.1385C12.5141 14.1955 12.402 14.2777 12.31 14.38Z" fill="#212B36"/>
<path d="M19.9 8.99999C19.9 8.88999 19.84 8.77999 19.81 8.66999C19.7637 8.47593 19.7036 8.28544 19.63 8.1C19.58 7.98 19.51 7.85999 19.45 7.72999C19.39 7.59999 19.3 7.42999 19.21 7.28999C19.12 7.14999 19 7.07999 19 6.99999C19 6.91999 18.8 6.74999 18.69 6.62999C18.58 6.50999 18.48 6.42999 18.37 6.32999L18 5.99999L17.64 5.75999C17.4987 5.67351 17.3517 5.59667 17.2 5.52999L16.81 5.34999C16.6467 5.2895 16.4797 5.2394 16.31 5.19999C16.1756 5.16046 16.0386 5.13038 15.9 5.10999H15.72C15.3348 3.90926 14.5811 2.8604 13.5659 2.11238C12.5507 1.36436 11.3257 0.955207 10.0647 0.943029C8.80376 0.930851 7.57103 1.31627 6.54158 2.04454C5.51213 2.77281 4.73831 3.80692 4.33 4.99999H4.15C4.0114 5.02038 3.8744 5.05046 3.74 5.08999C3.57034 5.1294 3.40334 5.1795 3.24 5.23999L2.85 5.41999C2.69832 5.48667 2.55132 5.56351 2.41 5.64999L2.05 5.99999L1.68 6.31C1.57 6.41 1.46 6.49999 1.36 6.60999C1.26 6.71999 1.15 6.85999 1.05 6.97999C0.95 7.09999 0.87 7.20999 0.79 7.33999C0.71 7.47 0.63 7.62999 0.55 7.77999C0.47 7.92999 0.42 8.02999 0.37 8.14999C0.296442 8.33544 0.236288 8.52593 0.19 8.72C0.19 8.83 0.12 8.93999 0.0999999 9.04999C0.0377566 9.36295 0.00428374 9.68094 0 9.99999C0.0046879 10.3053 0.0347918 10.6097 0.0899999 10.91C0.0899999 11.01 0.14 11.1 0.16 11.2C0.209427 11.3965 0.269516 11.5901 0.34 11.78L0.46 12.07C0.548028 12.2628 0.64823 12.4499 0.76 12.63L0.9 12.85C0.914387 12.878 0.931113 12.9048 0.95 12.93L1 13C1.46574 13.621 2.06965 14.125 2.76393 14.4721C3.45821 14.8193 4.22377 15 5 15C5.00223 14.4704 5.21441 13.9633 5.59 13.59C5.96335 13.2144 6.47042 13.0022 7 13C7.35177 12.9967 7.6977 13.0901 8 13.27V9.99999C8 9.46956 8.21071 8.96085 8.58579 8.58578C8.96086 8.21071 9.46957 7.99999 10 7.99999C10.5304 7.99999 11.0391 8.21071 11.4142 8.58578C11.7893 8.96085 12 9.46956 12 9.99999V13.37C12.3038 13.1937 12.6487 13.1006 13 13.1C13.5417 13.1051 14.0595 13.3244 14.44 13.71C14.7767 14.058 14.9757 14.5164 15 15C15.7762 15 16.5418 14.8193 17.2361 14.4721C17.9303 14.125 18.5343 13.621 19 13L19.05 12.95C19.0689 12.9248 19.0856 12.898 19.1 12.87L19.24 12.65C19.3518 12.4699 19.452 12.2828 19.54 12.09L19.66 11.8C19.7305 11.6101 19.7906 11.4165 19.84 11.22C19.84 11.12 19.89 11.03 19.91 10.93C19.9663 10.6231 19.9964 10.312 20 9.99999C19.9988 9.66422 19.9654 9.32934 19.9 8.99999Z" fill="#212B36"/>
<path d="M12.31 14.38L11 15.64V9.99999C11 9.73478 10.8946 9.48042 10.7071 9.29289C10.5196 9.10535 10.2652 8.99999 10 8.99999C9.73478 8.99999 9.48043 9.10535 9.29289 9.29289C9.10536 9.48042 9 9.73478 9 9.99999V15.59L7.71 14.29C7.61676 14.1968 7.50607 14.1228 7.38425 14.0723C7.26243 14.0219 7.13186 13.9959 7 13.9959C6.86814 13.9959 6.73757 14.0219 6.61575 14.0723C6.49393 14.1228 6.38324 14.1968 6.29 14.29C6.19676 14.3832 6.1228 14.4939 6.07234 14.6157C6.02188 14.7376 5.99591 14.8681 5.99591 15C5.99591 15.1319 6.02188 15.2624 6.07234 15.3842C6.1228 15.5061 6.19676 15.6168 6.29 15.71L9.29 18.71C9.38344 18.8027 9.49426 18.876 9.61609 18.9258C9.73793 18.9755 9.86839 19.0008 10 19C10.2575 18.999 10.5046 18.8987 10.69 18.72L13.69 15.82C13.7961 15.7324 13.883 15.6239 13.9453 15.5013C14.0075 15.3786 14.0438 15.2444 14.0518 15.107C14.0599 14.9697 14.0395 14.8322 13.9919 14.7031C13.9444 14.574 13.8707 14.4561 13.7755 14.3568C13.6803 14.2575 13.5657 14.1788 13.4387 14.1258C13.3118 14.0729 13.1753 14.0466 13.0377 14.0488C12.9002 14.051 12.7645 14.0815 12.6393 14.1385C12.5141 14.1955 12.402 14.2777 12.31 14.38Z" fill="#212B36"/>
</svg>
