<svg width="25" height="24" viewBox="0 0 25 24" fill="none" xmlns="http://www.w3.org/2000/svg">
<path d="M8.5 13.5H16.5M8.5 8.5H12.5" stroke="#212B36" stroke-width="2" stroke-linecap="round" stroke-linejoin="round"/>
<path d="M6.59881 19C5.2987 18.8721 4.32475 18.4816 3.67157 17.8284C2.5 16.6569 2.5 14.7712 2.5 11V10.5C2.5 6.72876 2.5 4.84315 3.67157 3.67157C4.84315 2.5 6.72876 2.5 10.5 2.5H14.5C18.2712 2.5 20.1569 2.5 21.3284 3.67157C22.5 4.84315 22.5 6.72876 22.5 10.5V11C22.5 14.7712 22.5 16.6569 21.3284 17.8284C20.1569 19 18.2712 19 14.5 19C13.9395 19.0125 13.4931 19.0551 13.0546 19.155C11.8562 19.4309 10.7465 20.0441 9.64987 20.5789C8.08729 21.3408 7.306 21.7218 6.81569 21.3651C5.87769 20.6665 6.79454 18.5019 7 17.5" stroke="#212B36" stroke-width="2" stroke-linecap="round"/>
</svg>
