<svg width="20" height="20" viewBox="0 0 20 20" fill="none" xmlns="http://www.w3.org/2000/svg">
<rect x="0.5" y="0.5" width="19" height="19" rx="9.5" stroke="black"/>
<path d="M17.5 11.875L16.8074 11.3258C16.0192 10.7008 15.625 10.3883 15.625 10C15.625 9.61167 16.0192 9.29917 16.8074 8.67417L17.5 8.125M2.5 8.125L3.19263 8.67417C3.98088 9.29917 4.375 9.61167 4.375 10C4.375 10.3883 3.98088 10.7008 3.19263 11.3258L2.5 11.875" stroke="black" stroke-width="1.25" stroke-linecap="round" stroke-linejoin="round"/>
<path d="M12.1431 17.5L12.2734 16.6177C12.4218 15.6135 12.4958 15.1114 12.8348 14.9155C13.1738 14.7196 13.6453 14.9063 14.5881 15.2798L15.4166 15.608M7.85675 2.5L7.72644 3.38233C7.57812 4.38649 7.50397 4.88857 7.16498 5.08449C6.826 5.28042 6.35457 5.09367 5.41172 4.72017L4.58325 4.39198" stroke="black" stroke-width="1.25" stroke-linecap="round" stroke-linejoin="round"/>
<path d="M4.16675 15.6098L5.05868 15.2812C6.07375 14.9074 6.58131 14.7204 6.94609 14.9162C7.31087 15.1119 7.39045 15.6139 7.54959 16.6178L7.68943 17.5M15.8334 4.39021L14.9415 4.71874C13.9264 5.09262 13.4188 5.27957 13.0541 5.08383C12.6893 4.88809 12.6097 4.38611 12.4506 3.38216L12.3107 2.5" stroke="black" stroke-width="1.25" stroke-linecap="round" stroke-linejoin="round"/>
<path d="M15.8334 10.0003H4.16675M12.9167 14.9998L7.08341 5M12.9167 5.00021L7.08341 15" stroke="black" stroke-width="1.25" stroke-linejoin="round"/>
</svg>
