<svg width="20" height="20" viewBox="0 0 20 20" fill="none" xmlns="http://www.w3.org/2000/svg">
<path d="M17.5 11.875L16.8074 11.3258C16.0192 10.7008 15.625 10.3883 15.625 10C15.625 9.61167 16.0192 9.29917 16.8074 8.67417L17.5 8.125M2.5 8.125L3.19263 8.67417C3.98088 9.29917 4.375 9.61167 4.375 10C4.375 10.3883 3.98088 10.7008 3.19263 11.3258L2.5 11.875" stroke="black" stroke-width="1.25" stroke-linecap="round" stroke-linejoin="round"/>
<path d="M12.1432 17.5L12.2735 16.6177C12.4219 15.6135 12.496 15.1114 12.835 14.9155C13.174 14.7196 13.6454 14.9063 14.5882 15.2798L15.4167 15.608M7.85687 2.5L7.72656 3.38233C7.57824 4.38649 7.50409 4.88857 7.16511 5.08449C6.82612 5.28042 6.35469 5.09367 5.41184 4.72017L4.58337 4.39198" stroke="black" stroke-width="1.25" stroke-linecap="round" stroke-linejoin="round"/>
<path d="M4.16663 15.6098L5.05856 15.2812C6.07363 14.9074 6.58118 14.7204 6.94597 14.9162C7.31075 15.1119 7.39033 15.6139 7.54947 16.6178L7.68931 17.5M15.8333 4.39021L14.9414 4.71874C13.9263 5.09262 13.4187 5.27957 13.054 5.08383C12.6892 4.88809 12.6096 4.38611 12.4505 3.38216L12.3106 2.5" stroke="black" stroke-width="1.25" stroke-linecap="round" stroke-linejoin="round"/>
<path d="M15.8333 10.0003H4.16663M12.9166 14.9998L7.08329 5M12.9166 5.00021L7.08329 15" stroke="black" stroke-width="1.25" stroke-linejoin="round"/>
</svg>
