<svg width="28" height="27" viewBox="0 0 28 27" fill="none" xmlns="http://www.w3.org/2000/svg">
<path d="M12 6H4C3.46957 6 2.96086 6.21071 2.58579 6.58579C2.21071 6.96086 2 7.46957 2 8V24.286C2.00002 24.4264 2.04167 24.5637 2.11969 24.6804C2.1977 24.7971 2.30858 24.8881 2.43831 24.9419C2.56803 24.9956 2.71077 25.0097 2.84849 24.9823C2.9862 24.9549 3.1127 24.8873 3.212 24.788L5.414 22.586C5.78899 22.2109 6.29761 22.0001 6.828 22H20C20.5304 22 21.0391 21.7893 21.4142 21.4142C21.7893 21.0391 22 20.5304 22 20V16" stroke="#858481" stroke-width="2" stroke-linecap="round" stroke-linejoin="round"/>
<path d="M21 13C24.3137 13 27 10.3137 27 7C27 3.68629 24.3137 1 21 1C17.6863 1 15 3.68629 15 7C15 10.3137 17.6863 13 21 13Z" stroke="#858481" stroke-width="2" stroke-linecap="round" stroke-linejoin="round"/>
<path d="M19 7H23" stroke="#858481" stroke-width="2" stroke-linecap="round" stroke-linejoin="round"/>
<path d="M21 5V9" stroke="#858481" stroke-width="2" stroke-linecap="round" stroke-linejoin="round"/>
</svg>
