<svg width="19" height="18" viewBox="0 0 19 18" fill="none" xmlns="http://www.w3.org/2000/svg">
<path opacity="0.32" fill-rule="evenodd" clip-rule="evenodd" d="M16.1836 6.17021C15.1038 6.44182 13.8288 6.45986 12.7277 6.12345C12.2621 5.98121 11.8991 5.61855 11.742 5.15782C11.3505 4.01008 11.2539 2.60522 11.5415 1.52385C10.9459 1.50889 10.2686 1.5 9.5 1.5C6.88681 1.5 5.32959 1.60262 4.44714 1.69784C3.79337 1.76839 3.28926 2.2112 3.16685 2.85725C2.97631 3.86291 2.75 5.74294 2.75 9C2.75 12.2571 2.97631 14.1371 3.16685 15.1428C3.28926 15.7888 3.79337 16.2316 4.44714 16.3022C5.32959 16.3974 6.88681 16.5 9.5 16.5C12.1132 16.5 13.6704 16.3974 14.5529 16.3022C15.2066 16.2316 15.7108 15.7888 15.8332 15.1428C16.0237 14.1371 16.25 12.2571 16.25 9C16.25 7.90838 16.2246 6.9714 16.1836 6.17021Z" fill="#00A76F"/>
<path d="M16.1836 6.17021C15.1038 6.44182 13.8288 6.45986 12.7277 6.12345C12.2621 5.98121 11.8991 5.61855 11.742 5.15782C11.3505 4.01006 11.2538 2.60518 11.5415 1.5238C11.5415 1.5238 12.4596 1.87495 14.1471 3.56245C15.8346 5.24996 16.1836 6.17021 16.1836 6.17021Z" fill="#00A76F"/>
</svg>
