<svg width="24" height="24" viewBox="0 0 24 24" fill="none" xmlns="http://www.w3.org/2000/svg">
<path d="M13.5718 0C14.102 0 14.6105 0.210507 14.9855 0.585255L21.6135 7.20826C21.9889 7.58338 22.1998 8.09231 22.1998 8.62301V21.2C22.1998 22.7464 20.9211 24 19.3438 24H4.6558C3.07848 24 1.7998 22.7464 1.7998 21.2V2.8C1.7998 1.2536 3.07848 0 4.6558 0H13.5718Z" fill="#E94848"/>
<g filter="url(#filter0_d_2083_32127)">
<path d="M20.7544 6.94208C21.0674 7.25765 20.8439 7.79419 20.3994 7.79419H17.3996C15.8532 7.79419 14.4582 6.43401 14.4582 4.92623V1.8083C14.4582 1.36187 14.9988 1.13923 15.3132 1.4562L20.7544 6.94208Z" fill="white" fill-opacity="0.24" shape-rendering="crispEdges"/>
</g>
<path d="M9.64 9.59424C9.12785 9.59424 8.70667 10.0154 8.70667 10.5276C8.70667 11.1642 9.06041 11.9546 9.43292 12.6976C9.14175 13.6091 8.81133 14.5858 8.38875 15.4101C7.52383 15.7494 6.75249 16.0017 6.28875 16.3755C6.28152 16.3829 6.2747 16.3907 6.26833 16.3988C6.09887 16.5721 6 16.8081 6 17.0609C6 17.5731 6.42118 17.9942 6.93333 17.9942C7.18308 17.9942 7.42414 17.901 7.59833 17.723C7.60436 17.7184 7.6102 17.7135 7.61583 17.7084C7.9572 17.3008 8.3597 16.5614 8.71833 15.8855C9.54487 15.5603 10.4112 15.2295 11.2471 15.0309C11.8573 15.5227 12.7401 15.8476 13.4667 15.8476C13.9788 15.8476 14.4 15.4264 14.4 14.9142C14.4 14.4021 13.9788 13.9809 13.4667 13.9809C12.884 13.9809 12.0374 14.1889 11.39 14.4067C10.8653 13.9141 10.3832 13.2989 10.0367 12.6451C10.2842 11.8824 10.5733 11.1193 10.5733 10.5276C10.5733 10.0154 10.1522 9.59424 9.64 9.59424ZM9.64 10.1542C9.8495 10.1542 10.0133 10.3181 10.0133 10.5276C10.0133 10.8077 9.86333 11.3235 9.68958 11.878C9.45742 11.3385 9.26667 10.821 9.26667 10.5276C9.26667 10.3181 9.4305 10.1542 9.64 10.1542ZM9.80042 13.348C10.0811 13.7945 10.4099 14.21 10.7687 14.5788C10.2153 14.7302 9.6747 14.9241 9.14125 15.1272C9.3989 14.5456 9.60516 13.9422 9.80042 13.348ZM13.4667 14.5409C13.6762 14.5409 13.84 14.7047 13.84 14.9142C13.84 15.1237 13.6762 15.2876 13.4667 15.2876C13.0461 15.2876 12.4483 15.0977 11.9704 14.8326C12.5189 14.6775 13.1175 14.5409 13.4667 14.5409ZM7.89583 16.2122C7.63337 16.6807 7.37248 17.1179 7.19 17.338C7.12767 17.3976 7.04474 17.4342 6.93333 17.4342C6.72383 17.4342 6.56 17.2704 6.56 17.0609C6.56 16.9623 6.6019 16.8644 6.65917 16.8013C6.87811 16.6319 7.35444 16.4288 7.89583 16.2122Z" fill="white"/>
<defs>
<filter id="filter0_d_2083_32127" x="12.458" y="1.30737" width="10.4424" height="10.4868" filterUnits="userSpaceOnUse" color-interpolation-filters="sRGB">
<feFlood flood-opacity="0" result="BackgroundImageFix"/>
<feColorMatrix in="SourceAlpha" type="matrix" values="0 0 0 0 0 0 0 0 0 0 0 0 0 0 0 0 0 0 127 0" result="hardAlpha"/>
<feOffset dy="2"/>
<feGaussianBlur stdDeviation="1"/>
<feComposite in2="hardAlpha" operator="out"/>
<feColorMatrix type="matrix" values="0 0 0 0 0 0 0 0 0 0 0 0 0 0 0 0 0 0 0.04 0"/>
<feBlend mode="normal" in2="BackgroundImageFix" result="effect1_dropShadow_2083_32127"/>
<feBlend mode="normal" in="SourceGraphic" in2="effect1_dropShadow_2083_32127" result="shape"/>
</filter>
</defs>
</svg>
