<svg width="25" height="24" viewBox="0 0 25 24" fill="none" xmlns="http://www.w3.org/2000/svg">
<path d="M10.2273 2C6.96607 2 5.33546 2 4.20307 2.79784C3.87862 3.02643 3.59058 3.29752 3.3477 3.60289C2.5 4.66867 2.5 6.20336 2.5 9.27273V11.8182C2.5 14.7814 2.5 16.2629 2.96894 17.4462C3.72281 19.3486 5.31714 20.8491 7.33836 21.5586C8.59563 22 10.1698 22 13.3182 22C15.1173 22 16.0168 22 16.7352 21.7478C17.8902 21.3424 18.8012 20.4849 19.232 19.3979C19.5 18.7217 19.5 17.8751 19.5 16.1818V15.5" stroke="#929CA7" stroke-width="2" stroke-linecap="round" stroke-linejoin="round"/>
<path d="M15.5 7.5C15.5 7.5 16 7.5 16.5 8.5C16.5 8.5 18.0882 6 19.5 5.5" stroke="#929CA7" stroke-width="2" stroke-linecap="round" stroke-linejoin="round"/>
<path d="M22.5 7C22.5 9.76142 20.2614 12 17.5 12C14.7386 12 12.5 9.76142 12.5 7C12.5 4.23858 14.7386 2 17.5 2C20.2614 2 22.5 4.23858 22.5 7Z" stroke="#929CA7" stroke-width="2" stroke-linecap="round"/>
<path d="M2.5 12C2.5 13.8409 3.99238 15.3333 5.83333 15.3333C6.49912 15.3333 7.28404 15.2167 7.93137 15.3901C8.50652 15.5442 8.95576 15.9935 9.10988 16.5686C9.28333 17.216 9.16667 18.0009 9.16667 18.6667C9.16667 20.5076 10.6591 22 12.5 22" stroke="#929CA7" stroke-width="2" stroke-linecap="round" stroke-linejoin="round"/>
</svg>
