<svg width="14" height="16" viewBox="0 0 14 16" fill="none" xmlns="http://www.w3.org/2000/svg">
<path fill-rule="evenodd" clip-rule="evenodd" d="M3.43375 0.492676H10.5662C11.4355 0.492676 11.8698 0.492676 12.2208 0.614926C12.5517 0.732217 12.8511 0.924236 13.0958 1.17606C13.3405 1.42789 13.5238 1.73274 13.6315 2.06693C13.75 2.42843 13.75 2.87543 13.75 3.77018V14.2732C13.75 14.9167 13.0113 15.2587 12.544 14.8312C12.4129 14.71 12.241 14.6428 12.0625 14.6428C11.884 14.6428 11.7121 14.71 11.581 14.8312L11.2188 15.1627C10.9891 15.375 10.6878 15.493 10.375 15.493C10.0622 15.493 9.76091 15.375 9.53125 15.1627C9.30159 14.9503 9.0003 14.8323 8.6875 14.8323C8.3747 14.8323 8.07341 14.9503 7.84375 15.1627C7.61409 15.375 7.3128 15.493 7 15.493C6.6872 15.493 6.38591 15.375 6.15625 15.1627C5.92659 14.9503 5.6253 14.8323 5.3125 14.8323C4.9997 14.8323 4.69841 14.9503 4.46875 15.1627C4.23909 15.375 3.9378 15.493 3.625 15.493C3.3122 15.493 3.01091 15.375 2.78125 15.1627L2.419 14.8312C2.28791 14.71 2.11598 14.6428 1.9375 14.6428C1.75902 14.6428 1.58709 14.71 1.456 14.8312C0.98875 15.2587 0.25 14.9167 0.25 14.2732V3.77018C0.25 2.87543 0.25 2.42768 0.3685 2.06768C0.5935 1.38293 1.11475 0.845926 1.77925 0.614926C2.13025 0.492676 2.5645 0.492676 3.43375 0.492676ZM3.25 4.05518C3.10082 4.05518 2.95774 4.11444 2.85225 4.21993C2.74676 4.32542 2.6875 4.46849 2.6875 4.61768C2.6875 4.76686 2.74676 4.90993 2.85225 5.01542C2.95774 5.12091 3.10082 5.18018 3.25 5.18018H3.625C3.77418 5.18018 3.91726 5.12091 4.02275 5.01542C4.12824 4.90993 4.1875 4.76686 4.1875 4.61768C4.1875 4.46849 4.12824 4.32542 4.02275 4.21993C3.91726 4.11444 3.77418 4.05518 3.625 4.05518H3.25ZM5.875 4.05518C5.72582 4.05518 5.58274 4.11444 5.47725 4.21993C5.37176 4.32542 5.3125 4.46849 5.3125 4.61768C5.3125 4.76686 5.37176 4.90993 5.47725 5.01542C5.58274 5.12091 5.72582 5.18018 5.875 5.18018H10.75C10.8992 5.18018 11.0423 5.12091 11.1477 5.01542C11.2532 4.90993 11.3125 4.76686 11.3125 4.61768C11.3125 4.46849 11.2532 4.32542 11.1477 4.21993C11.0423 4.11444 10.8992 4.05518 10.75 4.05518H5.875ZM3.25 6.68018C3.10082 6.68018 2.95774 6.73944 2.85225 6.84493C2.74676 6.95042 2.6875 7.09349 2.6875 7.24268C2.6875 7.39186 2.74676 7.53493 2.85225 7.64042C2.95774 7.74591 3.10082 7.80518 3.25 7.80518H3.625C3.77418 7.80518 3.91726 7.74591 4.02275 7.64042C4.12824 7.53493 4.1875 7.39186 4.1875 7.24268C4.1875 7.09349 4.12824 6.95042 4.02275 6.84493C3.91726 6.73944 3.77418 6.68018 3.625 6.68018H3.25ZM5.875 6.68018C5.72582 6.68018 5.58274 6.73944 5.47725 6.84493C5.37176 6.95042 5.3125 7.09349 5.3125 7.24268C5.3125 7.39186 5.37176 7.53493 5.47725 7.64042C5.58274 7.74591 5.72582 7.80518 5.875 7.80518H10.75C10.8992 7.80518 11.0423 7.74591 11.1477 7.64042C11.2532 7.53493 11.3125 7.39186 11.3125 7.24268C11.3125 7.09349 11.2532 6.95042 11.1477 6.84493C11.0423 6.73944 10.8992 6.68018 10.75 6.68018H5.875ZM3.25 9.30518C3.10082 9.30518 2.95774 9.36444 2.85225 9.46993C2.74676 9.57542 2.6875 9.71849 2.6875 9.86768C2.6875 10.0169 2.74676 10.1599 2.85225 10.2654C2.95774 10.3709 3.10082 10.4302 3.25 10.4302H3.625C3.77418 10.4302 3.91726 10.3709 4.02275 10.2654C4.12824 10.1599 4.1875 10.0169 4.1875 9.86768C4.1875 9.71849 4.12824 9.57542 4.02275 9.46993C3.91726 9.36444 3.77418 9.30518 3.625 9.30518H3.25ZM5.875 9.30518C5.72582 9.30518 5.58274 9.36444 5.47725 9.46993C5.37176 9.57542 5.3125 9.71849 5.3125 9.86768C5.3125 10.0169 5.37176 10.1599 5.47725 10.2654C5.58274 10.3709 5.72582 10.4302 5.875 10.4302H10.75C10.8992 10.4302 11.0423 10.3709 11.1477 10.2654C11.2532 10.1599 11.3125 10.0169 11.3125 9.86768C11.3125 9.71849 11.2532 9.57542 11.1477 9.46993C11.0423 9.36444 10.8992 9.30518 10.75 9.30518H5.875Z" fill="#00A76F"/>
</svg>
