<svg width="25" height="24" viewBox="0 0 25 24" fill="none" xmlns="http://www.w3.org/2000/svg">
<path d="M16 12C16 13.933 14.433 15.5 12.5 15.5C10.567 15.5 9 13.933 9 12C9 10.067 10.567 8.5 12.5 8.5C14.433 8.5 16 10.067 16 12Z" stroke="#212B36" stroke-width="2"/>
<path d="M21.511 14.0966C22.0329 13.9559 22.2939 13.8855 22.3969 13.7509C22.5 13.6164 22.5 13.3999 22.5 12.967V11.0333C22.5 10.6004 22.5 10.3839 22.3969 10.2494C22.2938 10.1148 22.0329 10.0444 21.511 9.90365C19.5606 9.37766 18.3399 7.33858 18.8433 5.40094C18.9817 4.86806 19.0509 4.60163 18.9848 4.44536C18.9187 4.28909 18.7291 4.18141 18.3497 3.96603L16.625 2.9868C16.2528 2.77546 16.0667 2.66979 15.8997 2.69229C15.7326 2.71479 15.5442 2.9028 15.1672 3.2788C13.708 4.73455 11.2936 4.73449 9.83434 3.27871C9.45743 2.9027 9.26898 2.7147 9.10193 2.69219C8.93489 2.66969 8.74877 2.77536 8.37653 2.9867L6.65184 3.96594C6.27253 4.1813 6.08287 4.28898 6.01678 4.44522C5.95068 4.60147 6.01987 4.86794 6.15825 5.40087C6.66137 7.33857 5.43972 9.3777 3.48902 9.90367C2.96712 10.0444 2.70617 10.1148 2.60308 10.2493C2.5 10.3839 2.5 10.6004 2.5 11.0333V12.967C2.5 13.3999 2.5 13.6164 2.60308 13.7509C2.70615 13.8855 2.96711 13.9559 3.48902 14.0966C5.4394 14.6226 6.66008 16.6617 6.15672 18.5993C6.01829 19.1322 5.94907 19.3986 6.01516 19.5549C6.08126 19.7112 6.27092 19.8189 6.65025 20.0342L8.37495 21.0135C8.74721 21.2248 8.93334 21.3305 9.1004 21.308C9.26746 21.2855 9.45588 21.0974 9.83271 20.7214C11.2927 19.2645 13.7088 19.2644 15.1689 20.7213C15.5457 21.0974 15.7341 21.2854 15.9012 21.3079C16.0682 21.3304 16.2544 21.2247 16.6266 21.0134L18.3513 20.0341C18.7307 19.8188 18.9204 19.7111 18.9864 19.5548C19.0525 19.3985 18.9833 19.1321 18.8448 18.5992C18.3412 16.6617 19.5609 14.6227 21.511 14.0966Z" stroke="#212B36" stroke-width="2" stroke-linecap="round"/>
</svg>
