<svg width="21" height="20" viewBox="0 0 21 20" fill="none" xmlns="http://www.w3.org/2000/svg">
<path d="M6.5 10V12C6.5 13.1 6.89167 14.0417 7.675 14.825C8.45833 15.6083 9.4 16 10.5 16C11.6 16 12.5417 15.6083 13.325 14.825C14.1083 14.0417 14.5 13.1 14.5 12V10H6.5ZM10.5 14.5C9.8 14.5 9.20833 14.2583 8.725 13.775C8.24167 13.2917 8 12.7 8 12V11.5H13V12C13 12.7 12.7583 13.2917 12.275 13.775C11.7917 14.2583 11.2 14.5 10.5 14.5ZM7 5C6.36667 5 5.80417 5.22917 5.3125 5.6875C4.82083 6.14583 4.475 6.775 4.275 7.575L5.725 7.925C5.825 7.49167 5.99167 7.14583 6.225 6.8875C6.45833 6.62917 6.71667 6.5 7 6.5C7.28333 6.5 7.54167 6.62917 7.775 6.8875C8.00833 7.14583 8.175 7.49167 8.275 7.925L9.725 7.575C9.525 6.775 9.17917 6.14583 8.6875 5.6875C8.19583 5.22917 7.63333 5 7 5ZM14 5C13.3667 5 12.8042 5.22917 12.3125 5.6875C11.8208 6.14583 11.475 6.775 11.275 7.575L12.725 7.925C12.825 7.49167 12.9917 7.14583 13.225 6.8875C13.4583 6.62917 13.7167 6.5 14 6.5C14.2833 6.5 14.5417 6.62917 14.775 6.8875C15.0083 7.14583 15.175 7.49167 15.275 7.925L16.725 7.575C16.525 6.775 16.1792 6.14583 15.6875 5.6875C15.1958 5.22917 14.6333 5 14 5ZM10.5 20C9.11667 20 7.81667 19.7375 6.6 19.2125C5.38333 18.6875 4.325 17.975 3.425 17.075C2.525 16.175 1.8125 15.1167 1.2875 13.9C0.7625 12.6833 0.5 11.3833 0.5 10C0.5 8.61667 0.7625 7.31667 1.2875 6.1C1.8125 4.88333 2.525 3.825 3.425 2.925C4.325 2.025 5.38333 1.3125 6.6 0.7875C7.81667 0.2625 9.11667 0 10.5 0C11.8833 0 13.1833 0.2625 14.4 0.7875C15.6167 1.3125 16.675 2.025 17.575 2.925C18.475 3.825 19.1875 4.88333 19.7125 6.1C20.2375 7.31667 20.5 8.61667 20.5 10C20.5 11.3833 20.2375 12.6833 19.7125 13.9C19.1875 15.1167 18.475 16.175 17.575 17.075C16.675 17.975 15.6167 18.6875 14.4 19.2125C13.1833 19.7375 11.8833 20 10.5 20ZM10.5 18C12.7333 18 14.625 17.225 16.175 15.675C17.725 14.125 18.5 12.2333 18.5 10C18.5 7.76667 17.725 5.875 16.175 4.325C14.625 2.775 12.7333 2 10.5 2C8.26667 2 6.375 2.775 4.825 4.325C3.275 5.875 2.5 7.76667 2.5 10C2.5 12.2333 3.275 14.125 4.825 15.675C6.375 17.225 8.26667 18 10.5 18Z" fill="#929CA7"/>
</svg>
