<?xml version="1.0" encoding="utf-8"?>
<!-- Generator: Adobe Illustrator 26.0.3, SVG Export Plug-In . SVG Version: 6.00 Build 0)  -->
<svg version="1.0" id="katman_1" xmlns="http://www.w3.org/2000/svg" xmlns:xlink="http://www.w3.org/1999/xlink" x="0px" y="0px"
	 viewBox="0 0 600 450" style="enable-background:new 0 0 600 450;" xml:space="preserve">
<style type="text/css">
	.st0{filter:url(#Adobe_OpacityMaskFilter);}
	.st1{mask:url(#b_00000083073785398718641540000010248405493516862649_);fill-rule:evenodd;clip-rule:evenodd;fill:#FFFFFF;}
	.st2{fill-rule:evenodd;clip-rule:evenodd;fill:#1F4489;}
	.st3{fill-rule:evenodd;clip-rule:evenodd;fill:#FFFFFF;}
	.st4{fill-rule:evenodd;clip-rule:evenodd;fill:#D8232A;}
	.st5{fill-rule:evenodd;clip-rule:evenodd;fill:#1A1919;}
	.st6{fill-rule:evenodd;clip-rule:evenodd;fill:#F4B761;}
	.st7{fill-rule:evenodd;clip-rule:evenodd;fill:#676968;}
</style>
<defs>
	<filter id="Adobe_OpacityMaskFilter" filterUnits="userSpaceOnUse" x="80.4" y="151" width="114" height="148.7">
		<feColorMatrix  type="matrix" values="1 0 0 0 0  0 1 0 0 0  0 0 1 0 0  0 0 0 1 0"/>
	</filter>
</defs>
<mask maskUnits="userSpaceOnUse" x="80.4" y="151" width="114" height="148.7" id="b_00000083073785398718641540000010248405493516862649_">
</mask>
<path class="st1" d="M137.4,299.7l-19.6-10.6c0,0-14.4-9.2-17.3-12.1c-2.9-2.9-20.2-19-20.2-39.2V151h114v86.8
	c0,20.2-17.3,36.4-20.2,39.2c-2.9,2.9-17.3,12.1-17.3,12.1L137.4,299.7z"/>
<path class="st2" d="M83.8,190.3h107.1v-35.4H83.8V190.3z"/>
<path class="st3" d="M190.9,190.3H83.8v51.3l0.9,3.4l1.5,5.2l2.1,4.8l2.5,4.3l3.1,4.7l2.8,3.6l3.2,3.6l2.9,2.9l4.8,3.7l4.5,3.2
	l5.8,4l19.4,10.6l19.6-10.8l3.7-2.4l3.3-2.2l3.3-2.3l2-1.4l2.7-2.3l2.2-2.4l2-2.2l2.1-2.4l2.1-2.8l1.9-2.7l2.3-3.7l1.2-2.2l1.4-2.8
	l1.1-2.8l1.5-5l0.9-6.4L190.9,190.3z"/>
<path class="st4" d="M120.4,190.3h34v28h36.3v22.4l-0.9,4.9l-0.8,2.6l-1.3,2.5h-33.4v35.4l-17.4,9.5l-16.6-9.1v-35.8H86.5l-1.7-4.8
	l-1-3.4v-24.3h36.5V190.3z"/>
<path class="st5" d="M83.8,191.1h106.9v-1.5H83.8V191.1z"/>
<path class="st5" d="M84.8,156v81.1c0,8.2,3.2,21.1,18.3,36l0.4,0.4c2.6,2.6,15.9,11.2,16.1,11.3l17.8,9.8l17.9-9.8
	c0.1,0,13.4-8.6,16-11.2l0.4-0.4c15.1-14.9,18.3-27.8,18.3-36V156H84.8z M137.4,296.8l-18.9-10.3c-0.6-0.4-13.7-8.8-16.5-11.6
	l-0.4-0.4c-15.6-15.4-18.9-28.9-18.9-37.5v-83.2h109.1v83.2c0,8.6-3.3,22.1-18.9,37.5l-0.4,0.4c-2.7,2.7-15.8,11.2-16.4,11.5
	L137.4,296.8z"/>
<path class="st5" d="M127.5,247.9l2-0.9c0,0,0.4-0.1,0.5,0.1c0.1,0.2,0.3,0.8,0.3,1.5c0,0.7,0.5,1.6,1.2,1.9c1.9,1,5,0.7,5.5,0.6
	c0.5,0.2,3.6,0.4,5.6-0.5c0.8-0.4,1.2-1.2,1.3-1.9c0.1-0.7,0.3-1.2,0.4-1.5c0.1-0.2,0.5-0.1,0.5-0.1l1.9,1l-0.2-2.1
	c0,0,0-0.4,0.3-0.4c0.2,0,0.8,0,1.5,0.2c0.7,0.2,1.6,0,2.2-0.6c1.5-1.5,2.2-4.5,2.2-5c0.3-0.4,1.5-3.3,1.2-5.4
	c-0.1-0.8-0.7-1.5-1.4-1.8c-0.6-0.3-1.1-0.7-1.3-0.8c-0.2-0.2,0.1-0.5,0.1-0.5l1.6-1.5l-2.2-0.4c0,0-0.4-0.2-0.4-0.4
	c0.1-0.2,0.3-0.8,0.6-1.4c0.4-0.7,0.5-1.5,0.2-2.3c-0.9-1.9-3.7-3.5-4.1-3.7c-0.3-0.4-2.7-2.5-4.9-2.9c-0.8-0.1-1.6,0.2-2.2,0.8
	c-0.5,0.5-1,0.8-1.2,1c-0.2,0.1-0.5-0.2-0.5-0.2l-1-2l-1.1,1.9c0,0-0.3,0.3-0.5,0.2c-0.2-0.1-0.7-0.5-1.1-1c-0.4-0.5-1.3-1-2.1-0.9
	c-2.1,0.3-4.5,2.4-4.7,2.7c-0.5,0.1-3.2,1.8-4.2,3.7c-0.4,0.7-0.3,1.6,0,2.3c0.3,0.6,0.5,1.2,0.5,1.4c0.1,0.2-0.4,0.4-0.4,0.4
	l-2.2,0.3l1.5,1.6c0,0,0.2,0.4,0,0.5c-0.2,0.1-0.7,0.5-1.3,0.8c-0.6,0.2-1.3,0.9-1.5,1.7c-0.4,2.1,0.8,5,1.1,5.4
	c0,0.5,0.7,3.6,2.2,5.1c0.6,0.6,1.5,0.8,2.2,0.7c0.7-0.1,1.3-0.1,1.5-0.1c0.3,0,0.3,0.5,0.3,0.5S127.5,247.9,127.5,247.9z"/>
<path class="st3" d="M137.3,240.7c0,0-0.7,0-0.9,0.7c-0.2,0.7,0.3,1.3-0.2,1.7c-0.5,0.4-0.3,0.7-1,0.5c-0.7-0.2-0.9-0.5-1.1-1.1
	c-0.2-0.5-0.7-0.9-1.3-1.3c-0.6-0.5-1.1-0.8-1.6-0.8c-0.6,0-0.9-0.2-1.4-0.8c-0.4-0.6-0.3-0.2,0-1c0.3-0.8,1-0.4,1.6-0.8
	c0.6-0.4,0.4-1.2,0.4-1.2s-0.5-0.9-1.2-0.8c-0.7,0-1.1,0.7-1.6,0.3c-0.5-0.4-0.7-0.1-0.8-0.8c0-0.7,0.2-1,0.7-1.4
	c0.4-0.4,0.6-0.9,0.8-1.6c0.3-0.7,0.4-1.2,0.3-1.8c-0.1-0.6-0.1-0.9,0.3-1.5c0.4-0.6,0.1-0.3,0.9-0.3c0.8,0,0.7,0.9,1.2,1.3
	c0.6,0.4,1.2,0,1.2,0s0.7-0.6,0.5-1.3c-0.2-0.7-1-0.9-0.8-1.5c0.2-0.6-0.1-0.7,0.5-1c0.7-0.2,1.1-0.1,1.6,0.2
	c0.5,0.3,1.1,0.3,1.8,0.3c0.7,0,1.3,0,1.8-0.3c0.5-0.3,1-0.4,1.5-0.1c0.7,0.2,0.3,0,0.6,0.8c0.2,0.8-0.6,0.9-0.9,1.6
	c-0.2,0.7,0.4,1.2,0.4,1.2s0.8,0.6,1.4,0.1c0.6-0.4,0.5-1.2,1.1-1.2c0.6,0,0.6-0.4,1.1,0.2c0.4,0.6,0.4,1,0.3,1.5
	c-0.1,0.5,0,1.1,0.3,1.8c0.2,0.7,0.4,1.2,0.8,1.6c0.4,0.4,0.6,0.7,0.6,1.4c0,0.7,0.1,0.3-0.6,0.8c-0.7,0.5-1.1-0.3-1.8-0.3
	c-0.7,0-1.1,0.7-1.1,0.7s-0.2,0.9,0.4,1.3c0.6,0.4,1.3,0.1,1.5,0.7c0.2,0.6,0.5,0.5,0.1,1.1c-0.4,0.6-0.8,0.7-1.4,0.8
	c-0.6,0-1.1,0.3-1.6,0.8c-0.6,0.4-1.1,0.8-1.3,1.3c-0.2,0.5-0.5,0.8-1.2,1c-0.7,0.2-0.2,0.2-0.9-0.3c-0.7-0.5,0-1.1-0.2-1.8
	C138.2,240.8,137.3,240.7,137.3,240.7"/>
<path class="st6" d="M137.5,196.6l-1.4-0.3l0.2,1.4l-1.5-0.1v2.1l1.5-0.4l0.5,0.7l0.3,0.3v0.7c0,0-0.6,0-0.8,0.3c-0.2,0.3,0,0,0,0
	s-6.5-0.6-11.7,3.3l-0.3,1c0,0,3.4-2.5,11.5-2.8l0,0.6c0,0-7.4,0.1-11.9,3.1l-0.1,1.1c0,0,4.2-2.6,11.9-2.7l0.4,0l0.4,0.3l0.1,0.4
	l-0.7,0.3L135,206l-0.7-0.2l0,1.3l0.2,1.5l0.1,0.8v0.8l0.7-0.6l0.8-0.1l0.3,0.1c0,0,0,0.3,0,0.8c0.1,0.5-0.2,1.3-0.2,1.3l-0.8,0.6
	c0,0-1.2,0.3-1.6,0.1c-0.8-0.4-1.2-1.2-1.2-2c0-1.1,0.3-0.4,0.3-0.4l0.5,0.2h0.4l-0.1-0.7l-0.3-1.1l-0.6-0.5l-0.5,0.5
	c0,0-0.2-2.3-2.2-2.2c0,0-0.6,1.9,0.3,3.5l-0.9,0l-0.2,0.8l0.7,1.2l0.5,0.3l0.4-0.8l0.1-0.5c0,0,0.2-0.1,0.4,0.1
	c0.2,0.2,0.7,2.2,0,2.7c-0.7,0.5-1.1,0.6-1.7,0.4c-0.6-0.2-3-1-2.6-2.6l0.2-0.4l0.6,0.1l0.4,0.1l0-0.5c0,0-0.7-2.6-2.2-1.7l-0.1-1.3
	l-0.2-0.6l-1.3,0.6l-0.4,0.4l5,10.2c0,0,3.1-1.8,8.3-1.8c5.3,0,8.3,1.8,8.3,1.8l5-10.2l-0.4-0.4l-1.3-0.6l-0.2,0.6l-0.1,1.3
	c-1.5-0.9-2.2,1.7-2.2,1.7l0,0.5l0.4-0.1l0.6-0.1l0.2,0.4c0.4,1.6-2.1,2.3-2.7,2.6c-0.6,0.2-1,0.1-1.7-0.4c-0.7-0.5-0.1-2.5,0-2.7
	c0.2-0.3,0.4-0.1,0.4-0.1l0.1,0.5l0.4,0.8l0.5-0.3l0.7-1.2l-0.2-0.8l-0.9,0c0.9-1.6,0.3-3.5,0.3-3.5c-1.9-0.1-2.2,2.2-2.2,2.2
	l-0.5-0.5l-0.6,0.5l-0.3,1.1l-0.1,0.7h0.3l0.5-0.2c0,0,0.3-0.7,0.3,0.4c0,0.9-0.5,1.6-1.2,2c-0.5,0.2-1.6-0.1-1.6-0.1l-0.8-0.6
	c0,0-0.3-0.8-0.2-1.3c0.1-0.5,0.1-0.8,0.1-0.8l0.3-0.1l0.8,0.1l0.7,0.6v-0.8l0.1-0.8l0.3-1.5l0-1.3L140,206l-0.9-0.1l-0.7-0.3
	l0.2-0.4l0.4-0.3l0.4,0c7.8,0.1,11.9,2.7,11.9,2.7l-0.1-1.1c-4.5-3-11.9-3.1-11.9-3.1l0-0.6c8,0.3,11.5,2.8,11.5,2.8l-0.3-1
	c-5.2-3.9-11.7-3.3-11.7-3.3s0.1,0.3,0,0c-0.1-0.3-0.8-0.3-0.8-0.3v-0.7l0.3-0.3l0.5-0.7l1.5,0.4v-2.1l-1.5,0.1l0.3-1.4
	C139,196.3,137.5,196.6,137.5,196.6z M153,244l4.2,4.9l-5.6-2.7L153,244z M153.4,226.5l14-4.5l-12.9,7.2L153.4,226.5z M155.3,233.5
	l14.7,1.3l-14.7,1.6L155.3,233.5z M154.7,240.2l12.7,7.4l-13.8-4.6L154.7,240.2z M154.9,230.4l4.8-0.4l-4.4,2.3L154.9,230.4z
	 M155.3,237.4l4.6,2.2l-5-0.3L155.3,237.4z M121,243.5l-14,4.5l12.9-7.2L121,243.5z M119.1,236.5l-14.7-1.3l14.7-1.6L119.1,236.5z
	 M119.8,229.7l-12.7-7.4l13.8,4.6L119.8,229.7z M119.6,239.5l-4.8,0.4l4.4-2.3L119.6,239.5z M119.2,232.5l-4.6-2.2l5,0.3
	L119.2,232.5z M145.1,251.2l4.5,14l-7.2-12.9L145.1,251.2z M138.1,253.2l-1.3,14.7l-1.6-14.7L138.1,253.2z M131.4,252.5l-7.4,12.7
	l4.6-13.8L131.4,252.5z M141.2,252.7l0.4,4.8l-2.3-4.4L141.2,252.7z M134.2,253.1l-2.2,4.6l0.3-5L134.2,253.1z M125,248.6l-5,2.9
	l3.4-4.5L125,248.6z M122.6,246.1l-5.8,2.1l4.7-3.8L122.6,246.1z M127.7,250.8l-4.6,4.1l2.8-5.6L127.7,250.8z M150.9,247l2.9,5
	l-4.5-3.4L150.9,247z M148.4,249.4l2.1,5.8l-3.8-4.7L148.4,249.4z M149.3,221.1l5-2.9l-3.4,4.5L149.3,221.1z M151.8,223.7l5.8-2.1
	l-4.7,3.8L151.8,223.7z M146.7,218.9l4.6-4.1l-2.7,5.6L146.7,218.9z M123.2,222.9l-2.9-5l4.6,3.4L123.2,222.9z M125.8,220.4
	l-2.1-5.8l3.8,4.7L125.8,220.4z M121.3,225.9L117,221l5.6,2.8L121.3,225.9z M137.3,230.2l-1.4,2.8l-2.7,0.3l2,1.9l-0.6,3.1l2.7-1.7
	l2.7,1.7l-0.6-3.1l2-1.9l-2.7-0.3L137.3,230.2z"/>
<path class="st5" d="M121.1,219.1H83.8v-1.5h35.8v-27.3h1.5C121.1,190.3,121.1,219.1,121.1,219.1z M190.7,219.1h-37.1v-28.8h1.5
	v27.3h35.6C190.7,217.6,190.7,219.1,190.7,219.1z M155.2,286.2h-1.5v-36.1h34.2v1.5h-32.7V286.2z M121.1,286.6h-1.5v-35H86.9v-1.5
	h34.2C121.1,250.1,121.1,286.6,121.1,286.6z"/>
<path class="st6" d="M109.6,157.8l-2,2l-0.1,18.9c0,0,1.6,1.9,7,2.3c5.4,0.4,15-1.3,15-1.3l4.8,0.4l1.3,0.6l-0.1,1.2l0.2,1.6
	l0.9,1.1l2.4-0.1l0.8-1.1l0-1.8l-0.1-0.8l2-0.8l1.6-0.2l4.9,0.1l4.7,0.9l6.1,0.3c0,0,3.7-0.2,5.4-0.6c1.6-0.5,2.8-1.1,2.8-1.1
	l0.6-0.8l-0.1-18.3l-2.1-2.5l-0.2,4.4l0.3,13.5l-0.1,1.7l-2.3,0.9l-9.7,0.1l-7.3-0.5l-3.9,0.4l-2.8,1.1l-2.1,1.5l-3.7-2.6l-5.5-0.7
	l-11.4,1l-4.7-0.1l-3-1.2C109.5,177.3,109.6,157.8,109.6,157.8z"/>
<path class="st5" d="M137.6,181.6c-0.1,0-0.3,0-0.4-0.1c-1.1-0.8-0.5-1.2-2.8-2.4c-1.5-0.8-3.9-1-5.8-1c-1.5,0-3.3,0.1-5.2,0.4
	c-2.5,0.3-4.8,0.5-6.8,0.5c-5.1,0-6.6-1-6.7-1.1l-0.5-0.2c-0.2-0.1-0.3-0.3-0.3-0.5l0.1-19.2c0-0.3,0.3-0.6,0.6-0.6
	c0.1,0,0.3,0.1,0.4,0.1c0.7,0.6,1.1,1,1.2,1.1c0.3,0.2,2.5,1.4,6.2,1.4c1.7,0,3.5-0.3,5.4-0.7c1.4-0.4,2.8-0.5,4.3-0.5
	c6.1,0,10.5,3.1,10.7,3.2c0.2,0.1,0.3,0.3,0.3,0.5V181C138.2,181.3,137.9,181.6,137.6,181.6C137.6,181.6,137.6,181.6,137.6,181.6"/>
<path class="st5" d="M137.9,181.6c-0.3,0-0.6-0.3-0.6-0.6v-18.6c0-0.2,0.1-0.4,0.3-0.5c0.2-0.1,4.7-3.2,10.7-3.2
	c1.5,0,2.9,0.2,4.3,0.5c1.9,0.5,3.7,0.7,5.4,0.7c3.7,0,5.9-1.2,6.3-1.5c0-0.1,0.4-0.5,1.2-1c0.2-0.2,0.4-0.2,0.6-0.1
	c0.2,0.1,0.3,0.3,0.4,0.5l0.1,19.2c0,0.2-0.1,0.4-0.3,0.5l-0.5,0.3c-0.1,0.1-1.6,1.1-6.7,1.1c-2,0-4.3-0.2-6.8-0.5
	c-1.7-0.2-3.5-0.3-5.2-0.4c-1.8,0-4.9,0.5-6,1.1c-2.1,1.2-1.5,1.4-2.6,2.3C138.2,181.5,138,181.6,137.9,181.6 M96.2,180.5
	c-0.5,0-0.9-0.4-0.9-0.8c-0.1-0.3-0.4-1.2-1-1.5c-0.6-0.4-1-1-0.9-1.7c0-0.1,0-0.2,0-0.2c0-0.4,0.3-0.7,0.9-1.1
	c0.5-0.4,0.9-1.3,1-1.6c0.2-0.6,0.8-0.9,1.4-0.6c0.1,0.1,0.3,0.1,0.4,0.2c0.2,0.1,0.3,0.3,0.4,0.4c0.3,0.3,0.4,0.4,0.8,0.4l1.9,0
	l4.1,0h0c0.3,0,0.6,0.3,0.6,0.6c0,0,0,0,0,0l0,4.3c0,0.3-0.2,0.6-0.6,0.6c0,0-5.3,0-6,0c-0.4,0-0.6,0.2-1.1,0.7l-0.1,0.1
	C96.8,180.3,96.5,180.5,96.2,180.5 M96.2,171.1c-0.5,0-0.9-0.4-1-0.8c-0.1-0.3-0.4-1.2-1-1.5c-0.6-0.4-1-1-0.9-1.7
	c0-0.1,0-0.2,0-0.2c0-0.4,0.3-0.8,0.9-1.1c0.5-0.4,0.9-1.3,1-1.6c0.2-0.6,0.8-0.9,1.4-0.6c0.1,0.1,0.3,0.1,0.4,0.2
	c0.2,0.1,0.3,0.3,0.4,0.4c0.3,0.3,0.4,0.4,0.8,0.4l2,0l4.1,0h0c0.2,0,0.3,0.1,0.4,0.2c0.1,0.1,0.2,0.3,0.2,0.4l0,4.3
	c0,0.3-0.3,0.6-0.6,0.6h0c0,0-5.4,0-6,0c-0.4,0-0.6,0.2-1.1,0.7l-0.1,0.1C96.8,170.9,96.5,171.1,96.2,171.1 M179.3,180.5
	c-0.3,0-0.6-0.1-0.9-0.4l-0.1-0.1c-0.5-0.5-0.7-0.7-1.1-0.7c-0.7,0-6,0-6,0h0c-0.3,0-0.6-0.3-0.6-0.6l0-4.3c0-0.3,0.3-0.6,0.6-0.6
	l4.1,0l2,0c0.4,0,0.5-0.1,0.8-0.4c0.1-0.1,0.2-0.3,0.4-0.4c0.4-0.4,1.1-0.4,1.5,0c0.1,0.1,0.2,0.2,0.2,0.4c0.1,0.3,0.5,1.3,1,1.6
	c0.5,0.4,0.8,0.7,0.9,1.1c0,0.1,0,0.2,0,0.2c0.1,0.7-0.2,1.4-0.9,1.7c-0.6,0.3-0.9,1.3-1,1.6C180.1,180.1,179.8,180.5,179.3,180.5
	 M179.2,171.1c-0.3,0-0.6-0.1-0.9-0.4l-0.1-0.1c-0.6-0.5-0.8-0.7-1.1-0.7c-0.6,0-6,0-6,0c-0.3,0-0.6-0.3-0.6-0.6l0-4.3
	c0-0.2,0.1-0.3,0.2-0.4c0.1-0.1,0.3-0.2,0.4-0.2l4.1,0l2,0c0.4,0,0.5-0.1,0.8-0.4c0.1-0.1,0.2-0.3,0.4-0.4c0.4-0.4,1.1-0.4,1.5,0
	c0.1,0.1,0.2,0.2,0.3,0.4c0.1,0.3,0.5,1.3,1,1.6c0.5,0.4,0.8,0.8,0.9,1.1c0,0.1,0,0.2,0,0.2c0.1,0.7-0.2,1.4-0.9,1.7
	c-0.6,0.3-0.9,1.2-1,1.6C180.1,170.6,179.8,171.1,179.2,171.1"/>
<path class="st5" d="M139.2,187.7c-0.7,0-1.2-0.1-1.2-0.1l-0.7,0c-0.4,0-0.7,0.1-1.1,0.1c-3.3,0-3.9-1.5-3.9-2.4c0-0.3,0-0.7,0.2-1
	l-28.1,0.5c-0.2,0-0.3-0.1-0.4-0.2c-0.1-0.1-0.2-0.3-0.2-0.4l0.1-21.8c0-0.2,0.2-0.5,0.4-0.5c0,0,0.3-0.2,0.9-0.8
	c0.9-1,1.5-1.4,1.6-1.4c0.2-0.1,0.4,0,0.6,0.1c0.2,0.1,0.2,0.3,0.2,0.5l0,0.5l-0.1,17.8c0.4,0.4,2.2,2.4,8.2,2.4
	c2.2,0,5.4-0.2,8.3-0.6c2.2-0.4,4.4-0.6,6.5-0.6c4.6,0,5.4,0.7,5.6,1c0.1,0.2,0.2,0.4,0.1,0.7l-0.2,0.5c-0.1,0.2-0.4,0.7,0,1.7
	c0.3,0.6,0.9,0.8,1.4,0.8c0,0,0.1,0,0.1,0h0.5c0.5,0,1.1-0.2,1.4-0.8c0.5-1,0.1-1.6,0.1-1.6l-0.3-0.6c-0.1-0.2-0.1-0.5,0.1-0.7
	c0.2-0.3,1-1.1,5.6-1.1c1.8,0,4,0.2,6.5,0.6c2.9,0.4,5.5,0.6,7.7,0.6c5.9,0,8.2-1.9,8.6-2.3l-0.1-18.4c0-0.2,0.1-0.4,0.2-0.5
	c0.2-0.1,0.4-0.2,0.6-0.1c0.1,0,0.9,0.4,1.7,1.4c0.6,0.7,0.9,0.8,0.9,0.8c0.2,0.1,0.4,0.3,0.4,0.5l0,0.5l0.1,21.3
	c0,0.2-0.1,0.3-0.2,0.4c-0.1,0.1-0.3,0.2-0.4,0.2l-28-0.5c0.1,0.3,0.2,0.6,0.2,1C143.1,186.2,142.5,187.7,139.2,187.7"/>
<path class="st3" d="M135,178.4c0.2,0.1,0.6,0.3,2.5,1.4v-17.1c-1.5-0.6-5.4-2.9-10.2-2.9c-1.3,0-2.7,0.2-4,0.5
	c-1.9,0.5-3.8,0.8-5.7,0.8c-4.3,0-7.2-1.5-7.5-1.9l0,0l-0.1,17.9l0.2,0.1c0.1,0.1,1.8,0.9,6.5,0.9c1.9,0,4.2-0.2,6.7-0.5
	C128.8,177,132.9,177.2,135,178.4"/>
<path class="st6" d="M94.2,176.2c0,0.1,0,0.1,0,0.2c0,0.1-0.1,0.4,0.3,0.6c1,0.5,1.5,1.7,1.6,2.3l0,0c0.6-0.6,1.2-1.1,2.1-1.1
	c1.9,0,3.8,0,5.6,0l0-1.5l0-1.8l-3.4,0l-2.2,0c-1,0-1.5-0.5-1.9-0.9c-0.1-0.1-0.2-0.2-0.3-0.3c-0.2,0.5-0.7,1.6-1.6,2.2
	C94.4,176,94.3,176.1,94.2,176.2 M94.2,166.8c0,0.1,0,0.2,0,0.2c0,0.1-0.1,0.4,0.3,0.6c1,0.6,1.5,1.7,1.6,2.3l0,0
	c0.7-0.6,1.2-1.1,2.1-1.2c0.6,0,4.2,0,5.8,0l0-1.5v-1.8l-3.6,0l-2.2,0c-1,0-1.5-0.5-1.9-0.9c-0.1-0.1-0.2-0.2-0.3-0.3
	c-0.2,0.5-0.7,1.6-1.6,2.2C94.4,166.6,94.3,166.7,94.2,166.8"/>
<path class="st7" d="M133.4,166.7c-2.5-1.2-5.7-2.6-10.5-1.3c-3,0.8-7,1.3-9.2,0.3l0.5-1.1c1.6,0.7,4.9,0.5,8.4-0.4
	c5.2-1.4,8.7,0.2,11.3,1.4L133.4,166.7z M133.4,171.8c-2.5-1.2-5.7-2.6-10.5-1.3c-3,0.8-7,1.3-9.2,0.3l0.5-1.1
	c1.6,0.7,4.9,0.5,8.4-0.4c5.2-1.4,8.7,0.2,11.3,1.4C133.8,170.7,133.4,171.8,133.4,171.8z M133.4,176c-2.5-1.2-5.7-2.6-10.5-1.3
	c-3,0.8-7,1.3-9.2,0.3l0.5-1.1c1.6,0.7,4.9,0.5,8.4-0.4c5.2-1.4,8.7,0.2,11.3,1.4C133.8,174.9,133.4,176,133.4,176z"/>
<path class="st3" d="M138.1,162.7v17.1c1.8-1,2.2-1.3,2.4-1.4c2.2-1.2,6.2-1.4,11.7-0.8c2.5,0.3,4.7,0.5,6.7,0.5
	c4.6,0,6.3-1.2,6.3-1.2l0.3-0.1l-0.1-17.9c0,0,0,0-0.1,0.1c-0.3,0.4-3.1,2.2-7.4,2.2c-1.9,0-3.8-0.3-5.7-0.8c-1.3-0.3-2.6-0.5-4-0.5
	C142.9,159.8,138.1,162.7,138.1,162.7"/>
<path class="st6" d="M175.2,178.2c1,0,1.8,0,2.1,0c0.9,0,1.4,0.5,2.1,1.1l0,0c0.2-0.6,0.7-1.7,1.6-2.3c0.4-0.2,0.3-0.6,0.3-0.6
	c0-0.1,0-0.1,0-0.2c-0.1-0.1-0.2-0.2-0.4-0.3c-0.9-0.6-1.4-1.8-1.6-2.3l-0.3,0.3c-0.4,0.4-0.9,0.9-1.9,0.9l-2.2,0l-3.4,0l0,3.4
	C172.6,178.2,173.9,178.2,175.2,178.2 M175.2,168.8c1,0,1.8,0,2.1,0c0.9,0,1.4,0.5,2.1,1.2l0,0c0.2-0.6,0.7-1.7,1.6-2.3
	c0.3-0.2,0.3-0.6,0.3-0.6c0-0.1,0-0.1,0-0.2c-0.1-0.1-0.2-0.2-0.4-0.3c-0.9-0.6-1.4-1.8-1.6-2.2l-0.3,0.3c-0.4,0.4-0.9,0.9-1.9,0.9
	l-2.1,0l-3.5,0l0,3.3C172.5,168.8,173.8,168.8,175.2,168.8"/>
<path class="st3" d="M138.1,186.4c0.1,0,0.5,0.1,1.1,0.1c1,0,2.7-0.2,2.7-1.3c0-0.6-0.5-1.1-0.5-1.1c-0.2-0.2-0.3-0.4-0.2-0.7
	c0.1-0.2,0.3-0.4,0.6-0.4l28.9,0.5l-0.1-20.8c-0.3-0.2-0.9-0.5-1.3-1c-0.3-0.3-0.5-0.5-0.9-0.7l0.1,17.7c0,0.1,0,0.2-0.1,0.3
	c-0.2,0.3-1.7,2.6-9.3,2.6c-2.3,0-4.9-0.2-7.9-0.7c-2.4-0.4-4.6-0.6-6.4-0.6c-2.9,0-4.1,0.5-4.6,0.8v0c0.2,0.3,0.5,1.2-0.1,2.5
	c-0.4,0.9-1.3,1.4-2.5,1.4c-1.3,0-2.2-0.5-2.6-1.4c-0.5-1.1-0.3-2-0.1-2.5c-0.5-0.3-1.7-0.8-4.6-0.8c-1.8,0-3.9,0.2-6.4,0.6
	c-2.6,0.4-5.2,0.6-7.9,0.7c-7.5,0-9.3-2.3-9.5-2.6c-0.1-0.1-0.1-0.2-0.1-0.3l0.1-17.7c-0.3,0.2-0.4,0.4-0.6,0.7
	c-0.4,0.5-1.1,0.8-1.4,1l0,0.2l-0.1,20.5l29-0.5l0,0c0.3,0,0.6,0.3,0.6,0.6c0,0.2-0.1,0.4-0.2,0.5c0,0-0.5,0.5-0.5,1.1
	c0.1,1.1,1.8,1.3,2.7,1.3c0.6,0,1-0.1,1-0.1L138.1,186.4L138.1,186.4z"/>
<path class="st7" d="M142.1,166.7l-0.5-1.1c2.6-1.2,6.1-2.8,11.3-1.4c3.5,0.9,6.8,1.1,8.4,0.4l0.5,1.1c-2.2,0.9-6.2,0.5-9.2-0.3
	C147.8,164.1,144.7,165.6,142.1,166.7 M142.1,171.8l-0.5-1.1c2.6-1.2,6.1-2.8,11.3-1.4c3.5,0.9,6.8,1.1,8.4,0.4l0.5,1.1
	c-2.2,0.9-6.2,0.4-9.2-0.3C147.8,169.2,144.7,170.6,142.1,171.8 M142.1,176l-0.5-1.1c2.6-1.2,6.1-2.8,11.3-1.4
	c3.5,0.9,6.8,1.1,8.4,0.4l0.5,1.1c-2.2,0.9-6.2,0.5-9.2-0.3C147.8,173.4,144.7,174.8,142.1,176"/>
<path class="st5" d="M107.6,160.7l-0.6-0.6l2.3-2.6l0.6,0.6L107.6,160.7z M167.8,160.7l-2.3-2.6l0.6-0.6l2.3,2.6L167.8,160.7z"/>
<path class="st4" d="M130.5,225.6c0,0,1.2,0.5,1.5,0.4c0.3-0.1,0.5-0.6,0.5-0.6l0-0.6c0,0,0.3-0.4,0.5-0.5c0.2-0.2,0.7-0.3,1-0.3
	c0.3,0,0.4,0,0.6-0.2c0.2-0.2,0.8-1.7-0.3-2.5c-1.1-0.8-1.9-1.3-2.7-0.8c-0.8,0.5-1.6,1.5-1.8,1.7c-0.2,0.2-0.6,1.4-0.9,1.4
	c0,0.2-1.6,0.5-1.8,0.7c-0.2,0.2-1.4,0.7-2,1.4c-0.6,0.7-0.4,1.6,0.2,2.8c0.5,1.2,2.1,1,2.4,0.8c0.2-0.2,0.2-0.3,0.3-0.6
	c0.1-0.3,0.3-0.7,0.5-0.9c0.2-0.2,0.4-0.3,0.6-0.4l0.6,0.1c0,0,0.5,0,0.7-0.3C130.6,226.9,130.5,225.6,130.5,225.6 M144.1,225.8
	c0,0-0.1,1.3,0.1,1.6c0.2,0.3,0.8,0.3,0.8,0.3l0.6-0.1c0,0,0.4,0.1,0.7,0.3c0.2,0.2,0.5,0.5,0.6,0.8c0.1,0.3,0.1,0.4,0.4,0.5
	c0.3,0.2,1.9,0.2,2.3-1.1c0.4-1.2,0.6-2.2-0.1-2.8c-0.7-0.6-1.9-1.1-2.2-1.2c-0.3-0.1-1.5-0.2-1.6-0.4c-0.2,0-1-1.4-1.2-1.5
	c-0.2-0.2-1.1-1.1-2-1.5c-0.8-0.4-1.6,0.1-2.6,1c-1,0.9-0.3,2.3-0.1,2.5c0.3,0.2,0.4,0.1,0.7,0.2c0.3,0,0.8,0.1,1,0.2
	c0.3,0.1,0.5,0.5,0.5,0.5l0.1,0.6c0,0,0.2,0.5,0.5,0.6C143,226.4,144.1,225.8,144.1,225.8 M126.1,238.4c0,0,0.8-1,0.9-1.4
	c0-0.3-0.5-0.6-0.5-0.6l-0.5-0.2c0,0-0.3-0.4-0.4-0.6c-0.1-0.3-0.1-0.7,0-1c0-0.3,0.1-0.4,0-0.7c-0.1-0.3-1.4-1.3-2.5-0.5
	c-1.1,0.8-1.8,1.4-1.6,2.3c0.2,0.9,0.9,2,1.1,2.2c0.1,0.2,1.1,1,1.1,1.3c0.2,0.1,0,1.7,0,2c0.1,0.3,0.3,1.6,0.7,2.4
	c0.4,0.8,1.4,0.8,2.7,0.7c1.3-0.1,1.6-1.7,1.5-2c-0.1-0.3-0.2-0.3-0.4-0.5c-0.3-0.2-0.5-0.5-0.7-0.8c-0.1-0.2-0.1-0.7-0.1-0.7
	l0.3-0.5c0,0,0.2-0.5-0.1-0.8C127.3,238.6,126.1,238.4,126.1,238.4 M137.1,246.4c0,0-0.7-1.1-1-1.2c-0.3-0.1-0.8,0.2-0.8,0.2
	l-0.4,0.4c0,0-0.4,0.2-0.7,0.1c-0.3,0-0.7-0.1-1-0.3c-0.3-0.1-0.3-0.2-0.6-0.2c-0.3,0-1.6,1-1.2,2.2c0.4,1.3,0.8,2.1,1.7,2.2
	c0.9,0.1,2.2-0.3,2.4-0.3c0.3,0,1.3-0.8,1.5-0.6c0.2-0.2,1.6,0.5,1.9,0.5c0.3,0,1.6,0.3,2.5,0.1c0.9-0.1,1.2-1,1.5-2.3
	c0.3-1.3-1.1-2.1-1.4-2.1c-0.3,0-0.4,0.1-0.6,0.3c-0.3,0.2-0.6,0.3-0.9,0.4c-0.3,0.1-0.7-0.1-0.7-0.1l-0.4-0.4c0,0-0.5-0.3-0.8-0.2
	C137.7,245.3,137.1,246.4,137.1,246.4 M148.2,238.7c0,0-1.3,0.3-1.5,0.6c-0.2,0.3,0,0.8,0,0.8l0.3,0.5c0,0,0,0.5-0.1,0.7
	c-0.2,0.3-0.4,0.6-0.6,0.8c-0.2,0.2-0.3,0.2-0.4,0.5c-0.1,0.3,0.4,1.9,1.7,1.9c1.3,0,2.3-0.1,2.6-0.9c0.3-0.8,0.4-2.2,0.5-2.4
	c0-0.3-0.3-1.5-0.1-1.6c-0.1-0.2,1-1.4,1.1-1.6c0.1-0.3,0.7-1.4,0.9-2.3c0.1-0.9-0.6-1.5-1.8-2.1s-2.3,0.4-2.4,0.7
	c-0.1,0.3,0,0.4,0.1,0.7c0.1,0.3,0.1,0.7,0.1,1c-0.1,0.2-0.2,0.5-0.3,0.7l-0.5,0.3c0,0-0.4,0.4-0.4,0.7
	C147.3,237.8,148.2,238.7,148.2,238.7 M129.9,216.8c-0.2-0.4,0.3-1,1-1.3c0.7-0.3,1.5-0.2,1.6,0.3c0.2,0.4-0.3,1-1,1.3
	C130.8,217.4,130.1,217.3,129.9,216.8 M136.1,214.1c0-0.5,0.6-0.8,1.4-0.8c0.8,0,1.4,0.4,1.4,0.8c0,0.5-0.7,0.8-1.4,0.8
	C136.8,214.9,136.1,214.5,136.1,214.1 M141.2,215.5c0.2-0.4,1-0.5,1.7-0.1c0.7,0.3,1.1,1,0.9,1.4c-0.2,0.4-0.9,0.5-1.6,0.1
	C141.4,216.5,141,215.9,141.2,215.5"/>
<g>
	<polygon points="285.5,180.3 267.5,156 259.6,156 259.6,193.5 267.3,193.5 267.3,168.4 286,193.5 293.2,193.5 293.2,156 285.5,156 
			"/>
	<polygon points="390.8,237.2 372.8,212.9 365,212.9 365,250.5 372.7,250.5 372.7,225.4 391.3,250.5 398.6,250.5 398.6,212.9 
		390.8,212.9 	"/>
	<rect x="299.8" y="156" width="7.8" height="37.5"/>
	<path d="M236.9,194c9.3,0,16.2-3.8,16.2-14.8V156h-7.7v22.7c0,6.3-3.4,8.8-8.4,8.8s-8.4-2.5-8.4-8.8V156h-7.7v23.2
		C220.8,190.2,227.6,194,236.9,194z"/>
	<polygon points="460.5,193.5 468.4,193.5 468.4,162.3 477.7,162.3 479.5,156 450.3,156 450.3,162.3 460.5,162.3 	"/>
	<polygon points="331.9,193.8 348,156 340.1,156 329.6,182.9 319.3,156 310.8,156 326.1,193.8 	"/>
	<path d="M425.8,183.9c0,2.9-2.7,3.7-5.4,3.7c-3.3,0-8-1.7-10.6-3.3v7.3c2.7,1.5,6.4,2.5,10.9,2.5c7.7,0,13.3-4.3,13.3-11.1
		c0-11.8-16.1-11.2-16.1-17.7c0-2.2,2.2-3.4,5-3.4c3.1,0,5.8,1,9,2.7v-6.7c-2.2-1.2-5.4-2.3-9.4-2.3c-8.3,0-12.8,5-12.8,10.7
		c0,2.9,1,5,2.4,6.7C416.7,178.1,425.8,179,425.8,183.9z"/>
	<path d="M238.5,212.5c-11.4,0-19.4,8.3-19.4,19.6c0,11,7.3,18.9,19.4,18.9c11.5,0,19.4-8.5,19.4-19.4
		C257.9,220.8,250.7,212.5,238.5,212.5z M238.5,244.8c-6.5,0-11.2-4.7-11.2-12.9s4.7-12.9,11.2-12.9c6.5,0,11.1,4.8,11.1,12.9
		C249.6,240.1,244.9,244.8,238.5,244.8z"/>
	<polygon points="372.9,187.1 359,187.1 359,177.5 370.9,177.5 370.9,171.1 359,171.1 359,162.3 370.9,162.3 372.9,156 351.2,156 
		351.2,193.5 372.9,193.5 	"/>
	<polygon points="307.5,212.9 299.8,212.9 299.8,250.5 320.7,250.5 320.7,244 307.5,244 	"/>
	<polygon points="493.8,193.5 501.6,193.5 501.6,178.7 514,156 505.8,156 498,171.9 490.1,156 481.5,156 493.8,178.6 	"/>
	<path d="M461.2,212.5c-11.4,0-19.4,8.3-19.4,19.6c0,11,7.3,18.9,19.4,18.9c11.5,0,19.4-8.5,19.4-19.4
		C480.6,220.8,473.4,212.5,461.2,212.5z M461.2,244.8c-6.5,0-11.2-4.7-11.2-12.9s4.7-12.9,11.2-12.9c6.5,0,11.1,4.8,11.1,12.9
		C472.3,240.1,467.6,244.8,461.2,244.8z"/>
	<path d="M397.6,177.2c4.1-2.1,6.2-5.7,6.2-10c0-6.9-3.7-11.3-13.7-11.3h-11.6v37.5h7.8v-14.3h3.9l8.3,14.3h8.6L397.6,177.2z
		 M390.3,173h-4v-10.6h4c3.6,0,5.8,2.2,5.8,5.1C396.1,170.7,394,173,390.3,173z"/>
	<path d="M417.6,212.9h-12.5v37.5h11.8c13,0,21.6-7.5,21.6-19.1C438.5,220.2,431,212.9,417.6,212.9z M417.2,244h-4.3v-24.6h4.2h0
		c8.6,0,13,4.8,13,12.2C430.1,238.2,426.5,244,417.2,244z"/>
	<polygon points="511.3,212.9 511.3,237.2 493.3,212.9 485.4,212.9 485.4,250.5 493.2,250.5 493.2,225.4 511.8,250.5 519,250.5 
		519,212.9 	"/>
	<rect x="438.6" y="156" width="7.8" height="37.5"/>
	<path d="M340.8,212.5c-11.4,0-19.4,8.3-19.4,19.6c0,11,7.3,18.9,19.4,18.9c11.5,0,19.4-8.5,19.4-19.4
		C360.1,220.8,352.9,212.5,340.8,212.5z M340.8,244.8c-6.5,0-11.2-4.7-11.2-12.9s4.7-12.9,11.2-12.9c6.5,0,11.1,4.8,11.1,12.9
		C351.9,240.1,347.1,244.8,340.8,244.8z"/>
	<polygon points="262.5,250.5 270.3,250.5 270.3,234.6 282.1,234.6 282.1,228.3 270.3,228.3 270.3,219.3 282.3,219.3 284.3,212.9 
		262.5,212.9 	"/>
</g>
</svg>
