<svg width="65" height="47" viewBox="0 0 65 47" fill="none" xmlns="http://www.w3.org/2000/svg">
<path d="M33.4318 24.2823C35.0104 23.0222 36.2766 21.4636 37.1444 19.7125C38.0122 17.9613 38.4613 16.0584 38.4613 14.1331C38.4613 10.5152 36.9028 7.04542 34.1286 4.48717C31.3544 1.92891 27.5918 0.4917 23.6685 0.4917C19.7452 0.4917 15.9826 1.92891 13.2084 4.48717C10.4342 7.04542 8.87569 10.5152 8.87569 14.1331C8.87567 16.0584 9.3248 17.9613 10.1926 19.7125C11.0604 21.4636 12.3266 23.0222 13.9052 24.2823C9.76367 26.0117 6.24986 28.8045 3.78394 32.3267C1.31803 35.849 0.00435457 39.9516 0 44.1441C0 44.8677 0.311705 45.5617 0.866543 46.0733C1.42138 46.585 2.1739 46.8724 2.95856 46.8724C3.74322 46.8724 4.49574 46.585 5.05058 46.0733C5.60542 45.5617 5.91713 44.8677 5.91713 44.1441C5.91713 39.8026 7.78736 35.6389 11.1164 32.569C14.4454 29.4991 18.9605 27.7745 23.6685 27.7745C28.3765 27.7745 32.8916 29.4991 36.2206 32.569C39.5497 35.6389 41.4199 39.8026 41.4199 44.1441C41.4199 44.8677 41.7316 45.5617 42.2864 46.0733C42.8413 46.585 43.5938 46.8724 44.3784 46.8724C45.1631 46.8724 45.9156 46.585 46.4705 46.0733C47.0253 45.5617 47.337 44.8677 47.337 44.1441C47.3326 39.9516 46.019 35.849 43.5531 32.3267C41.0871 28.8045 37.5733 26.0117 33.4318 24.2823ZM23.6685 22.3179C21.9131 22.3179 20.197 21.8379 18.7374 20.9385C17.2778 20.0392 16.1402 18.7609 15.4684 17.2653C14.7967 15.7697 14.6209 14.124 14.9634 12.5363C15.3058 10.9486 16.1512 9.4902 17.3924 8.34553C18.6337 7.20086 20.2152 6.42134 21.9369 6.10552C23.6587 5.78971 25.4433 5.9518 27.0651 6.57129C28.6869 7.19078 30.0731 8.23985 31.0484 9.58583C32.0236 10.9318 32.5442 12.5143 32.5442 14.1331C32.5442 16.3038 31.6091 18.3857 29.9446 19.9206C28.28 21.4556 26.0225 22.3179 23.6685 22.3179ZM52.4849 23.191C54.3783 21.2248 55.6151 18.7959 56.0464 16.1966C56.4778 13.5973 56.0853 10.9385 54.9161 8.54011C53.747 6.14176 51.8512 4.10611 49.4567 2.6782C47.0623 1.2503 44.2714 0.490996 41.4199 0.4917C40.6352 0.4917 39.8827 0.779142 39.3279 1.29079C38.773 1.80244 38.4613 2.49639 38.4613 3.21998C38.4613 3.94356 38.773 4.63751 39.3279 5.14916C39.8827 5.66081 40.6352 5.94825 41.4199 5.94825C43.7739 5.94825 46.0314 6.81058 47.6959 8.34553C49.3605 9.88049 50.2956 11.9623 50.2956 14.1331C50.2914 15.5661 49.8793 16.973 49.1005 18.213C48.3217 19.4531 47.2035 20.4828 45.8577 21.1993C45.4191 21.4326 45.0527 21.7659 44.7937 22.1671C44.5347 22.5684 44.3917 23.0243 44.3784 23.4911C44.3661 23.9542 44.4818 24.4127 44.7147 24.8232C44.9476 25.2337 45.2901 25.5827 45.7098 25.8374L46.8636 26.5467L47.2482 26.7377C50.8145 28.2975 53.8231 30.7646 55.9197 33.8485C58.0164 36.9323 59.1137 40.5044 59.0825 44.1441C59.0825 44.8677 59.3942 45.5617 59.949 46.0733C60.5039 46.585 61.2564 46.8724 62.0411 46.8724C62.8257 46.8724 63.5782 46.585 64.1331 46.0733C64.6879 45.5617 64.9996 44.8677 64.9996 44.1441C65.0238 39.9574 63.8867 35.8345 61.6963 32.1672C59.5059 28.4998 56.335 25.4099 52.4849 23.191Z" fill="white"/>
</svg>
