<svg width="55" height="50" viewBox="0 0 55 50" fill="none" xmlns="http://www.w3.org/2000/svg">
<path d="M20.625 20.8868H27.5C28.2294 20.8868 28.9288 20.6285 29.4446 20.1686C29.9603 19.7087 30.25 19.0849 30.25 18.4345C30.25 17.7841 29.9603 17.1603 29.4446 16.7004C28.9288 16.2405 28.2294 15.9822 27.5 15.9822H24.75V14.756C24.75 14.1056 24.4603 13.4818 23.9446 13.0219C23.4288 12.562 22.7294 12.3037 22 12.3037C21.2707 12.3037 20.5712 12.562 20.0555 13.0219C19.5397 13.4818 19.25 14.1056 19.25 14.756V16.1048C17.5792 16.4073 16.094 17.2527 15.0828 18.4768C14.0716 19.701 13.6066 21.2165 13.7779 22.7292C13.9493 24.2419 14.7448 25.6438 16.0101 26.6629C17.2753 27.6819 18.9201 28.2454 20.625 28.2439H23.375C23.7397 28.2439 24.0894 28.373 24.3473 28.603C24.6051 28.8329 24.75 29.1448 24.75 29.47C24.75 29.7952 24.6051 30.1071 24.3473 30.3371C24.0894 30.567 23.7397 30.6962 23.375 30.6962H16.5C15.7707 30.6962 15.0712 30.9546 14.5555 31.4145C14.0397 31.8744 13.75 32.4981 13.75 33.1485C13.75 33.7989 14.0397 34.4227 14.5555 34.8826C15.0712 35.3425 15.7707 35.6009 16.5 35.6009H19.25V36.827C19.25 37.4774 19.5397 38.1012 20.0555 38.5611C20.5712 39.021 21.2707 39.2794 22 39.2794C22.7294 39.2794 23.4288 39.021 23.9446 38.5611C24.4603 38.1012 24.75 37.4774 24.75 36.827V35.4783C26.4208 35.1757 27.906 34.3303 28.9172 33.1062C29.9284 31.8821 30.3935 30.3666 30.2221 28.8539C30.0508 27.3412 29.2552 25.9392 27.99 24.9202C26.7247 23.9011 25.0799 23.3377 23.375 23.3392H20.625C20.2603 23.3392 19.9106 23.21 19.6527 22.98C19.3949 22.7501 19.25 22.4382 19.25 22.113C19.25 21.7878 19.3949 21.4759 19.6527 21.246C19.9106 21.016 20.2603 20.8868 20.625 20.8868ZM52.25 24.5653H44V2.49431C44.0019 2.06218 43.8758 1.63728 43.6343 1.26261C43.3929 0.887952 43.0447 0.576839 42.625 0.360778C42.207 0.14554 41.7327 0.0322266 41.25 0.0322266C40.7673 0.0322266 40.2931 0.14554 39.875 0.360778L31.625 4.5788L23.375 0.360778C22.957 0.14554 22.4827 0.0322266 22 0.0322266C21.5173 0.0322266 21.0431 0.14554 20.625 0.360778L12.375 4.5788L4.12502 0.360778C3.70697 0.14554 3.23275 0.0322266 2.75002 0.0322266C2.2673 0.0322266 1.79307 0.14554 1.37502 0.360778C0.955359 0.576839 0.607171 0.887952 0.365712 1.26261C0.124253 1.63728 -0.00190213 2.06218 2.16779e-05 2.49431V41.7317C2.16779e-05 43.6829 0.869216 45.5542 2.41639 46.9339C3.96356 48.3136 6.06198 49.0887 8.25002 49.0887H46.75C48.938 49.0887 51.0365 48.3136 52.5836 46.9339C54.1308 45.5542 55 43.6829 55 41.7317V27.0177C55 26.3673 54.7103 25.7435 54.1945 25.2836C53.6788 24.8237 52.9793 24.5653 52.25 24.5653ZM8.25002 44.184C7.52067 44.184 6.8212 43.9257 6.30548 43.4658C5.78975 43.0059 5.50002 42.3821 5.50002 41.7317V6.73685L11 9.53252C11.4244 9.73021 11.8962 9.83345 12.375 9.83345C12.8539 9.83345 13.3256 9.73021 13.75 9.53252L22 5.3145L30.25 9.53252C30.6744 9.73021 31.1462 9.83345 31.625 9.83345C32.1038 9.83345 32.5756 9.73021 33 9.53252L38.5 6.73685V41.7317C38.5074 42.5683 38.6748 43.3976 38.995 44.184H8.25002ZM49.5 41.7317C49.5 42.3821 49.2103 43.0059 48.6945 43.4658C48.1788 43.9257 47.4794 44.184 46.75 44.184C46.0207 44.184 45.3212 43.9257 44.8055 43.4658C44.2897 43.0059 44 42.3821 44 41.7317V29.47H49.5V41.7317Z" fill="white"/>
</svg>
