<svg width="57" height="54" viewBox="0 0 57 54" fill="none" xmlns="http://www.w3.org/2000/svg">
<path d="M51.3656 20.7916V20.358C51.3829 16.0192 49.8431 11.7899 46.9726 8.29159C44.102 4.79323 40.052 2.21029 35.4177 0.922332H35.2465C32.853 0.269971 30.3592 -0.0399287 27.8574 0.0041129C21.9 0.296393 16.2919 2.61019 12.1776 6.47329C8.06341 10.3364 5.75324 15.4575 5.7186 20.7916C4.04681 21.3174 2.5988 22.2941 1.57447 23.5871C0.550137 24.88 0 26.4254 0 28.0098C0 29.5942 0.550137 31.1396 1.57447 32.4325C2.5988 33.7255 4.04681 34.7022 5.7186 35.228C6.30621 40.2649 8.96786 44.9265 13.1861 48.3064C17.4043 51.6864 22.8777 53.5432 28.5421 53.5159H29.1983C34.6758 53.2789 39.8822 51.3143 43.8934 47.9711C47.9046 44.6278 50.461 40.122 51.1088 35.2535C52.8003 34.7575 54.2767 33.8023 55.3324 32.5208C56.3881 31.2394 56.9707 29.6956 56.9989 28.1043C57.0272 26.513 56.4997 24.9534 55.49 23.6427C54.4803 22.332 53.0386 21.3354 51.3656 20.7916ZM29.0556 48.4147C24.9257 48.5215 20.8919 47.2892 17.6987 44.9453C14.5054 42.6014 12.3681 39.304 11.6812 35.6616H45.2603C44.564 39.1098 42.5842 42.2462 39.6424 44.5614C36.7006 46.8766 32.9697 48.2345 29.0556 48.4147ZM48.5127 30.5604H8.57154C7.81489 30.5604 7.08924 30.2917 6.55421 29.8134C6.01918 29.335 5.7186 28.6863 5.7186 28.0098C5.7186 27.3333 6.01918 26.6846 6.55421 26.2062C7.08924 25.7279 7.81489 25.4592 8.57154 25.4592H14.2774C15.0341 25.4592 15.7597 25.1905 16.2947 24.7121C16.8298 24.2338 17.1304 23.585 17.1304 22.9086C17.1304 22.2321 16.8298 21.5834 16.2947 21.105C15.7597 20.6267 15.0341 20.358 14.2774 20.358H11.4245C11.5522 17.712 12.3981 15.1335 13.8892 12.8451C15.3803 10.5566 17.4718 8.62685 19.9833 7.22234V15.2568C19.9833 15.9332 20.2839 16.582 20.8189 17.0603C21.3539 17.5386 22.0796 17.8074 22.8362 17.8074C23.5929 17.8074 24.3185 17.5386 24.8536 17.0603C25.3886 16.582 25.6892 15.9332 25.6892 15.2568V5.28387C26.4635 5.16821 27.2446 5.09157 28.0286 5.05432H28.5421C29.4982 5.06636 30.4519 5.14309 31.395 5.28387V15.2568C31.395 15.9332 31.6956 16.582 32.2306 17.0603C32.7657 17.5386 33.4913 17.8074 34.248 17.8074C35.0046 17.8074 35.7303 17.5386 36.2653 17.0603C36.8003 16.582 37.1009 15.9332 37.1009 15.2568V7.14582C38.3111 7.77231 39.4401 8.51651 40.4674 9.36485C42.1123 10.7929 43.4195 12.5019 44.3114 14.3903C45.2034 16.2787 45.6619 18.3081 45.6597 20.358H42.8068C42.0501 20.358 41.3245 20.6267 40.7895 21.105C40.2544 21.5834 39.9539 22.2321 39.9539 22.9086C39.9539 23.585 40.2544 24.2338 40.7895 24.7121C41.3245 25.1905 42.0501 25.4592 42.8068 25.4592H48.5127C49.2693 25.4592 49.995 25.7279 50.53 26.2062C51.065 26.6846 51.3656 27.3333 51.3656 28.0098C51.3656 28.6863 51.065 29.335 50.53 29.8134C49.995 30.2917 49.2693 30.5604 48.5127 30.5604Z" fill="white"/>
</svg>
