<svg width="79" height="79" viewBox="0 0 79 79" fill="none" xmlns="http://www.w3.org/2000/svg">
<path d="M72.666 34.833H51.904L66.585 20.152C68.538 18.199 68.538 15.033 66.585 13.081C64.634 11.129 61.466 11.129 59.515 13.081L44.833 27.762V7C44.833 4.239 42.595 2 39.833 2C37.071 2 34.833 4.239 34.833 7V27.762L20.151 13.081C18.2 11.129 15.032 11.129 13.081 13.081C11.128 15.034 11.128 18.2 13.081 20.152L27.762 34.833H7C4.238 34.833 2 37.072 2 39.833C2 42.594 4.238 44.833 7 44.833H27.762L13.081 59.514C11.128 61.467 11.128 64.633 13.081 66.585C14.057 67.561 15.337 68.049 16.616 68.049C17.895 68.049 19.176 67.561 20.151 66.585L34.833 51.904V72.666C34.833 75.427 37.071 77.666 39.833 77.666C42.595 77.666 44.833 75.427 44.833 72.666V51.904L59.515 66.585C60.491 67.561 61.771 68.049 63.05 68.049C64.329 68.049 65.61 67.561 66.585 66.585C68.538 64.632 68.538 61.466 66.585 59.514L51.904 44.833H72.666C75.428 44.833 77.666 42.594 77.666 39.833C77.666 37.072 75.428 34.833 72.666 34.833Z" stroke="white" stroke-width="2.5" stroke-miterlimit="10" stroke-linecap="round" stroke-linejoin="round"/>
</svg>
