<svg width="60" height="46" viewBox="0 0 60 46" fill="none" xmlns="http://www.w3.org/2000/svg">
<path d="M57.96 5.53616L39.96 0.584016H39.75C39.6103 0.572432 39.4696 0.572432 39.33 0.584016H38.64H38.25H38.04L21 5.41236L3.96001 0.584016C3.50885 0.461232 3.02882 0.428631 2.55942 0.488898C2.09001 0.549164 1.64466 0.700574 1.26001 0.930667C0.872285 1.15851 0.555805 1.45922 0.336714 1.80796C0.117624 2.1567 0.00221086 2.54346 1.00006e-05 2.93629V37.6013C-0.00161348 38.1204 0.194467 38.6268 0.560536 39.0489C0.926605 39.471 1.44415 39.7875 2.04001 39.9536L20.04 44.9057C20.6443 45.0684 21.2957 45.0684 21.9 44.9057L39 40.2012L56.04 45.0295C56.3585 45.0652 56.6815 45.0652 57 45.0295C57.6272 45.0368 58.2395 44.8713 58.74 44.5591C59.1277 44.3312 59.4442 44.0305 59.6633 43.6818C59.8824 43.333 59.9978 42.9463 60 42.5535V7.88843C60.0016 7.36934 59.8055 6.86295 59.4395 6.44085C59.0734 6.01874 58.5559 5.70227 57.96 5.53616ZM18 39.1117L6.00001 35.8185V6.37803L18 9.67121V39.1117ZM36 35.8185L24 39.1117V9.67121L36 6.37803V35.8185ZM54 39.1117L42 35.8185V6.37803L54 9.67121V39.1117Z" fill="white"/>
</svg>
