<svg width="112" height="45" viewBox="0 0 112 45" fill="none" xmlns="http://www.w3.org/2000/svg">
<path d="M7.31659 34.066C7.76652 34.2437 8.22035 34.4225 8.68409 34.5903C9.72307 34.9688 10.8027 35.3196 11.9242 35.5741C12.566 35.7176 13.2255 35.818 13.8868 35.8618L13.8202 35.4147L13.7792 34.7847C13.7264 33.9473 13.7381 33.0947 13.8928 32.2352C14.0447 31.3879 14.3417 30.4854 15.0054 29.7766C15.3474 29.4456 15.7615 29.1523 16.2253 29.0465C16.6784 28.932 17.1503 28.9191 17.574 29.0324C18.0006 29.1359 18.4002 29.3117 18.7479 29.562C19.1026 29.8002 19.4116 30.1054 19.6697 30.4558C19.9394 30.7967 20.1235 31.2144 20.2633 31.6421C20.3773 32.0822 20.4368 32.5495 20.3734 33.0049C20.2775 33.9321 19.7865 34.6877 19.2608 35.2443C18.7217 35.8108 18.1117 36.1844 17.5 36.528C16.9361 36.8171 16.3516 36.9697 15.7757 37.0629C16.0444 37.5891 16.3945 38.0837 16.8083 38.5326C17.803 39.6071 19.099 40.4388 20.4906 41.0829C21.8942 41.7106 23.4036 42.1725 24.9658 42.4244C26.5241 42.6782 28.1405 42.7573 29.7221 42.5408C30.5112 42.4324 31.2907 42.2501 32.0199 41.9621C32.3898 41.8073 32.7725 41.6315 33.1449 41.4538C33.5078 41.2491 33.8887 41.0787 34.2416 40.8451C37.1447 39.1144 39.5742 36.3986 41.8522 33.431C44.1482 30.4702 46.3504 27.2017 49.192 24.3459C50.6175 22.9317 52.2059 21.6271 53.9968 20.6387C55.7713 19.6156 57.7544 18.9909 59.717 18.5952C61.0894 18.3224 62.5015 18.1687 63.9246 18.1519C64.0839 17.4218 64.2648 16.6986 64.486 15.9913C65.0422 14.2077 65.7958 12.5195 66.7183 10.9794C68.5566 7.88245 71.0955 5.46461 73.8188 3.72322C75.1824 2.84549 76.608 2.14658 78.0501 1.60594C79.492 1.06416 80.9451 0.653637 82.3926 0.396443C83.8405 0.144576 85.2742 0.0159795 86.6785 0C88.0831 0.00798974 89.4552 0.112238 90.7816 0.325678C93.4288 0.780333 95.8958 1.60708 98.0524 2.78195C100.209 3.93894 102.107 5.36949 103.6 7.00967C105.104 8.63197 106.271 10.3558 107.215 12.0105C108.16 13.667 108.88 15.2638 109.449 16.729C110.604 19.6555 111.178 22.0475 111.536 23.6637C111.711 24.4745 111.82 25.0984 111.876 25.5211C111.937 25.9427 111.954 26.1615 111.924 26.1687C111.895 26.1755 111.82 25.9705 111.702 25.5645C111.588 25.1574 111.423 24.5517 111.195 23.7623C110.729 22.1902 110.055 19.856 108.825 17.0265C108.218 15.6093 107.468 14.0711 106.507 12.4899C105.549 10.9094 104.382 9.27723 102.915 7.76489C101.463 6.23885 99.644 4.92815 97.5646 3.86095C95.493 2.78271 93.13 2.03814 90.6039 1.64551C89.3373 1.46326 88.0297 1.38451 86.6933 1.39592C85.3573 1.4313 83.9955 1.57322 82.6248 1.83003C81.2545 2.09217 79.8828 2.50003 78.527 3.02773C77.1708 3.55468 75.8359 4.22848 74.5661 5.0655C72.029 6.72737 69.6926 8.9976 68.0172 11.8743C66.8911 13.7796 66.0727 15.9171 65.5533 18.1942C67.6833 18.333 69.8123 18.801 71.8442 19.6837C72.8142 20.0984 73.7608 20.6128 74.6411 21.2341C75.5194 21.8512 76.3403 22.5486 77.0943 23.324C78.5744 24.8888 79.8527 26.7618 80.4626 28.9883C80.7699 30.0886 80.9104 31.2741 80.7784 32.4357C80.7695 32.7287 80.7051 33.0121 80.6495 33.2967C80.5915 33.5813 80.5479 33.8655 80.446 34.1478L80.3093 34.5701L80.1373 34.9745C80.0308 35.2496 79.8775 35.4939 79.7415 35.7495C79.1599 36.7464 78.3652 37.5567 77.4823 38.1879C76.5973 38.8203 75.6012 39.2578 74.5583 39.4632C73.5253 39.6752 72.4085 39.6455 71.4038 39.3601C70.3911 39.087 69.4469 38.6034 68.6119 37.992C66.9392 36.7593 65.6818 35.0666 64.7954 33.2271C64.3586 32.3052 63.994 31.3285 63.7795 30.3321L63.6187 29.5879C63.5639 29.3399 63.509 29.0926 63.4856 28.8441C63.4248 28.3488 63.3564 27.8538 63.3037 27.3611C63.1458 25.3891 63.2049 23.4484 63.3886 21.5476C63.4371 21.0423 63.4998 20.5394 63.5734 20.0387C62.3819 20.0733 61.1946 20.2114 60.0331 20.4408C58.1764 20.8156 56.4082 21.3703 54.795 22.2944C53.1695 23.1851 51.705 24.3775 50.3601 25.7022C47.6747 28.3788 45.4891 31.5766 43.1393 34.5857C40.8079 37.5914 38.2205 40.4863 35.0261 42.3654C34.6388 42.6162 34.2197 42.8041 33.8193 43.024C33.4055 43.2184 32.9973 43.4033 32.5704 43.5772C31.6921 43.9162 30.7997 44.114 29.9161 44.2289C28.1454 44.4553 26.4041 44.3507 24.7255 44.0631C23.045 43.7758 21.4258 43.2671 19.898 42.5648C18.3811 41.8427 16.9397 40.9147 15.7669 39.6246C15.1852 38.9801 14.6783 38.2359 14.325 37.3988L14.2273 37.1314C13.3423 37.0918 12.4949 36.9419 11.6863 36.7467C10.5036 36.4534 9.39314 36.0657 8.33611 35.6552C7.85927 35.471 7.39695 35.2781 6.94135 35.0864C7.07162 34.7482 7.19659 34.408 7.31659 34.066ZM66.284 32.3977C67.0638 34.0032 68.1768 35.4672 69.5659 36.4785C70.9514 37.489 72.6287 38.0026 74.2394 37.6465C75.8571 37.3296 77.3913 36.2407 78.2763 34.7512C78.3747 34.5583 78.4958 34.3764 78.5698 34.1718L78.6979 33.8731L78.7957 33.5634C78.8718 33.3636 78.9026 33.1342 78.9472 32.9136C78.99 32.6917 79.0452 32.4711 79.0466 32.2432C79.1514 31.3422 79.0396 30.4154 78.7889 29.5213C78.2997 27.7172 77.1977 26.0694 75.8777 24.6796C74.5226 23.2992 72.9582 22.1753 71.1861 21.4315C69.2763 20.6002 67.2458 20.168 65.2008 20.0592C65.1179 20.6113 65.0457 21.1675 64.9965 21.7317C64.6917 25.2982 64.7367 29.1789 66.284 32.3977ZM18.39 34.295C18.7797 33.8678 19.075 33.3659 19.1128 32.8417C19.1486 32.581 19.1047 32.3181 19.0392 32.0587C18.9457 31.8068 18.8399 31.5469 18.6569 31.3297C18.3241 30.8796 17.8126 30.5387 17.3014 30.428C16.7814 30.3116 16.301 30.4493 15.9463 30.8237C15.5916 31.2102 15.3584 31.8285 15.2504 32.5091C15.181 32.8439 15.175 33.2115 15.1491 33.5702C15.1583 33.9401 15.1413 34.3068 15.1828 34.6861L15.2252 35.2527L15.3067 35.7644L15.3293 35.85C15.3378 35.8492 15.3463 35.8496 15.3548 35.8488C15.9173 35.7648 16.4709 35.6251 16.9641 35.3618C17.4763 35.0617 17.9974 34.7265 18.39 34.295Z" fill="#004B50"/>
<path d="M9.3754 31.1387C9.3754 31.1387 8.19658 34.6363 6.49386 37.9364C6.49386 37.9364 5.79399 39.8661 3.89834 37.5693C3.89834 37.5693 0.444394 33.7357 0.233766 32.6331C0.233766 32.6331 -1.14116 30.0125 2.77723 29.6701C2.77723 29.6701 6.56536 29.1473 7.57425 29.3429C7.57425 29.3429 9.62673 29.2789 9.3754 31.1387Z" fill="#004B50"/>
</svg>
