<svg width="112" height="42" viewBox="0 0 112 42" fill="none" xmlns="http://www.w3.org/2000/svg">
<path d="M104.622 31.6962C104.172 31.8615 103.718 32.0279 103.254 32.184C102.215 32.5362 101.136 32.8626 100.014 33.0994C99.3725 33.2329 98.713 33.3263 98.0517 33.367L98.1183 32.9511L98.1593 32.3649C98.2121 31.5857 98.2004 30.7924 98.0457 29.9927C97.8938 29.2044 97.5968 28.3647 96.9331 27.7052C96.5911 27.3972 96.1769 27.1243 95.7132 27.0259C95.2601 26.9193 94.7882 26.9073 94.3645 27.0128C93.9379 27.1091 93.5382 27.2726 93.1906 27.5056C92.8359 27.7272 92.5269 28.0111 92.2688 28.3371C91.9991 28.6543 91.815 29.043 91.6752 29.4409C91.5612 29.8504 91.5017 30.2851 91.5651 30.7089C91.661 31.5716 92.152 32.2746 92.6777 32.7925C93.2168 33.3196 93.8267 33.6672 94.4384 33.9869C95.0024 34.2559 95.5868 34.3979 96.1628 34.4846C95.8941 34.9742 95.544 35.4344 95.1302 35.8521C94.1354 36.8518 92.8394 37.6256 91.4479 38.2249C90.0443 38.809 88.5348 39.2388 86.9727 39.4731C85.4144 39.7093 83.798 39.7829 82.2163 39.5815C81.4273 39.4806 80.6478 39.311 79.9186 39.043C79.5486 38.899 79.166 38.7354 78.7936 38.5701C78.4307 38.3796 78.0498 38.2211 77.6969 38.0037C74.7937 36.3934 72.3643 33.8665 70.0863 31.1054C67.7903 28.3506 65.5881 25.3094 62.7465 22.6523C61.321 21.3365 59.7326 20.1226 57.9417 19.2029C56.1671 18.251 54.184 17.6698 52.2215 17.3016C50.849 17.0478 49.4369 16.9048 48.0139 16.8892C47.8546 16.2099 47.6737 15.5369 47.4524 14.8788C46.8963 13.2193 46.1427 11.6486 45.2201 10.2156C43.3818 7.33411 40.843 5.08446 38.1197 3.46422C36.7561 2.64754 35.3305 1.99725 33.8883 1.49422C32.4465 0.99013 30.9934 0.608167 29.5459 0.368865C28.098 0.134519 26.6643 0.0148679 25.26 0C23.8554 0.00743394 22.4833 0.10443 21.1568 0.303022C18.5097 0.726049 16.0426 1.49528 13.8861 2.58842C11.7295 3.66493 9.83142 4.99596 8.33897 6.52204C6.83448 8.03148 5.66735 9.63544 4.72395 11.175C3.77878 12.7163 3.05875 14.202 2.48988 15.5652C1.33443 18.2882 0.760953 20.5138 0.402354 22.0175C0.227479 22.7719 0.118803 23.3525 0.0621634 23.7458C0.00127589 24.138 -0.0153654 24.3415 0.0143703 24.3483C0.0437521 24.3546 0.118807 24.1638 0.236688 23.7861C0.350675 23.4073 0.515278 22.8438 0.74396 22.1092C1.20911 20.6465 1.88348 18.4747 3.11397 15.8421C3.72001 14.5234 4.47084 13.0922 5.43159 11.621C6.38986 10.1505 7.55664 8.63186 9.02395 7.22472C10.4753 5.80484 12.2945 4.58532 14.3739 3.59236C16.4455 2.58913 18.8084 1.89636 21.3346 1.53104C22.6012 1.36147 23.9088 1.28819 25.2452 1.29881C26.5811 1.33174 27.943 1.46378 29.3136 1.70272C30.684 1.94663 32.0557 2.32611 33.4115 2.81711C34.7677 3.30739 36.1026 3.93432 37.3724 4.71312C39.9095 6.25937 42.2459 8.37168 43.9213 11.0482C45.0474 12.8211 45.8658 14.8098 46.3851 16.9285C44.2551 17.0577 42.1262 17.4931 40.0943 18.3144C39.1243 18.7002 38.1777 19.1788 37.2973 19.7569C36.4191 20.3311 35.5981 20.98 34.8441 21.7014C33.3641 23.1574 32.0858 24.9001 31.4758 26.9717C31.1686 27.9955 31.028 29.0986 31.1601 30.1793C31.1689 30.4519 31.2334 30.7156 31.2889 30.9804C31.347 31.2452 31.3905 31.5096 31.4925 31.7723L31.6291 32.1652L31.8012 32.5415C31.9077 32.7975 32.061 33.0247 32.1969 33.2626C32.7786 34.1901 33.5733 34.9441 34.4562 35.5314C35.3411 36.1197 36.3373 36.5268 37.3802 36.718C38.4131 36.9152 39.53 36.8875 40.5346 36.622C41.5474 36.3679 42.4915 35.9179 43.3266 35.3491C44.9992 34.2021 46.2566 32.6272 47.143 30.9156C47.5799 30.0579 47.9445 29.1492 48.159 28.2221L48.3197 27.5296C48.3746 27.2988 48.4295 27.0687 48.4528 26.8376C48.5137 26.3767 48.582 25.9161 48.6348 25.4577C48.7927 23.6229 48.7336 21.8172 48.5498 20.0486C48.5013 19.5785 48.4387 19.1105 48.365 18.6447C49.5566 18.6769 50.7439 18.8054 51.9054 19.0188C53.7621 19.3675 55.5303 19.8837 57.1435 20.7435C58.769 21.5722 60.2335 22.6816 61.5783 23.9143C64.2638 26.4046 66.4493 29.38 68.7992 32.1797C71.1306 34.9763 73.7179 37.6699 76.9124 39.4183C77.2997 39.6516 77.7188 39.8264 78.1192 40.031C78.533 40.2119 78.9412 40.384 79.3681 40.5457C80.2464 40.8612 81.1388 41.0452 82.0224 41.1521C83.7931 41.3628 85.5344 41.2654 87.213 40.9978C88.8934 40.7305 90.5126 40.2572 92.0405 39.6038C93.5574 38.9319 94.9988 38.0685 96.1716 36.8681C96.7532 36.2684 97.2602 35.576 97.6134 34.7972L97.7112 34.5483C98.5961 34.5115 99.4436 34.372 100.252 34.1904C101.435 33.9175 102.545 33.5568 103.602 33.1748C104.079 33.0035 104.542 32.824 104.997 32.6456C104.867 32.3309 104.742 32.0144 104.622 31.6962ZM45.6545 30.1439C44.8746 31.6378 43.7617 32.9999 42.3726 33.9409C40.987 34.8811 39.3098 35.359 37.6991 35.0276C36.0814 34.7328 34.5471 33.7196 33.6621 32.3337C33.5637 32.1543 33.4427 31.985 33.3687 31.7946L33.2405 31.5167L33.1428 31.2285C33.0667 31.0427 33.0359 30.8292 32.9913 30.6239C32.9485 30.4175 32.8933 30.2122 32.8918 30.0002C32.7871 29.1619 32.8989 28.2996 33.1495 27.4677C33.6388 25.789 34.7408 24.2559 36.0608 22.9627C37.4159 21.6784 38.9802 20.6327 40.7523 19.9406C42.6622 19.1672 44.6927 18.765 46.7377 18.6638C46.8206 19.1774 46.8928 19.695 46.942 20.22C47.2468 23.5383 47.2018 27.1491 45.6545 30.1439ZM93.5485 31.9093C93.1588 31.5117 92.8635 31.0448 92.8256 30.557C92.7899 30.3145 92.8338 30.0699 92.8993 29.8285C92.9927 29.5941 93.0986 29.3524 93.2816 29.1502C93.6143 28.7315 94.1259 28.4143 94.6371 28.3113C95.1571 28.2029 95.6375 28.3311 95.9922 28.6794C96.3469 29.0391 96.5801 29.6143 96.6881 30.2476C96.7575 30.5591 96.7635 30.9011 96.7893 31.2349C96.7801 31.579 96.7971 31.9203 96.7557 32.2732L96.7132 32.8003L96.6318 33.2764L96.6092 33.3561C96.6007 33.3554 96.5922 33.3557 96.5837 33.355C96.0212 33.2768 95.4675 33.1469 94.9744 32.9019C94.4622 32.6226 93.9411 32.3107 93.5485 31.9093Z" fill="#004B50"/>
<path d="M102.563 28.9725C102.563 28.9725 103.742 32.2268 105.445 35.2974C105.445 35.2974 106.144 37.0929 108.04 34.9558C108.04 34.9558 111.494 31.3889 111.705 30.363C111.705 30.363 113.08 27.9247 109.161 27.6061C109.161 27.6061 105.373 27.1197 104.364 27.3017C104.364 27.3017 102.312 27.2422 102.563 28.9725Z" fill="#004B50"/>
</svg>
