<svg width="48" height="48" viewBox="0 0 48 48" fill="none" xmlns="http://www.w3.org/2000/svg">
<path d="M41.8313 7.94062L22.5844 35.4469L10.8 27.2156L13.5375 23.2781L21.4125 28.8L38.2594 4.69687C34.275 1.75312 29.325 0 24 0C10.7531 0 0 10.7531 0 24C0 37.2469 10.7531 48 24 48C37.2469 48 48 37.2469 48 24C48 17.8312 45.6656 12.1875 41.8313 7.94062Z" fill="#00A85B"/>
<path d="M13.5383 23.2781L10.8008 27.2156L22.5852 35.4469L41.832 7.94062C40.7539 6.74062 39.5539 5.66249 38.2508 4.69687L21.4039 28.8L13.5383 23.2781Z" fill="#F9FAFB"/>
</svg>
