<svg width="17" height="16" viewBox="0 0 17 16" fill="none" xmlns="http://www.w3.org/2000/svg">
<rect x="0.5" width="16" height="16" rx="8" fill="#00A76F"/>
<rect x="2.5" y="2" width="12" height="12" rx="6" fill="#00A76F"/>
<path d="M4.25909 7.1529C4.06506 6.61588 3.96805 6.34738 4.00942 6.17532C4.05466 5.98713 4.1885 5.84042 4.35956 5.79148C4.51596 5.74673 4.75926 5.85487 5.24586 6.07114C5.67626 6.26243 5.89146 6.35808 6.09366 6.35276C6.31628 6.34689 6.53044 6.25762 6.7008 6.09966C6.85552 5.95619 6.9593 5.72756 7.16686 5.27032L7.6243 4.26262C8.0064 3.42087 8.19745 3 8.5 3C8.80255 3 8.9936 3.42087 9.3757 4.26262L9.83315 5.27032C10.0407 5.72756 10.1445 5.95619 10.2992 6.09966C10.4695 6.25762 10.6837 6.34689 10.9063 6.35276C11.1085 6.35808 11.3237 6.26243 11.7541 6.07114C12.2407 5.85487 12.484 5.74673 12.6404 5.79148C12.8115 5.84042 12.9453 5.98713 12.9906 6.17532C13.0319 6.34738 12.9349 6.61588 12.7409 7.15285L11.9069 9.4611C11.5501 10.4485 11.3717 10.9422 10.9984 11.2211C10.6251 11.5 10.1427 11.5 9.1779 11.5H7.8221C6.85729 11.5 6.37488 11.5 6.00157 11.2211C5.62827 10.9422 5.44988 10.4485 5.09311 9.4611L4.25909 7.1529Z" fill="white"/>
<path d="M8.5 9H8.5045" stroke="white" stroke-linecap="round" stroke-linejoin="round"/>
<path d="M6 13H11" stroke="white" stroke-linecap="round"/>
</svg>
