<svg width="40" height="40" viewBox="0 0 40 40" fill="none" xmlns="http://www.w3.org/2000/svg">
<path d="M18.666 31.6113H21.4439V23.7084L24.6106 26.875L26.5548 24.9167L19.9993 18.4721L13.4993 24.9721L15.4577 26.9167L18.666 23.7084V31.6113ZM9.44393 36.6667C8.69393 36.6667 8.04338 36.3913 7.49227 35.8405C6.94143 35.2893 6.66602 34.6388 6.66602 33.8888V6.11129C6.66602 5.36129 6.94143 4.71074 7.49227 4.15962C8.04338 3.60879 8.69393 3.33337 9.44393 3.33337H23.916L33.3327 12.75V33.8888C33.3327 34.6388 33.0573 35.2893 32.5064 35.8405C31.9553 36.3913 31.3048 36.6667 30.5548 36.6667H9.44393ZM22.5273 14.0555H30.5548L22.5273 6.11129V14.0555Z" fill="#00AB55"/>
</svg>
