<svg width="40" height="40" viewBox="0 0 40 40" fill="none" xmlns="http://www.w3.org/2000/svg">
<path d="M3.33398 35V5H19.7227V11.8054H36.6673V35H3.33398ZM6.1119 32.2221H10.1394V28.1946H6.1119V32.2221ZM6.1119 25.4167H10.1394V21.3888H6.1119V25.4167ZM6.1119 18.6112H10.1394V14.5833H6.1119V18.6112ZM6.1119 11.8054H10.1394V7.77792H6.1119V11.8054ZM12.9173 32.2221H16.9452V28.1946H12.9173V32.2221ZM12.9173 25.4167H16.9452V21.3888H12.9173V25.4167ZM12.9173 18.6112H16.9452V14.5833H12.9173V18.6112ZM12.9173 11.8054H16.9452V7.77792H12.9173V11.8054ZM19.7227 32.2221H33.8894V14.5833H19.7227V18.6112H23.0561V21.3888H19.7227V25.4167H23.0561V28.1946H19.7227V32.2221ZM27.084 21.3888V18.6112H29.8619V21.3888H27.084ZM27.084 28.1946V25.4167H29.8619V28.1946H27.084Z" fill="#00AB55"/>
</svg>
