<svg width="40" height="40" viewBox="0 0 40 40" fill="none" xmlns="http://www.w3.org/2000/svg">
<path d="M18.6119 36.6667V28.9446L12.6673 34.8613L10.6952 32.9167L18.6119 25V21.3888H15.0007L7.19523 29.1946L5.19523 27.278L11.0561 21.3888H3.33398V18.6113H11.0561L5.1119 12.6388L7.08398 10.6667L15.0007 18.6113H18.6119V14.9721L10.8061 7.16671L12.7507 5.16671L18.6119 11.028V3.33337H21.3894V11.028L27.3619 5.08337L29.3061 7.05546L21.3894 14.9721V18.6113H25.0286L32.8619 10.778L34.834 12.7221L28.9727 18.6113H36.6673V21.3888H28.9727L34.8619 27.3334L32.9452 29.3055L25.0286 21.3888H21.3894V25L29.3061 32.9446L27.3894 34.9167L21.3894 28.9446V36.6667H18.6119Z" fill="#00AB55"/>
</svg>
