<svg width="40" height="40" viewBox="0 0 40 40" fill="none" xmlns="http://www.w3.org/2000/svg">
<path d="M13.2924 33.3333C13.0424 33.3333 12.8086 33.2708 12.5911 33.1458C12.3734 33.0208 12.2043 32.8472 12.0841 32.625L8.6674 26.5279H11.4453L13.1674 29.8612H16.9453V28.472H14.0007L12.2786 25.1387H7.9174L5.37573 20.6945C5.32017 20.574 5.27615 20.4582 5.24365 20.347C5.21142 20.2359 5.19531 20.1202 5.19531 20C5.19531 19.9258 5.25545 19.6943 5.37573 19.3054L7.9174 14.8612H12.2786L14.0007 11.5279H16.9453V10.1387H13.1674L11.4453 13.472H8.6674L12.0841 7.37496C12.2043 7.15274 12.3734 6.97913 12.5911 6.85413C12.8086 6.72913 13.0424 6.66663 13.2924 6.66663H17.9174C18.3155 6.66663 18.6464 6.79857 18.9103 7.06246C19.1742 7.32635 19.3061 7.65732 19.3061 8.05538V15.1387H16.112L14.7228 16.5279H19.3061V21.8054H15.362L13.7228 18.472H9.72281L8.33406 19.8612H12.8341L14.5007 23.1945H19.3061V31.9445C19.3061 32.3426 19.1742 32.6736 18.9103 32.9375C18.6464 33.2013 18.3155 33.3333 17.9174 33.3333H13.2924ZM22.0841 33.3333C21.686 33.3333 21.355 33.2013 21.0911 32.9375C20.8273 32.6736 20.6953 32.3426 20.6953 31.9445V23.1945H25.5007L27.1674 19.8612H31.6674L30.2786 18.472H26.2786L24.6395 21.8054H20.6953V16.5279H25.2786L23.8895 15.1387H20.6953V8.05538C20.6953 7.65732 20.8273 7.32635 21.0911 7.06246C21.355 6.79857 21.686 6.66663 22.0841 6.66663H26.7091C26.9591 6.66663 27.1928 6.72913 27.4103 6.85413C27.6281 6.97913 27.7971 7.15274 27.9174 7.37496L31.3341 13.472H28.5561L26.8341 10.1387H23.0561V11.5279H26.0007L27.7228 14.8612H32.0841L34.6257 19.3054C34.6813 19.4259 34.7253 19.5418 34.7578 19.6529C34.79 19.764 34.8061 19.8797 34.8061 20C34.8061 20.0741 34.746 20.3057 34.6257 20.6945L32.0841 25.1387H27.7228L26.0007 28.472H23.0561V29.8612H26.8341L28.5561 26.5279H31.3341L27.9174 32.625C27.7971 32.8472 27.6281 33.0208 27.4103 33.1458C27.1928 33.2708 26.9591 33.3333 26.7091 33.3333H22.0841Z" fill="#00AB55"/>
</svg>
