<svg width="40" height="40" viewBox="0 0 40 40" fill="none" xmlns="http://www.w3.org/2000/svg">
<path d="M18.8048 27.9446C19.342 27.9446 19.8814 27.8728 20.4231 27.7292C20.9648 27.5856 21.4809 27.361 21.9714 27.0555L26.3881 31.4721L28.2773 29.5834L23.8327 25.1388C24.1196 24.6852 24.3256 24.2014 24.4506 23.6875C24.5756 23.1737 24.6381 22.6482 24.6381 22.1113C24.6381 20.4816 24.078 19.1112 22.9577 18C21.8374 16.8889 20.4624 16.3334 18.8327 16.3334C17.203 16.3334 15.828 16.8935 14.7077 18.0138C13.5874 19.1343 13.0273 20.5093 13.0273 22.1388C13.0273 23.7685 13.5828 25.1435 14.6939 26.2638C15.805 27.3843 17.1753 27.9446 18.8048 27.9446ZM18.8327 25.1667C17.9716 25.1667 17.2517 24.8774 16.6731 24.2988C16.0942 23.7199 15.8048 22.9999 15.8048 22.1388C15.8048 21.2777 16.0942 20.5578 16.6731 19.9792C17.2517 19.4006 17.9716 19.1113 18.8327 19.1113C19.6938 19.1113 20.4137 19.4006 20.9923 19.9792C21.5712 20.5578 21.8606 21.2777 21.8606 22.1388C21.8606 22.9999 21.5712 23.7199 20.9923 24.2988C20.4137 24.8774 19.6938 25.1667 18.8327 25.1667ZM9.44393 36.6667C8.69393 36.6667 8.04338 36.3913 7.49227 35.8405C6.94143 35.2893 6.66602 34.6388 6.66602 33.8888V6.11129C6.66602 5.36129 6.94143 4.71074 7.49227 4.15962C8.04338 3.60879 8.69393 3.33337 9.44393 3.33337H23.916L33.3327 12.75V33.8888C33.3327 34.6388 33.0573 35.2893 32.5064 35.8405C31.9553 36.3913 31.3048 36.6667 30.5548 36.6667H9.44393ZM22.5273 14.0555H30.5548L22.5273 6.11129V14.0555Z" fill="#00AB55"/>
</svg>
