<svg width="40" height="40" viewBox="0 0 40 40" fill="none" xmlns="http://www.w3.org/2000/svg">
<path d="M10.5827 33.3333C8.11046 33.3333 6.00629 32.4722 4.27018 30.75C2.53407 29.0277 1.66602 26.9305 1.66602 24.4583C1.66602 22.2916 2.34657 20.3795 3.70768 18.722C5.06879 17.0648 6.81421 16.0463 8.94393 15.6666C9.49004 13.25 10.6543 11.2315 12.4368 9.61121C14.2193 7.99065 16.2864 7.05079 18.6381 6.79163V20.972L15.4439 17.8054L13.4714 19.7779L20.0273 26.3333L26.5827 19.7779L24.6106 17.8054L21.416 20.972V6.79163C24.2402 7.12496 26.5989 8.38649 28.4923 10.5762C30.3859 12.7662 31.3327 15.3334 31.3327 18.2779V18.9445C33.3049 18.9815 34.9646 19.6875 36.3119 21.0625C37.6591 22.4375 38.3327 24.1295 38.3327 26.1387C38.3327 28.1109 37.6267 29.8032 36.2148 31.2154C34.8025 32.6273 33.1103 33.3333 31.1381 33.3333H10.5827Z" fill="#00AB55"/>
</svg>
