<svg width="97" height="96" viewBox="0 0 97 96" fill="none" xmlns="http://www.w3.org/2000/svg">
<path opacity="0.32" d="M9.80776 17.1463C10.1899 13.8515 12.1888 11.1315 15.4275 10.4152C20.4792 9.29804 30.271 8 48.5 8C66.729 8 76.5208 9.29804 81.5726 10.4152C84.8112 11.1315 86.81 13.8515 87.1922 17.1463C87.7702 22.1288 88.5 30.3346 88.5 40C88.5 58.0568 78.9702 74.9528 62.9148 83.2158C57.5516 85.976 52.3174 88 48.5 88C44.6826 88 39.4484 85.976 34.0852 83.2158C18.0299 74.9528 8.5 58.0568 8.5 40C8.5 30.3346 9.22986 22.1288 9.80776 17.1463Z" fill="#00A76F"/>
<path fill-rule="evenodd" clip-rule="evenodd" d="M36.9842 31.0152C37.258 24.8542 42.3328 20 48.5 20C54.6672 20 59.742 24.8542 60.0158 31.0152L60.2544 36.3872L60.5304 36.4106C63.741 36.688 66.007 38.9204 66.2506 42.1336C66.3938 44.0228 66.5 46.5776 66.5 50C66.5 53.4224 66.3938 55.9772 66.2506 57.8664C66.007 61.0796 63.741 63.312 60.5304 63.5894C57.9384 63.8134 54.0988 64 48.5 64C42.9012 64 39.0616 63.8134 36.4696 63.5894C33.259 63.312 30.993 61.0796 30.7494 57.8664C30.6062 55.9772 30.5 53.4224 30.5 50C30.5 46.8738 30.576 44.4716 30.6826 42.6392C30.8852 39.161 33.287 36.6916 36.7456 36.3836L36.9842 31.0152ZM52.0236 31.3704L52.2308 36.0302C51.0836 36.0108 49.8424 36 48.5 36C47.159 36 45.9178 36.0108 44.7692 36.03L44.9764 31.3706C45.0602 29.4852 46.613 28 48.5 28C50.387 28 51.9398 29.4852 52.0236 31.3704ZM52.5 48C52.5 49.6356 51.5182 51.042 50.112 51.662L50.3936 54.166C50.4632 54.7846 50.362 55.461 49.803 55.7352C49.5004 55.8838 49.0786 56 48.5 56C47.9214 56 47.4996 55.8838 47.197 55.7352C46.638 55.461 46.5368 54.7846 46.6064 54.166L46.888 51.662C45.4818 51.042 44.5 49.6356 44.5 48C44.5 45.7908 46.2908 44 48.5 44C50.7092 44 52.5 45.7908 52.5 48Z" fill="#00A76F"/>
</svg>
