<svg width="32" height="32" viewBox="0 0 32 32" fill="none" xmlns="http://www.w3.org/2000/svg">
<g clip-path="url(#clip0_5629_14862)">
<path d="M8.16024 18.1293C8.16024 18.8972 8.32786 19.4843 8.54695 19.8403C8.6637 20.043 8.83182 20.2111 9.03423 20.3274C9.23665 20.4438 9.46614 20.5043 9.6994 20.5028C10.2628 20.5028 10.7781 20.3632 11.7713 18.9838C12.567 17.8787 13.5045 16.3311 14.136 15.3537L15.2043 13.7063C15.9464 12.5621 16.804 11.2902 17.7902 10.4253C18.5935 9.72442 19.4608 9.3335 20.3337 9.3335C21.7991 9.3335 23.195 10.1859 24.2633 11.7845C25.4325 13.5352 26.0021 15.7405 26.0021 18.0162C26.0021 19.3691 25.7364 20.3632 25.2843 21.1485C24.8482 21.908 23.9942 22.6668 22.5621 22.6668V20.5028C23.7883 20.5028 24.0922 19.3719 24.0922 18.0777C24.0922 16.2333 23.6638 14.1866 22.72 12.7241C22.0502 11.6867 21.1822 11.0529 20.2273 11.0529C19.1945 11.0529 18.3633 11.8347 17.4293 13.2288C16.9327 13.9694 16.4229 14.8721 15.8505 15.8906L15.2203 17.0075C13.9545 19.2602 13.6339 19.7733 13.001 20.6201C11.8937 22.1084 10.9464 22.6668 9.6994 22.6668C8.22006 22.6668 7.2846 22.0239 6.70872 21.055C6.2323 20.2654 6 19.2295 6 18.049L8.16024 18.1293Z" fill="black"/>
<path d="M7.70325 11.9373C8.69365 10.405 10.1229 9.3335 11.7622 9.3335C12.7116 9.3335 13.6554 9.61273 14.6409 10.4232C15.719 11.3063 16.8666 12.7604 18.3014 15.1569L18.8154 16.0169C20.0561 18.0916 20.7628 19.1583 21.1752 19.6623C21.7066 20.3087 22.0794 20.5 22.5621 20.5C23.7882 20.5 24.0922 19.3691 24.0922 18.0749L25.9979 18.0148C25.9979 19.3677 25.7322 20.3618 25.2801 21.1471C24.8482 21.908 23.9941 22.6668 22.5621 22.6668C21.6718 22.6668 20.8831 22.4728 20.0109 21.6469C19.3405 21.0131 18.5566 19.8871 17.9536 18.8749L16.1599 15.8675C15.2599 14.3583 14.4344 13.233 13.9566 12.7262C13.4419 12.1754 12.7818 11.5136 11.7275 11.5136C10.8741 11.5136 10.1493 12.1146 9.54286 13.034L7.70325 11.9373Z" fill="black"/>
<path d="M11.7275 11.5136C10.8741 11.5136 10.1494 12.1146 9.54291 13.034C8.68535 14.3331 8.16024 16.2682 8.16024 18.1293C8.16024 18.8972 8.32786 19.4843 8.54695 19.8403L6.70524 21.055C6.2323 20.2654 6 19.2295 6 18.049C6 15.9024 6.58701 13.6651 7.7033 11.9373C8.6937 10.405 10.123 9.3335 11.7623 9.3335L11.7275 11.5136Z" fill="black"/>
</g>
<defs>
<clipPath id="clip0_5629_14862">
<rect width="20" height="13.3333" fill="white" transform="translate(6 9.3335)"/>
</clipPath>
</defs>
</svg>
