<svg width="220" height="89" viewBox="0 0 220 89" fill="none" xmlns="http://www.w3.org/2000/svg">
<g clip-path="url(#clip0_4392_45208)">
<path d="M201.355 28.447C196.746 28.447 192.913 28.1487 190.692 27.9265C189.664 27.8236 188.838 28.8534 189.045 29.978L189.046 29.9789C189.181 30.7152 189.733 31.2685 190.406 31.3401C193.734 31.6945 197.444 31.8925 201.355 31.8925C205.267 31.8925 208.977 31.6945 212.305 31.3401C212.978 31.2684 213.529 30.7152 213.665 29.9789C213.873 28.8541 213.046 27.8242 212.018 27.9274C209.804 28.1496 205.982 28.447 201.355 28.447Z" fill="#FFFFC8"/>
<path d="M217.264 6.11808C216.333 5.5585 215.152 5.86471 214.539 6.82365C214.068 7.55962 214.033 8.47993 214.361 9.22579C214.516 9.57891 214.453 10.0023 214.197 10.2734L208.599 16.2021C207.575 17.2862 205.894 16.913 205.324 15.4748L202.625 8.67369C202.476 8.29806 202.578 7.86095 202.868 7.60652C203.47 7.07841 203.843 6.24269 203.794 5.31248C203.723 3.96128 202.745 2.85949 201.53 2.76555C200.102 2.65517 198.913 3.9105 198.913 5.47465C198.913 6.34632 199.282 7.12164 199.857 7.61842C200.143 7.8661 200.232 8.30474 200.086 8.67376L197.387 15.4747C196.817 16.9128 195.136 17.2861 194.112 16.2019L188.512 10.2712C188.255 9.99885 188.197 9.5747 188.352 9.21951C188.644 8.55162 188.65 7.73902 188.293 7.03438C187.77 6.00082 186.613 5.55937 185.63 6.02073C184.488 6.55699 184.011 8.04436 184.562 9.25319C184.908 10.0151 185.577 10.4766 186.291 10.537C186.655 10.5677 186.96 10.8524 187.034 11.2498L189.471 24.4539C189.575 25.0187 189.999 25.4405 190.516 25.4927C192.471 25.6904 197.301 26.1226 201.355 26.1226C206.623 26.1226 210.549 25.7159 212.213 25.511C212.721 25.4485 213.134 25.0303 213.236 24.4747L215.675 11.2609C215.749 10.8611 216.054 10.5677 216.42 10.5368C217.063 10.4825 217.677 10.1025 218.049 9.44935C218.701 8.30487 218.354 6.77354 217.264 6.11808Z" fill="#FFFFC8"/>
<path d="M202.112 29.0814C197.539 29.0814 193.735 28.7854 191.532 28.5649C190.512 28.4628 189.692 29.4846 189.898 30.6004L189.898 30.6012C190.033 31.3318 190.58 31.8806 191.248 31.9518C194.55 32.3034 198.231 32.4999 202.112 32.4999C205.993 32.4999 209.673 32.3034 212.975 31.9518C213.643 31.8807 214.19 31.3318 214.325 30.6012C214.531 29.4853 213.711 28.4634 212.691 28.5658C210.494 28.7863 206.702 29.0814 202.112 29.0814Z" fill="#DC781E"/>
<path d="M217.895 6.9274C216.971 6.37223 215.8 6.67604 215.191 7.62742C214.724 8.35758 214.689 9.27075 215.015 10.0108C215.169 10.3611 215.106 10.7812 214.852 11.0502L209.298 16.9325C208.282 18.0081 206.614 17.6377 206.048 16.2109L203.371 9.46298C203.223 9.09028 203.324 8.65658 203.612 8.40415C204.209 7.88018 204.579 7.05094 204.53 6.12809C204.46 4.7875 203.489 3.69427 202.285 3.60113C200.868 3.49162 199.688 4.73706 199.688 6.28904C199.688 7.15384 200.054 7.92315 200.624 8.41605C200.908 8.66179 200.997 9.09703 200.852 9.46318L198.174 16.2109C197.608 17.6377 195.94 18.008 194.925 16.9324L189.369 11.0482C189.113 10.778 189.056 10.3571 189.21 10.0047C189.5 9.34204 189.505 8.53584 189.151 7.83669C188.632 6.81121 187.484 6.37323 186.509 6.83098C185.376 7.36303 184.903 8.83878 185.449 10.0381C185.793 10.7941 186.457 11.252 187.165 11.3119C187.526 11.3424 187.829 11.6249 187.902 12.0192L190.32 25.1197C190.423 25.6801 190.844 26.0987 191.357 26.1505C193.296 26.3466 198.088 26.7754 202.111 26.7754C207.338 26.7754 211.233 26.372 212.884 26.1686C213.387 26.1067 213.797 25.6917 213.899 25.1404L216.319 12.0302C216.392 11.6335 216.694 11.3424 217.057 11.3118C217.696 11.258 218.305 10.8809 218.674 10.2329C219.321 9.0971 218.977 7.57778 217.895 6.9274Z" fill="#DC781E"/>
<path d="M201.654 28.5076C197.126 28.5076 193.36 28.2146 191.179 27.9962C190.168 27.8952 189.357 28.9069 189.561 30.0117L189.561 30.0126C189.695 30.736 190.236 31.2795 190.897 31.3498C194.167 31.698 197.812 31.8926 201.655 31.8926C205.498 31.8926 209.142 31.698 212.412 31.3498C213.073 31.2794 213.614 30.7359 213.748 30.0126C213.952 28.9076 213.14 27.8958 212.13 27.9971C209.954 28.2155 206.2 28.5076 201.654 28.5076Z" fill="#FFD234"/>
<path d="M217.283 6.57106C216.368 6.0213 215.209 6.32217 214.606 7.2642C214.143 7.98721 214.109 8.89142 214.431 9.62412C214.584 9.97103 214.522 10.387 214.27 10.6533L208.77 16.4779C207.765 17.5429 206.113 17.1763 205.553 15.7634L202.902 9.08171C202.755 8.71269 202.856 8.28327 203.141 8.03331C203.732 7.51449 204.098 6.6934 204.05 5.77956C203.981 4.45214 203.019 3.36967 201.826 3.2774C200.423 3.16895 199.255 4.40223 199.255 5.93892C199.255 6.79522 199.618 7.55699 200.182 8.045C200.463 8.28835 200.551 8.71931 200.407 9.08185L197.756 15.7633C197.195 17.1761 195.544 17.5428 194.538 16.4778L189.037 10.6513C188.784 10.3837 188.727 9.96701 188.88 9.6181C189.167 8.96198 189.172 8.16367 188.822 7.47133C188.308 6.45594 187.171 6.02224 186.206 6.47551C185.084 7.00235 184.615 8.4636 185.156 9.65118C185.497 10.3997 186.154 10.8532 186.855 10.9125C187.212 10.9427 187.512 11.2223 187.584 11.6128L189.979 24.5848C190.081 25.1396 190.498 25.5541 191.005 25.6054C192.926 25.7996 197.671 26.2243 201.654 26.2243C206.83 26.2243 210.687 25.8248 212.322 25.6234C212.82 25.562 213.226 25.1511 213.327 24.6053L215.723 11.6237C215.795 11.2309 216.094 10.9427 216.454 10.9123C217.087 10.859 217.689 10.4856 218.055 9.84394C218.695 8.71944 218.354 7.21502 217.283 6.57106Z" fill="#FFD234"/>
<mask id="mask0_4392_45208" style="mask-type:luminance" maskUnits="userSpaceOnUse" x="184" y="3" width="35" height="29">
<path d="M217.283 6.571C216.368 6.02124 215.209 6.32211 214.606 7.26414C214.143 7.98715 214.109 8.89136 214.432 9.62413C214.584 9.97103 214.522 10.387 214.27 10.6533L208.77 16.4779C207.765 17.5429 206.113 17.1763 205.553 15.7634L202.902 9.08179C202.755 8.7127 202.856 8.28334 203.14 8.03332C203.731 7.5145 204.098 6.69347 204.05 5.77957C203.981 4.45215 203.019 3.36968 201.826 3.2774C200.423 3.1689 199.255 4.40217 199.255 5.93886C199.255 6.79516 199.618 7.55693 200.182 8.04501C200.463 8.28835 200.551 8.71931 200.407 9.08179L197.756 15.7633C197.195 17.1761 195.544 17.5427 194.538 16.4777L189.037 10.6512C188.784 10.3837 188.727 9.96696 188.88 9.61805C189.167 8.96185 189.172 8.16354 188.822 7.47127C188.308 6.45588 187.171 6.02218 186.206 6.47539C185.084 7.00222 184.615 8.46354 185.156 9.65105C185.497 10.3996 186.154 10.8531 186.855 10.9123C187.212 10.9425 187.512 11.2222 187.584 11.6126L189.978 24.5846C190.081 25.1394 190.498 25.554 191.005 25.6052C192.926 25.7994 197.671 26.224 201.654 26.224C206.83 26.224 210.686 25.8245 212.322 25.6231C212.82 25.5618 213.226 25.1509 213.327 24.605L215.723 11.6235C215.795 11.2307 216.094 10.9425 216.454 10.9121C217.086 10.8588 217.689 10.4854 218.055 9.84375C218.695 8.71945 218.354 7.21503 217.283 6.571ZM212.13 27.9972C209.954 28.2155 206.199 28.5077 201.654 28.5077C197.126 28.5077 193.36 28.2147 191.179 27.9963C190.168 27.8952 189.357 28.907 189.561 30.0118L189.561 30.0127C189.694 30.7361 190.236 31.2796 190.897 31.3499C194.167 31.6981 197.811 31.8927 201.654 31.8927C205.497 31.8927 209.142 31.6981 212.412 31.3499C213.073 31.2795 213.614 30.736 213.748 30.0127C213.952 28.9077 213.14 27.8958 212.13 27.9972Z" fill="white"/>
</mask>
<g mask="url(#mask0_4392_45208)">
<g opacity="0.2">
<path d="M222.458 -7.35996L187.73 49.6512C183.717 48.4736 180.295 45.6808 178.058 41.9368L212.535 -14.6737C216.599 -13.6586 220.104 -11.0005 222.458 -7.35996Z" fill="white"/>
<path d="M223.965 0.821701L196.367 46.4772C195.741 48.2281 194.597 48.5679 193.413 48.7705L224.052 -1.73145C224.292 -0.492422 224.422 0.791701 223.965 0.821701Z" fill="white"/>
<path d="M207.556 -14.8702L176.656 36.0442C176.362 34.6622 176.206 33.2207 176.206 31.739C176.206 30.6041 176.297 29.4929 176.472 28.4139L200.951 -12.2361C202.918 -13.5967 205.156 -14.516 207.556 -14.8702Z" fill="white"/>
</g>
</g>
<path opacity="0.15" d="M188.949 41.2019C198.587 41.2019 206.399 32.5149 206.399 21.7989C206.399 11.0829 198.587 2.39594 188.949 2.39594C179.311 2.39594 171.499 11.0829 171.499 21.7989C171.499 32.5149 179.311 41.2019 188.949 41.2019Z" fill="url(#paint0_radial_4392_45208)"/>
<path opacity="0.15" fill-rule="evenodd" clip-rule="evenodd" d="M207.826 5.35259C208.36 6.11208 200.33 14.0715 189.891 23.1306C179.453 32.1897 170.558 38.9179 170.025 38.1584C169.492 37.3989 177.522 29.4394 187.96 20.3804C198.399 11.3213 207.293 4.59316 207.826 5.35259Z" fill="url(#paint1_radial_4392_45208)"/>
<path opacity="0.15" fill-rule="evenodd" clip-rule="evenodd" d="M199.663 37.051C198.932 37.6847 193.533 31.3505 187.603 22.903C181.674 14.4555 177.458 7.09383 178.189 6.46002C178.919 5.82627 184.318 12.1605 190.248 20.608C196.178 29.0554 200.393 36.4171 199.663 37.051Z" fill="url(#paint2_radial_4392_45208)"/>
</g>
<path d="M30.2186 61.6567C30.2186 64.3792 29.0827 66.8543 27.2294 68.525C25.6751 70.01 23.5228 70.9381 21.2511 70.9381H6.30511V66.2974H21.2511C23.7022 66.2974 25.7348 64.1936 25.7348 61.6567C25.7348 59.0579 23.7022 57.016 21.2511 57.016H11.5661C9.59322 57.016 7.73992 56.2735 6.30511 55.0359C4.51159 53.489 3.31592 51.1377 3.31592 48.5389C3.31592 45.8782 4.51159 43.5269 6.30511 41.98C7.73992 40.7425 9.53343 40 11.5661 40H27.2294V44.6407H11.5661C9.47365 44.6407 7.85949 46.3733 7.85949 48.477C7.85949 50.5808 9.53343 52.3134 11.5661 52.3134H21.2511C23.5228 52.3134 25.6751 53.1796 27.2294 54.6647C29.0827 56.4591 30.2186 58.9341 30.2186 61.6567Z" fill="#005249"/>
<path d="M52.6376 40V52.3752H37.6916V40H33.2078V70.9381H37.6916V57.016H52.6376V70.9381H57.1214V40H52.6376Z" fill="#005249"/>
<path d="M90.0025 55.4691C90.0025 64.008 83.3067 70.9381 75.0565 70.9381C66.8063 70.9381 60.1105 64.008 60.1105 55.4691C60.1105 46.9301 66.8063 40 75.0565 40C78.3446 40 81.4534 41.1138 83.9643 43.0319C84.7415 43.6507 85.5187 44.3313 86.1763 45.1357C88.5676 47.8583 90.0025 51.509 90.0025 55.4691Z" fill="#00A85B"/>
<path d="M83.9643 43.0319L73.4423 58.5629L68.5401 55.0359L66.8063 57.5729L74.1597 62.8942L86.1763 45.1976C85.4589 44.3313 84.7415 43.6507 83.9643 43.0319Z" fill="#F9FAFB"/>
<path d="M113.916 40H90.0025V44.6407H99.6874V70.9381H104.231V44.6407H113.916V40Z" fill="#005249"/>
<path d="M136.335 40V52.3752H121.389V40H116.905V70.9381H121.389V57.016H136.335V70.9381H140.819V40H136.335Z" fill="#005249"/>
<path d="M148.292 40H143.808V70.9381H148.292V40Z" fill="#005249"/>
<path d="M162.46 54.6647L176.689 40H170.711L159.531 51.6327L156.542 54.7265L155.765 55.5928V40H151.281V70.9381H155.765V61.5948L159.471 57.7585L172.205 70.9381H178.184L162.46 54.6647Z" fill="#005249"/>
<path d="M220 46.2495V71H184.907L169.184 54.7265L183.412 40H214.021C217.31 40.0619 220 42.8463 220 46.2495Z" fill="#00AB55"/>
<path d="M212.527 44.7026H209.418V66.3593H212.527V44.7026Z" fill="#00AB55"/>
<path d="M198.537 45.0739L198.418 44.7026H195.309L195.19 45.0739L186.7 66.3593H190.108L192.738 59.8623H201.168L203.798 66.3593H207.206L198.537 45.0739ZM193.934 56.5828L196.864 49.2814L199.793 56.5828H193.934Z" fill="#00AB55"/>
<path d="M211.143 45H208.034V66.6567H211.143V45Z" fill="white"/>
<path d="M197.153 45.3713L197.034 45H193.925L193.805 45.3713L185.316 66.6567H188.724L191.354 60.1597H199.784L202.414 66.6567H205.822L197.153 45.3713ZM192.55 56.8802L195.479 49.5788L198.409 56.8802H192.55Z" fill="white"/>
<path d="M103.604 86H99.6289V78.8613H103.604V79.5938H100.459V81.9033H103.423V82.626H100.459V85.2676H103.604V86ZM117.767 86H116.81L112.918 80.0039H112.879C112.889 80.1634 112.9 80.3457 112.913 80.5508C112.926 80.7526 112.936 80.9691 112.942 81.2002C112.952 81.4281 112.957 81.6608 112.957 81.8984V86H112.186V78.8613H113.138L117.015 84.8379H117.049C117.042 84.724 117.034 84.5628 117.024 84.3545C117.015 84.1429 117.005 83.9167 116.995 83.6758C116.989 83.4316 116.985 83.2054 116.985 82.9971V78.8613H117.767V86ZM128.907 86H128.072V79.5938H125.826V78.8613H131.144V79.5938H128.907V86ZM143.197 86H139.223V78.8613H143.197V79.5938H140.053V81.9033H143.017V82.626H140.053V85.2676H143.197V86ZM153.708 78.8613C154.294 78.8613 154.777 78.9346 155.158 79.0811C155.542 79.2243 155.829 79.444 156.018 79.7402C156.206 80.0365 156.301 80.4141 156.301 80.873C156.301 81.2507 156.232 81.5664 156.096 81.8203C155.959 82.071 155.78 82.2744 155.559 82.4307C155.337 82.5869 155.101 82.7074 154.851 82.792L156.809 86H155.842L154.094 83.0215H152.609V86H151.779V78.8613H153.708ZM153.659 79.5791H152.609V82.3184H153.742C154.325 82.3184 154.753 82.1995 155.026 81.9619C155.303 81.7243 155.441 81.3743 155.441 80.9121C155.441 80.4271 155.295 80.0837 155.002 79.8818C154.712 79.68 154.265 79.5791 153.659 79.5791ZM166.816 78.8613C167.738 78.8613 168.41 79.042 168.833 79.4033C169.259 79.7614 169.473 80.2757 169.473 80.9463C169.473 81.249 169.422 81.5371 169.321 81.8105C169.224 82.0807 169.064 82.32 168.843 82.5283C168.621 82.7334 168.33 82.8962 167.969 83.0166C167.611 83.1338 167.171 83.1924 166.65 83.1924H165.781V86H164.951V78.8613H166.816ZM166.738 79.5693H165.781V82.4795H166.558C167.013 82.4795 167.393 82.4307 167.695 82.333C168.001 82.2354 168.231 82.0775 168.384 81.8594C168.537 81.638 168.613 81.3451 168.613 80.9805C168.613 80.5052 168.462 80.152 168.159 79.9209C167.856 79.6865 167.383 79.5693 166.738 79.5693ZM179.896 78.8613C180.481 78.8613 180.965 78.9346 181.346 79.0811C181.73 79.2243 182.016 79.444 182.205 79.7402C182.394 80.0365 182.488 80.4141 182.488 80.873C182.488 81.2507 182.42 81.5664 182.283 81.8203C182.146 82.071 181.967 82.2744 181.746 82.4307C181.525 82.5869 181.289 82.7074 181.038 82.792L182.996 86H182.029L180.281 83.0215H178.797V86H177.967V78.8613H179.896ZM179.847 79.5791H178.797V82.3184H179.93C180.512 82.3184 180.94 82.1995 181.214 81.9619C181.491 81.7243 181.629 81.3743 181.629 80.9121C181.629 80.4271 181.482 80.0837 181.189 79.8818C180.9 79.68 180.452 79.5791 179.847 79.5791ZM191.139 86V78.8613H191.969V86H191.139ZM204.96 84.1006C204.96 84.5238 204.854 84.8851 204.643 85.1846C204.434 85.4808 204.141 85.707 203.764 85.8633C203.386 86.0195 202.942 86.0977 202.431 86.0977C202.16 86.0977 201.905 86.0846 201.664 86.0586C201.423 86.0326 201.202 85.9951 201 85.9463C200.798 85.8975 200.621 85.8372 200.468 85.7656V84.9697C200.712 85.0706 201.01 85.165 201.361 85.2529C201.713 85.3376 202.081 85.3799 202.465 85.3799C202.823 85.3799 203.126 85.3327 203.373 85.2383C203.62 85.1406 203.808 85.0023 203.935 84.8232C204.065 84.641 204.13 84.4229 204.13 84.1689C204.13 83.9248 204.076 83.7214 203.969 83.5586C203.861 83.3926 203.682 83.2428 203.432 83.1094C203.184 82.9727 202.846 82.8278 202.416 82.6748C202.113 82.5674 201.846 82.4502 201.615 82.3232C201.384 82.193 201.19 82.0465 201.034 81.8838C200.878 81.721 200.759 81.5322 200.678 81.3174C200.6 81.1025 200.561 80.8568 200.561 80.5801C200.561 80.1992 200.657 79.8737 200.849 79.6035C201.044 79.3301 201.312 79.1217 201.654 78.9785C201.999 78.832 202.395 78.7588 202.841 78.7588C203.222 78.7588 203.573 78.7946 203.896 78.8662C204.221 78.9378 204.519 79.0339 204.789 79.1543L204.53 79.8672C204.273 79.7598 204 79.6702 203.71 79.5986C203.424 79.527 203.127 79.4912 202.821 79.4912C202.515 79.4912 202.257 79.5368 202.045 79.6279C201.837 79.7158 201.677 79.8411 201.566 80.0039C201.456 80.1667 201.4 80.3604 201.4 80.585C201.4 80.8356 201.452 81.0439 201.557 81.21C201.664 81.376 201.833 81.5241 202.064 81.6543C202.299 81.7812 202.608 81.9147 202.992 82.0547C203.412 82.2077 203.769 82.3704 204.062 82.543C204.354 82.7122 204.577 82.9206 204.73 83.168C204.883 83.4121 204.96 83.723 204.96 84.1006ZM217.395 86H213.42V78.8613H217.395V79.5938H214.25V81.9033H217.214V82.626H214.25V85.2676H217.395V86Z" fill="#FF5858"/>
<defs>
<radialGradient id="paint0_radial_4392_45208" cx="0" cy="0" r="1" gradientTransform="matrix(2.13519 -19.2572 17.3193 2.37409 188.949 21.799)" gradientUnits="userSpaceOnUse">
<stop offset="0.0503" stop-color="white"/>
<stop offset="0.1895" stop-color="white"/>
<stop offset="1" stop-color="white"/>
</radialGradient>
<radialGradient id="paint1_radial_4392_45208" cx="0" cy="0" r="1" gradientTransform="matrix(18.9068 -16.4078 0.96441 1.37523 188.926 21.7555)" gradientUnits="userSpaceOnUse">
<stop offset="0.0503" stop-color="white"/>
<stop offset="0.1895" stop-color="white"/>
<stop offset="1" stop-color="white"/>
</radialGradient>
<radialGradient id="paint2_radial_4392_45208" cx="0" cy="0" r="1" gradientTransform="matrix(10.74 15.2997 -1.32208 1.14692 188.926 21.7555)" gradientUnits="userSpaceOnUse">
<stop offset="0.0503" stop-color="white"/>
<stop offset="0.1895" stop-color="white"/>
<stop offset="1" stop-color="white"/>
</radialGradient>
<clipPath id="clip0_4392_45208">
<rect width="36" height="36" fill="white" transform="translate(184)"/>
</clipPath>
</defs>
</svg>
