<svg width="220" height="89" viewBox="0 0 220 89" fill="none" xmlns="http://www.w3.org/2000/svg">
<g clip-path="url(#clip0_4652_47634)">
<path d="M201.356 28.447C196.746 28.447 192.913 28.1487 190.692 27.9265C189.664 27.8236 188.838 28.8534 189.046 29.978L189.046 29.9789C189.182 30.7152 189.733 31.2685 190.406 31.3401C193.734 31.6945 197.444 31.8925 201.356 31.8925C205.267 31.8925 208.977 31.6945 212.305 31.3401C212.978 31.2684 213.529 30.7152 213.665 29.9789C213.873 28.8541 213.047 27.8242 212.018 27.9274C209.804 28.1496 205.982 28.447 201.356 28.447Z" fill="#FFFFC8"/>
<path d="M217.264 6.11808C216.333 5.5585 215.152 5.86471 214.539 6.82365C214.068 7.55962 214.033 8.47993 214.361 9.22579C214.516 9.57891 214.453 10.0023 214.197 10.2734L208.599 16.2021C207.575 17.2862 205.894 16.913 205.324 15.4748L202.625 8.67369C202.476 8.29806 202.578 7.86095 202.868 7.60652C203.47 7.07841 203.843 6.24269 203.794 5.31248C203.723 3.96128 202.745 2.85949 201.53 2.76555C200.102 2.65517 198.913 3.9105 198.913 5.47465C198.913 6.34632 199.282 7.12164 199.857 7.61842C200.143 7.8661 200.232 8.30474 200.086 8.67376L197.387 15.4747C196.817 16.9128 195.136 17.2861 194.112 16.2019L188.512 10.2712C188.255 9.99885 188.197 9.5747 188.352 9.21951C188.644 8.55162 188.65 7.73902 188.293 7.03438C187.77 6.00082 186.613 5.55937 185.63 6.02073C184.488 6.55699 184.011 8.04436 184.562 9.25319C184.908 10.0151 185.577 10.4766 186.291 10.537C186.655 10.5677 186.96 10.8524 187.034 11.2498L189.471 24.4539C189.575 25.0187 189.999 25.4405 190.516 25.4927C192.471 25.6904 197.301 26.1226 201.355 26.1226C206.623 26.1226 210.549 25.7159 212.213 25.511C212.721 25.4485 213.134 25.0303 213.236 24.4747L215.675 11.2609C215.749 10.8611 216.054 10.5677 216.42 10.5368C217.063 10.4825 217.677 10.1025 218.049 9.44935C218.701 8.30487 218.354 6.77354 217.264 6.11808Z" fill="#FFFFC8"/>
<path d="M202.112 29.0814C197.539 29.0814 193.735 28.7854 191.532 28.5649C190.512 28.4628 189.692 29.4846 189.898 30.6004L189.898 30.6012C190.033 31.3318 190.58 31.8806 191.248 31.9518C194.55 32.3034 198.231 32.4999 202.112 32.4999C205.993 32.4999 209.673 32.3034 212.975 31.9518C213.643 31.8807 214.19 31.3318 214.325 30.6012C214.531 29.4853 213.711 28.4634 212.691 28.5658C210.494 28.7863 206.702 29.0814 202.112 29.0814Z" fill="#DC781E"/>
<path d="M217.895 6.9274C216.971 6.37223 215.8 6.67604 215.191 7.62742C214.724 8.35758 214.689 9.27075 215.015 10.0108C215.169 10.3611 215.106 10.7812 214.852 11.0502L209.298 16.9325C208.282 18.0081 206.614 17.6377 206.048 16.2109L203.371 9.46298C203.223 9.09028 203.324 8.65658 203.612 8.40415C204.209 7.88018 204.579 7.05094 204.53 6.12809C204.46 4.7875 203.489 3.69427 202.285 3.60113C200.868 3.49162 199.688 4.73706 199.688 6.28904C199.688 7.15384 200.054 7.92315 200.624 8.41605C200.908 8.66179 200.997 9.09703 200.852 9.46318L198.174 16.2109C197.608 17.6377 195.94 18.008 194.925 16.9324L189.369 11.0482C189.113 10.778 189.056 10.3571 189.21 10.0047C189.5 9.34204 189.505 8.53584 189.151 7.83669C188.632 6.81121 187.484 6.37323 186.509 6.83098C185.376 7.36303 184.903 8.83878 185.449 10.0381C185.793 10.7941 186.457 11.252 187.165 11.3119C187.526 11.3424 187.829 11.6249 187.902 12.0192L190.32 25.1197C190.423 25.6801 190.844 26.0987 191.357 26.1505C193.296 26.3466 198.088 26.7754 202.111 26.7754C207.338 26.7754 211.233 26.372 212.884 26.1686C213.387 26.1067 213.797 25.6917 213.899 25.1404L216.319 12.0302C216.392 11.6335 216.694 11.3424 217.057 11.3118C217.696 11.258 218.305 10.8809 218.674 10.2329C219.321 9.0971 218.977 7.57778 217.895 6.9274Z" fill="#DC781E"/>
<path d="M201.654 28.5076C197.126 28.5076 193.36 28.2146 191.179 27.9962C190.168 27.8952 189.357 28.9069 189.561 30.0117L189.561 30.0126C189.695 30.736 190.236 31.2795 190.897 31.3498C194.167 31.698 197.812 31.8926 201.655 31.8926C205.498 31.8926 209.142 31.698 212.412 31.3498C213.073 31.2794 213.614 30.7359 213.748 30.0126C213.952 28.9076 213.14 27.8958 212.13 27.9971C209.954 28.2155 206.2 28.5076 201.654 28.5076Z" fill="#FFD234"/>
<path d="M217.283 6.57106C216.369 6.0213 215.209 6.32217 214.606 7.2642C214.144 7.98721 214.109 8.89142 214.432 9.62412C214.584 9.97103 214.522 10.387 214.271 10.6533L208.771 16.4779C207.765 17.5429 206.114 17.1763 205.553 15.7634L202.902 9.08171C202.755 8.71269 202.856 8.28327 203.141 8.03331C203.732 7.51449 204.098 6.6934 204.05 5.77956C203.981 4.45214 203.019 3.36967 201.826 3.2774C200.423 3.16895 199.255 4.40223 199.255 5.93892C199.255 6.79522 199.618 7.55699 200.182 8.045C200.463 8.28835 200.551 8.71931 200.407 9.08185L197.756 15.7633C197.196 17.1761 195.544 17.5428 194.539 16.4778L189.037 10.6513C188.784 10.3837 188.728 9.96701 188.88 9.6181C189.167 8.96198 189.172 8.16367 188.822 7.47133C188.308 6.45594 187.171 6.02224 186.206 6.47551C185.084 7.00235 184.615 8.4636 185.156 9.65118C185.497 10.3997 186.154 10.8532 186.855 10.9125C187.213 10.9427 187.513 11.2223 187.585 11.6128L189.979 24.5848C190.081 25.1396 190.498 25.5541 191.006 25.6054C192.926 25.7996 197.671 26.2243 201.655 26.2243C206.83 26.2243 210.687 25.8248 212.322 25.6234C212.82 25.562 213.226 25.1511 213.327 24.6053L215.723 11.6237C215.796 11.2309 216.095 10.9427 216.454 10.9123C217.087 10.859 217.689 10.4856 218.055 9.84394C218.695 8.71944 218.355 7.21502 217.283 6.57106Z" fill="#FFD234"/>
<mask id="mask0_4652_47634" style="mask-type:luminance" maskUnits="userSpaceOnUse" x="184" y="3" width="35" height="29">
<path d="M217.283 6.571C216.369 6.02124 215.209 6.32211 214.606 7.26414C214.144 7.98715 214.109 8.89136 214.432 9.62413C214.584 9.97103 214.522 10.387 214.271 10.6533L208.771 16.4779C207.765 17.5429 206.114 17.1763 205.553 15.7634L202.902 9.08179C202.755 8.7127 202.856 8.28334 203.141 8.03332C203.732 7.5145 204.098 6.69347 204.05 5.77957C203.981 4.45215 203.019 3.36968 201.826 3.2774C200.423 3.1689 199.255 4.40217 199.255 5.93886C199.255 6.79516 199.618 7.55693 200.182 8.04501C200.463 8.28835 200.551 8.71931 200.407 9.08179L197.756 15.7633C197.196 17.1761 195.544 17.5427 194.539 16.4777L189.037 10.6512C188.784 10.3837 188.728 9.96696 188.88 9.61805C189.167 8.96185 189.172 8.16354 188.822 7.47127C188.308 6.45588 187.171 6.02218 186.206 6.47539C185.084 7.00222 184.615 8.46354 185.156 9.65105C185.497 10.3996 186.154 10.8531 186.855 10.9123C187.213 10.9425 187.513 11.2222 187.585 11.6126L189.979 24.5846C190.081 25.1394 190.498 25.554 191.006 25.6052C192.926 25.7994 197.671 26.224 201.655 26.224C206.83 26.224 210.687 25.8245 212.322 25.6231C212.82 25.5618 213.226 25.1509 213.327 24.605L215.723 11.6235C215.795 11.2307 216.095 10.9425 216.454 10.9121C217.087 10.8588 217.689 10.4854 218.055 9.84375C218.695 8.71945 218.355 7.21503 217.283 6.571ZM212.13 27.9972C209.954 28.2155 206.2 28.5077 201.655 28.5077C197.127 28.5077 193.361 28.2147 191.179 27.9963C190.169 27.8952 189.357 28.907 189.561 30.0118L189.561 30.0127C189.695 30.7361 190.236 31.2796 190.897 31.3499C194.167 31.6981 197.812 31.8927 201.655 31.8927C205.498 31.8927 209.142 31.6981 212.412 31.3499C213.073 31.2795 213.614 30.736 213.748 30.0127C213.952 28.9077 213.14 27.8958 212.13 27.9972Z" fill="white"/>
</mask>
<g mask="url(#mask0_4652_47634)">
<g opacity="0.2">
<path d="M222.458 -7.35996L187.73 49.6512C183.718 48.4736 180.295 45.6808 178.058 41.9368L212.535 -14.6737C216.599 -13.6586 220.105 -11.0005 222.458 -7.35996Z" fill="white"/>
<path d="M223.965 0.821701L196.367 46.4772C195.741 48.2281 194.597 48.5679 193.413 48.7705L224.051 -1.73145C224.292 -0.492422 224.422 0.791701 223.965 0.821701Z" fill="white"/>
<path d="M207.556 -14.8702L176.656 36.0442C176.362 34.6622 176.206 33.2207 176.206 31.739C176.206 30.6041 176.297 29.4929 176.472 28.4139L200.951 -12.2361C202.918 -13.5967 205.156 -14.516 207.556 -14.8702Z" fill="white"/>
</g>
</g>
<path opacity="0.15" d="M188.949 41.2019C198.587 41.2019 206.4 32.5149 206.4 21.7989C206.4 11.0829 198.587 2.39594 188.949 2.39594C179.312 2.39594 171.499 11.0829 171.499 21.7989C171.499 32.5149 179.312 41.2019 188.949 41.2019Z" fill="url(#paint0_radial_4652_47634)"/>
</g>
<path d="M30.2186 61.6567C30.2186 64.3792 29.0827 66.8543 27.2294 68.525C25.6751 70.01 23.5228 70.9381 21.2511 70.9381H6.30511V66.2974H21.2511C23.7022 66.2974 25.7348 64.1936 25.7348 61.6567C25.7348 59.0579 23.7022 57.016 21.2511 57.016H11.5661C9.59322 57.016 7.73992 56.2735 6.30511 55.0359C4.51159 53.489 3.31592 51.1377 3.31592 48.5389C3.31592 45.8782 4.51159 43.5269 6.30511 41.98C7.73992 40.7425 9.53343 40 11.5661 40H27.2294V44.6407H11.5661C9.47365 44.6407 7.85949 46.3733 7.85949 48.477C7.85949 50.5808 9.53343 52.3134 11.5661 52.3134H21.2511C23.5228 52.3134 25.6751 53.1796 27.2294 54.6647C29.0827 56.4591 30.2186 58.9341 30.2186 61.6567Z" fill="#007867"/>
<path d="M52.6376 40V52.3752H37.6916V40H33.2078V70.9381H37.6916V57.016H52.6376V70.9381H57.1214V40H52.6376Z" fill="#007867"/>
<path d="M90.0025 55.4691C90.0025 64.008 83.3067 70.9381 75.0565 70.9381C66.8063 70.9381 60.1105 64.008 60.1105 55.4691C60.1105 46.9301 66.8063 40 75.0565 40C78.3446 40 81.4534 41.1138 83.9643 43.0319C84.7415 43.6507 85.5187 44.3313 86.1763 45.1357C88.5676 47.8583 90.0025 51.509 90.0025 55.4691Z" fill="#00A85B"/>
<path d="M83.9643 43.0319L73.4423 58.5629L68.5401 55.0359L66.8063 57.5729L74.1597 62.8942L86.1763 45.1976C85.4589 44.3313 84.7415 43.6507 83.9643 43.0319Z" fill="#F9FAFB"/>
<path d="M113.916 40H90.0025V44.6407H99.6874V70.9381H104.231V44.6407H113.916V40Z" fill="#007867"/>
<path d="M136.335 40V52.3752H121.389V40H116.905V70.9381H121.389V57.016H136.335V70.9381H140.819V40H136.335Z" fill="#007867"/>
<path d="M148.292 40H143.808V70.9381H148.292V40Z" fill="#007867"/>
<path d="M162.46 54.6647L176.689 40H170.711L159.531 51.6327L156.542 54.7265L155.765 55.5928V40H151.281V70.9381H155.765V61.5948L159.471 57.7585L172.205 70.9381H178.184L162.46 54.6647Z" fill="#007867"/>
<path d="M220 46.2495V71H184.907L169.184 54.7265L183.412 40H214.021C217.31 40.0619 220 42.8463 220 46.2495Z" fill="#00AB55"/>
<path d="M212.527 44.7026H209.418V66.3593H212.527V44.7026Z" fill="#00AB55"/>
<path d="M198.537 45.0739L198.418 44.7026H195.309L195.19 45.0739L186.7 66.3593H190.108L192.738 59.8623H201.168L203.798 66.3593H207.206L198.537 45.0739ZM193.934 56.5828L196.864 49.2814L199.793 56.5828H193.934Z" fill="#00AB55"/>
<path d="M211.143 45H208.034V66.6567H211.143V45Z" fill="white"/>
<path d="M197.153 45.3713L197.034 45H193.925L193.805 45.3713L185.316 66.6567H188.724L191.354 60.1597H199.784L202.414 66.6567H205.822L197.153 45.3713ZM192.55 56.8802L195.479 49.5788L198.409 56.8802H192.55Z" fill="white"/>
<path d="M115.335 78.8613V83.4805C115.335 84.2943 115.089 84.9339 114.598 85.3994C114.106 85.8649 113.431 86.0977 112.571 86.0977C111.712 86.0977 111.046 85.8633 110.574 85.3945C110.105 84.9258 109.871 84.2812 109.871 83.4609V78.8613H110.701V83.5195C110.701 84.1152 110.864 84.5726 111.189 84.8916C111.515 85.2106 111.993 85.3701 112.625 85.3701C113.227 85.3701 113.691 85.2106 114.017 84.8916C114.342 84.5693 114.505 84.1087 114.505 83.5098V78.8613H115.335ZM129.806 86H128.858L124.957 80.0088H124.918C124.97 80.7119 124.996 81.3564 124.996 81.9424V86H124.229V78.8613H125.167L129.059 84.8281H129.098C129.091 84.7402 129.076 84.4587 129.054 83.9834C129.031 83.5049 129.023 83.1631 129.029 82.958V78.8613H129.806V86ZM138.769 86V78.8613H139.599V85.248H142.748V86H138.769ZM150.964 86V78.8613H151.794V86H150.964ZM163.916 86L161.494 79.6719H161.455C161.501 80.1732 161.523 80.7689 161.523 81.459V86H160.757V78.8613H162.007L164.268 84.75H164.307L166.587 78.8613H167.827V86H166.997V81.4004C166.997 80.873 167.02 80.3001 167.065 79.6816H167.026L164.585 86H163.916ZM176.79 86V78.8613H177.62V86H176.79ZM188.78 86H187.95V79.5986H185.689V78.8613H191.041V79.5986H188.78V86ZM203.1 86H199.12V78.8613H203.1V79.5986H199.95V81.8984H202.909V82.6309H199.95V85.2578H203.1V86ZM217.385 82.3623C217.385 83.5407 217.064 84.4424 216.423 85.0674C215.785 85.6891 214.865 86 213.664 86H211.687V78.8613H213.874C214.984 78.8613 215.847 79.1689 216.462 79.7842C217.077 80.3994 217.385 81.2588 217.385 82.3623ZM216.506 82.3916C216.506 81.4606 216.271 80.7591 215.803 80.2871C215.337 79.8151 214.644 79.5791 213.723 79.5791H212.517V85.2822H213.527C214.517 85.2822 215.261 85.0397 215.759 84.5547C216.257 84.0664 216.506 83.3454 216.506 82.3916Z" fill="#E852FF"/>
<defs>
<radialGradient id="paint0_radial_4652_47634" cx="0" cy="0" r="1" gradientTransform="matrix(2.13519 -19.2572 17.3193 2.37409 188.949 21.799)" gradientUnits="userSpaceOnUse">
<stop offset="0.0503" stop-opacity="0.05"/>
<stop offset="0.1895" stop-opacity="0.05"/>
<stop offset="1" stop-opacity="0.05"/>
</radialGradient>
<clipPath id="clip0_4652_47634">
<rect width="36" height="36" fill="white" transform="translate(184)"/>
</clipPath>
</defs>
</svg>
