<svg width="217" height="85" viewBox="0 0 217 85" fill="none" xmlns="http://www.w3.org/2000/svg">
<g clip-path="url(#clip0_4652_47574)">
<path d="M198.04 28.4471C193.431 28.4471 189.597 28.1487 187.377 27.9265C186.348 27.8236 185.522 28.8534 185.73 29.9781L185.73 29.9789C185.866 30.7153 186.417 31.2685 187.09 31.3401C190.418 31.6945 194.128 31.8925 198.04 31.8925C201.951 31.8925 205.661 31.6945 208.989 31.3401C209.662 31.2684 210.213 30.7153 210.349 29.9789C210.557 28.8542 209.731 27.8242 208.702 27.9274C206.488 28.1496 202.666 28.4471 198.04 28.4471Z" fill="#FFFFC8"/>
<path d="M213.948 6.11811C213.017 5.55853 211.836 5.86474 211.223 6.82368C210.752 7.55965 210.717 8.47996 211.045 9.22582C211.2 9.57894 211.137 10.0023 210.881 10.2734L205.283 16.2021C204.259 17.2862 202.578 16.913 202.008 15.4749L199.309 8.67372C199.16 8.29809 199.262 7.86098 199.552 7.60655C200.154 7.07844 200.527 6.24272 200.478 5.31251C200.407 3.96131 199.429 2.85952 198.214 2.76558C196.786 2.6552 195.597 3.91053 195.597 5.47468C195.597 6.34635 195.966 7.12167 196.541 7.61845C196.827 7.86613 196.916 8.30477 196.77 8.67379L194.071 15.4747C193.501 16.9129 191.82 17.2861 190.796 16.2019L185.196 10.2712C184.939 9.99888 184.881 9.57473 185.036 9.21954C185.328 8.55165 185.334 7.73905 184.977 7.03441C184.454 6.00085 183.297 5.5594 182.315 6.02076C181.172 6.55702 180.695 8.04439 181.246 9.25322C181.593 10.0152 182.261 10.4767 182.975 10.537C183.339 10.5677 183.644 10.8524 183.718 11.2499L186.155 24.4539C186.259 25.0187 186.683 25.4406 187.2 25.4928C189.155 25.6904 193.985 26.1226 198.039 26.1226C203.307 26.1226 207.233 25.716 208.898 25.511C209.405 25.4485 209.818 25.0303 209.92 24.4747L212.359 11.261C212.433 10.8611 212.738 10.5677 213.104 10.5369C213.748 10.4825 214.361 10.1026 214.733 9.44938C215.385 8.3049 215.038 6.77357 213.948 6.11811Z" fill="#FFFFC8"/>
<path d="M198.796 29.0814C194.223 29.0814 190.419 28.7854 188.216 28.5649C187.196 28.4629 186.376 29.4847 186.582 30.6004L186.582 30.6013C186.717 31.3318 187.264 31.8807 187.932 31.9518C191.234 32.3034 194.915 32.4999 198.796 32.4999C202.677 32.4999 206.358 32.3034 209.659 31.9518C210.327 31.8807 210.874 31.3318 211.009 30.6013C211.215 29.4853 210.395 28.4635 209.375 28.5658C207.178 28.7863 203.386 29.0814 198.796 29.0814Z" fill="#DC781E"/>
<path d="M214.579 6.92743C213.655 6.37226 212.484 6.67607 211.875 7.62745C211.408 8.35761 211.373 9.27078 211.699 10.0108C211.853 10.3611 211.79 10.7813 211.536 11.0502L205.982 16.9325C204.966 18.0081 203.298 17.6377 202.732 16.211L200.055 9.46301C199.907 9.09031 200.009 8.65661 200.296 8.40418C200.893 7.88021 201.263 7.05097 201.215 6.12812C201.144 4.78753 200.173 3.6943 198.969 3.60116C197.552 3.49165 196.372 4.73709 196.372 6.28908C196.372 7.15387 196.738 7.92318 197.308 8.41608C197.592 8.66182 197.681 9.09706 197.536 9.46321L194.858 16.2109C194.292 17.6377 192.624 18.008 191.609 16.9324L186.053 11.0482C185.797 10.778 185.74 10.3571 185.894 10.0047C186.184 9.34207 186.189 8.53587 185.835 7.83672C185.316 6.81124 184.168 6.37326 183.194 6.83101C182.06 7.36306 181.587 8.83882 182.133 10.0382C182.477 10.7942 183.141 11.2521 183.849 11.3119C184.21 11.3425 184.513 11.6249 184.586 12.0192L187.004 25.1198C187.107 25.6801 187.528 26.0987 188.041 26.1505C189.98 26.3466 194.772 26.7755 198.795 26.7755C204.022 26.7755 207.917 26.372 209.568 26.1686C210.071 26.1067 210.481 25.6917 210.583 25.1404L213.003 12.0302C213.076 11.6336 213.378 11.3425 213.741 11.3119C214.38 11.258 214.989 10.881 215.358 10.2329C216.005 9.09713 215.661 7.57781 214.579 6.92743Z" fill="#DC781E"/>
<path d="M198.339 28.5076C193.81 28.5076 190.044 28.2146 187.863 27.9962C186.853 27.8952 186.041 28.9069 186.245 30.0117L186.245 30.0126C186.379 30.736 186.92 31.2795 187.581 31.3498C190.851 31.698 194.496 31.8926 198.339 31.8926C202.182 31.8926 205.826 31.698 209.096 31.3498C209.757 31.2794 210.299 30.7359 210.432 30.0126C210.636 28.9076 209.824 27.8958 208.814 27.9971C206.638 28.2155 202.884 28.5076 198.339 28.5076Z" fill="#FFD234"/>
<path d="M213.967 6.571C213.053 6.02124 211.893 6.32211 211.29 7.26414C210.828 7.98715 210.793 8.89136 211.116 9.62406C211.268 9.97096 211.206 10.3869 210.955 10.6533L205.455 16.4778C204.449 17.5429 202.798 17.1762 202.237 15.7633L199.586 9.08165C199.44 8.71263 199.54 8.28321 199.825 8.03325C200.416 7.51443 200.782 6.69334 200.734 5.7795C200.665 4.45208 199.703 3.36961 198.51 3.27733C197.108 3.16889 195.939 4.40217 195.939 5.93886C195.939 6.79516 196.302 7.55692 196.866 8.04494C197.148 8.28828 197.235 8.71924 197.092 9.08178L194.44 15.7633C193.88 17.1761 192.228 17.5427 191.223 16.4777L185.721 10.6512C185.469 10.3836 185.412 9.96695 185.564 9.61804C185.851 8.96192 185.856 8.16361 185.506 7.47127C184.992 6.45587 183.855 6.02218 182.89 6.47545C181.768 7.00229 181.299 8.46354 181.84 9.65112C182.181 10.3996 182.838 10.8531 183.539 10.9124C183.897 10.9426 184.197 11.2223 184.269 11.6127L186.663 24.5847C186.765 25.1396 187.182 25.554 187.69 25.6053C189.61 25.7995 194.355 26.2242 198.339 26.2242C203.514 26.2242 207.371 25.8247 209.006 25.6233C209.504 25.562 209.91 25.1511 210.011 24.6052L212.407 11.6236C212.48 11.2308 212.779 10.9426 213.138 10.9123C213.771 10.8589 214.374 10.4856 214.739 9.84388C215.38 8.71938 215.039 7.21496 213.967 6.571Z" fill="#FFD234"/>
<mask id="mask0_4652_47574" style="mask-type:luminance" maskUnits="userSpaceOnUse" x="181" y="3" width="35" height="29">
<path d="M213.967 6.57097C213.053 6.02121 211.893 6.32208 211.29 7.26411C210.828 7.98712 210.793 8.89133 211.116 9.6241C211.268 9.971 211.206 10.3869 210.955 10.6533L205.455 16.4779C204.449 17.5429 202.798 17.1762 202.237 15.7634L199.586 9.08176C199.439 8.71267 199.54 8.28331 199.825 8.03329C200.416 7.51447 200.782 6.69344 200.734 5.77954C200.665 4.45212 199.703 3.36964 198.51 3.27737C197.107 3.16886 195.939 4.40214 195.939 5.93883C195.939 6.79513 196.302 7.5569 196.866 8.04498C197.147 8.28832 197.235 8.71928 197.091 9.08176L194.44 15.7632C193.88 17.176 192.228 17.5427 191.223 16.4777L185.721 10.6512C185.468 10.3836 185.412 9.96693 185.564 9.61802C185.851 8.96182 185.856 8.16351 185.506 7.47124C184.992 6.45585 183.855 6.02215 182.89 6.47536C181.768 7.00219 181.299 8.46351 181.84 9.65102C182.181 10.3996 182.838 10.853 183.539 10.9122C183.897 10.9425 184.197 11.2222 184.269 11.6126L186.663 24.5846C186.765 25.1394 187.182 25.5539 187.69 25.6052C189.61 25.7994 194.355 26.224 198.339 26.224C203.514 26.224 207.371 25.8245 209.006 25.6231C209.504 25.5618 209.91 25.1508 210.011 24.605L212.407 11.6235C212.48 11.2307 212.779 10.9424 213.138 10.9121C213.771 10.8588 214.373 10.4854 214.739 9.84372C215.38 8.71942 215.039 7.215 213.967 6.57097ZM208.814 27.9972C206.639 28.2155 202.884 28.5077 198.339 28.5077C193.811 28.5077 190.045 28.2147 187.863 27.9963C186.853 27.8952 186.041 28.9069 186.245 30.0118L186.245 30.0127C186.379 30.7361 186.92 31.2795 187.582 31.3499C190.851 31.6981 194.496 31.8926 198.339 31.8926C202.182 31.8926 205.826 31.6981 209.096 31.3499C209.757 31.2795 210.299 30.736 210.432 30.0127C210.636 28.9077 209.824 27.8957 208.814 27.9972Z" fill="white"/>
</mask>
<g mask="url(#mask0_4652_47574)">
<g opacity="0.2">
<path d="M219.142 -7.35996L184.414 49.6512C180.402 48.4736 176.979 45.6808 174.742 41.9368L209.219 -14.6737C213.283 -13.6586 216.789 -11.0005 219.142 -7.35996Z" fill="white"/>
<path d="M220.649 0.82167L193.051 46.4772C192.425 48.228 191.281 48.5678 190.097 48.7704L220.735 -1.73148C220.976 -0.492452 221.106 0.79167 220.649 0.82167Z" fill="white"/>
<path d="M204.24 -14.8702L173.34 36.0442C173.046 34.6622 172.89 33.2207 172.89 31.739C172.89 30.6041 172.981 29.4929 173.156 28.4139L197.635 -12.2361C199.602 -13.5967 201.84 -14.516 204.24 -14.8702Z" fill="white"/>
</g>
</g>
<path opacity="0.15" d="M185.633 41.2019C195.271 41.2019 203.084 32.5149 203.084 21.7989C203.084 11.0829 195.271 2.39594 185.633 2.39594C175.996 2.39594 168.183 11.0829 168.183 21.7989C168.183 32.5149 175.996 41.2019 185.633 41.2019Z" fill="url(#paint0_radial_4652_47574)"/>
</g>
<path d="M26.9027 57.6567C26.9027 60.3792 25.7668 62.8543 23.9135 64.525C22.3591 66.01 20.2069 66.9381 17.9351 66.9381H2.98919V62.2974H17.9351C20.3863 62.2974 22.4189 60.1936 22.4189 57.6567C22.4189 55.0579 20.3863 53.016 17.9351 53.016H8.25017C6.2773 53.016 4.424 52.2735 2.98919 51.0359C1.19568 49.489 0 47.1377 0 44.5389C0 41.8782 1.19568 39.5269 2.98919 37.98C4.424 36.7425 6.21752 36 8.25017 36H23.9135V40.6407H8.25017C6.15773 40.6407 4.54357 42.3733 4.54357 44.477C4.54357 46.5808 6.21752 48.3134 8.25017 48.3134H17.9351C20.2069 48.3134 22.3591 49.1796 23.9135 50.6647C25.7668 52.4591 26.9027 54.9341 26.9027 57.6567Z" fill="#007867"/>
<path d="M49.3216 36V48.3752H34.3757V36H29.8919V66.9381H34.3757V53.016H49.3216V66.9381H53.8054V36H49.3216Z" fill="#007867"/>
<path d="M86.6865 51.4691C86.6865 60.008 79.9907 66.9381 71.7406 66.9381C63.4904 66.9381 56.7946 60.008 56.7946 51.4691C56.7946 42.9301 63.4904 36 71.7406 36C75.0287 36 78.1375 37.1138 80.6484 39.0319C81.4256 39.6507 82.2028 40.3313 82.8604 41.1357C85.2517 43.8583 86.6865 47.509 86.6865 51.4691Z" fill="#00A85B"/>
<path d="M80.6484 39.0319L70.1264 54.5629L65.2241 51.0359L63.4904 53.5729L70.8438 58.8942L82.8604 41.1976C82.143 40.3313 81.4256 39.6507 80.6484 39.0319Z" fill="#F9FAFB"/>
<path d="M110.6 36H86.6865V40.6407H96.3715V66.9381H100.915V40.6407H110.6V36Z" fill="#007867"/>
<path d="M133.019 36V48.3752H118.073V36H113.589V66.9381H118.073V53.016H133.019V66.9381H137.503V36H133.019Z" fill="#007867"/>
<path d="M144.976 36H140.492V66.9381H144.976V36Z" fill="#007867"/>
<path d="M159.145 50.6647L173.373 36H167.395L156.215 47.6327L153.226 50.7265L152.449 51.5928V36H147.965V66.9381H152.449V57.5948L156.155 53.7585L168.889 66.9381H174.868L159.145 50.6647Z" fill="#007867"/>
<path d="M216.684 42.2495V67H181.591L165.868 50.7265L180.096 36H210.706C213.994 36.0619 216.684 38.8463 216.684 42.2495Z" fill="#00AB55"/>
<path d="M209.211 40.7026H206.102V62.3593H209.211V40.7026Z" fill="#00AB55"/>
<path d="M195.222 41.0739L195.102 40.7026H191.993L191.874 41.0739L183.384 62.3593H186.792L189.423 55.8623H197.852L200.483 62.3593H203.89L195.222 41.0739ZM190.618 52.5828L193.548 45.2814L196.477 52.5828H190.618Z" fill="#00AB55"/>
<path d="M207.827 41H204.718V62.6567H207.827V41Z" fill="white"/>
<path d="M193.837 41.3713L193.718 41H190.609L190.489 41.3713L182 62.6567H185.408L188.038 56.1597H196.468L199.098 62.6567H202.506L193.837 41.3713ZM189.234 52.8802L192.163 45.5788L195.093 52.8802H189.234Z" fill="white"/>
<path d="M161.411 74.8613H162.304L159.731 82H158.911L156.352 74.8613H157.231L158.872 79.4805C159.06 80.0111 159.21 80.527 159.321 81.0283C159.438 80.501 159.591 79.9753 159.78 79.4512L161.411 74.8613ZM174.778 82L173.889 79.7295H171.028L170.149 82H169.309L172.131 74.832H172.83L175.637 82H174.778ZM173.63 78.9824L172.8 76.7705C172.693 76.4906 172.582 76.1471 172.468 75.7402C172.397 76.0527 172.294 76.3962 172.161 76.7705L171.321 78.9824H173.63ZM183.619 82V74.8613H184.449V81.248H187.598V82H183.619ZM201.205 74.8613V79.4805C201.205 80.2943 200.959 80.9339 200.467 81.3994C199.976 81.8649 199.3 82.0977 198.441 82.0977C197.582 82.0977 196.916 81.8633 196.444 81.3945C195.975 80.9258 195.741 80.2812 195.741 79.4609V74.8613H196.571V79.5195C196.571 80.1152 196.734 80.5726 197.059 80.8916C197.385 81.2106 197.863 81.3701 198.495 81.3701C199.097 81.3701 199.561 81.2106 199.886 80.8916C200.212 80.5693 200.375 80.1087 200.375 79.5098V74.8613H201.205ZM214.079 82H210.099V74.8613H214.079V75.5986H210.929V77.8984H213.888V78.6309H210.929V81.2578H214.079V82Z" fill="#A257FF"/>
<defs>
<radialGradient id="paint0_radial_4652_47574" cx="0" cy="0" r="1" gradientTransform="matrix(2.13519 -19.2572 17.3193 2.37409 185.633 21.799)" gradientUnits="userSpaceOnUse">
<stop offset="0.0503" stop-opacity="0.05"/>
<stop offset="0.1895" stop-opacity="0.05"/>
<stop offset="1" stop-opacity="0.05"/>
</radialGradient>
<clipPath id="clip0_4652_47574">
<rect width="36" height="36" fill="white" transform="translate(180.684)"/>
</clipPath>
</defs>
</svg>
