<svg width="30" height="33" viewBox="0 0 30 33" fill="none" xmlns="http://www.w3.org/2000/svg">
<path d="M15.0007 32.9808L10.3532 28.3333H3.44107C2.72301 28.3333 2.10898 28.0754 1.59898 27.5596C1.08898 27.044 0.833984 26.4329 0.833984 25.7263V2.60708C0.833984 1.88903 1.08898 1.275 1.59898 0.765C2.10898 0.254999 2.72301 0 3.44107 0H26.5602C27.2669 0 27.878 0.254999 28.3936 0.765C28.9094 1.275 29.1673 1.88903 29.1673 2.60708V25.7263C29.1673 26.4329 28.9094 27.044 28.3936 27.5596C27.878 28.0754 27.2669 28.3333 26.5602 28.3333H19.6482L15.0007 32.9808ZM15.0007 21.8804C17.2007 21.8804 19.0363 21.1078 20.5077 19.5625C21.9788 18.0172 22.7144 16.2186 22.7144 14.1667V6.45292H15.0007C12.9209 6.45292 11.1154 7.18847 9.58398 8.65958C8.0526 10.131 7.2869 11.9667 7.2869 14.1667C7.2869 14.9458 7.4176 15.7129 7.67898 16.4679C7.94037 17.2229 8.31218 17.969 8.7944 18.7063L7.76357 19.7213C7.54635 19.9385 7.43773 20.1842 7.43773 20.4583C7.43773 20.7325 7.54635 20.9782 7.76357 21.1954C7.98079 21.4126 8.2269 21.5172 8.5019 21.5092C8.77662 21.5008 9.0219 21.391 9.23773 21.1796L10.2432 20.2479C10.9434 20.7707 11.7073 21.1735 12.5348 21.4563C13.3626 21.739 14.1845 21.8804 15.0007 21.8804ZM16.6544 12.3046C16.8716 12.5218 16.9802 12.7744 16.9802 13.0625C16.9802 13.3506 16.8716 13.6032 16.6544 13.8204L12.5111 17.9638C12.2938 18.181 12.0468 18.2869 11.7698 18.2817C11.4929 18.2761 11.2458 18.1701 11.0286 17.9638C10.8169 17.7535 10.7055 17.5081 10.6944 17.2275C10.6836 16.9469 10.7838 16.701 10.9952 16.4896L15.1802 12.3046C15.3975 12.0874 15.6432 11.9788 15.9173 11.9788C16.1915 11.9788 16.4372 12.0874 16.6544 12.3046Z" fill="#00AB55"/>
</svg>
