<svg width="30" height="32" viewBox="0 0 30 32" fill="none" xmlns="http://www.w3.org/2000/svg">
<path d="M13.6973 31.2992L2.13732 24.6317C1.7226 24.3917 1.40162 24.0713 1.1744 23.6705C0.947457 23.2699 0.833984 22.8374 0.833984 22.373V9.29216C0.833984 8.82772 0.947457 8.39522 1.1744 7.99466C1.40162 7.59383 1.7226 7.27341 2.13732 7.03341L13.6973 0.365911C14.1137 0.133689 14.5497 0.0175781 15.0052 0.0175781C15.4608 0.0175781 15.8937 0.133689 16.304 0.365911L27.864 7.03341C28.2787 7.27341 28.5997 7.59383 28.8269 7.99466C29.0538 8.39522 29.1673 8.82772 29.1673 9.29216V22.373C29.1673 22.8374 29.0538 23.2699 28.8269 23.6705C28.5997 24.0713 28.2787 24.3917 27.864 24.6317L16.304 31.2992C15.8876 31.5315 15.4516 31.6476 14.9961 31.6476C14.5405 31.6476 14.1076 31.5315 13.6973 31.2992ZM13.9536 16.4267V29.0397L14.7761 29.5055C14.8511 29.5483 14.9259 29.5697 15.0007 29.5697C15.0754 29.5697 15.1502 29.5483 15.2252 29.5055L16.0477 29.0397V16.4222L27.0732 10.0334V9.19383C27.0732 9.14022 27.0598 9.08675 27.0332 9.03341C27.0065 8.98008 26.9665 8.9373 26.9132 8.90508L25.8844 8.32424L15.0007 14.6447L4.09982 8.32424L3.08815 8.8955C3.03482 8.92772 2.99482 8.9705 2.96815 9.02383C2.94148 9.07716 2.92815 9.13063 2.92815 9.18425V10.0505L13.9536 16.4267Z" fill="#00AB55"/>
</svg>
