<svg width="32" height="32" viewBox="0 0 32 32" fill="none" xmlns="http://www.w3.org/2000/svg">
<path d="M16.0575 29.4754C15.11 29.4754 14.3016 29.1446 13.6321 28.4829C12.9629 27.8212 12.6284 27.0185 12.6284 26.0746C12.6284 25.1307 12.9629 24.3225 13.6321 23.65C14.3016 22.9772 15.1097 22.6408 16.0567 22.6408L17.0692 21.6729C17.2942 21.4457 17.5574 21.265 17.8588 21.1308C18.1602 20.9967 18.4688 20.9296 18.7846 20.9296C19.4552 20.9296 20.0222 21.1703 20.4859 21.6517C20.9497 22.1331 21.1817 22.7021 21.1817 23.3587V24.1025C21.1817 24.6581 21.3725 25.1268 21.7542 25.5088C22.1361 25.8904 22.6049 26.0813 23.1604 26.0813C23.5871 26.0813 23.9711 25.9521 24.3125 25.6938C24.6536 25.4354 24.8953 25.1054 25.0375 24.7038L25.5554 23.2829C25.8054 22.5935 26.2089 22.0286 26.7659 21.5883C27.3231 21.1481 27.9753 20.9279 28.7225 20.9279C29.0314 20.1399 29.2761 19.3153 29.4567 18.4542C29.6372 17.5931 29.7275 16.7138 29.7275 15.8162C29.7275 13.2701 29.1017 10.9617 27.85 8.89083C26.5981 6.81972 24.9422 5.18014 22.8825 3.97208V5.55125C22.8825 6.4843 22.5488 7.28625 21.8813 7.95708C21.2135 8.62819 20.411 8.96375 19.4738 8.96375H17.7692V12.3933C17.7692 12.8619 17.6013 13.2642 17.2654 13.6C16.9296 13.9356 16.527 14.1033 16.0575 14.1033H14.3463V17.0004C14.3463 17.6238 14.1329 18.151 13.7063 18.5821C13.2799 19.0132 12.7539 19.2288 12.1284 19.2288C11.742 19.2288 11.381 19.1407 11.0454 18.9646C10.7096 18.7887 10.4388 18.5517 10.2329 18.2533L7.50044 14.1046H5.79294V15.8038C5.79294 16.6818 5.50364 17.4376 4.92503 18.0713C4.34669 18.7049 3.63989 19.0768 2.80461 19.1871C3.55655 22.1471 5.15711 24.6018 7.60628 26.5513C10.0554 28.5007 12.8725 29.4754 16.0575 29.4754ZM19.4804 19.2288C19.0013 19.2288 18.5963 19.0607 18.2654 18.7246C17.9346 18.3888 17.7692 17.9862 17.7692 17.5171C17.7692 17.0449 17.9346 16.6433 18.2654 16.3125C18.5963 15.9817 19.0013 15.8162 19.4804 15.8162H21.1713C21.6504 15.8162 22.0554 15.9817 22.3863 16.3125C22.7171 16.6433 22.8825 17.0449 22.8825 17.5171C22.8825 17.9893 22.7171 18.3926 22.3863 18.7271C22.0554 19.0615 21.6504 19.2288 21.1713 19.2288H19.4804ZM23.4584 14.1046C22.8986 14.1046 22.4486 13.8818 22.1084 13.4362C21.7684 12.991 21.6849 12.4992 21.8579 11.9608L22.5075 10.0921C22.63 9.74014 22.8338 9.46403 23.1188 9.26375C23.4035 9.06375 23.7111 8.96375 24.0417 8.96375C24.6045 8.96375 25.0559 9.18653 25.3959 9.63208C25.7359 10.0776 25.8209 10.569 25.6509 11.1062L24.9863 12.9767C24.8638 13.3283 24.6625 13.6043 24.3825 13.8046C24.1025 14.0046 23.7945 14.1046 23.4584 14.1046ZM16.0679 31.6667C13.8757 31.6667 11.8195 31.2511 9.89919 30.42C7.97864 29.5889 6.30169 28.4564 4.86836 27.0225C3.4353 25.5883 2.30308 23.9115 1.47169 21.9921C0.640304 20.0724 0.224609 18.0175 0.224609 15.8275C0.224609 13.6375 0.640165 11.5806 1.47128 9.65667C2.30239 7.7325 3.43489 6.05778 4.86878 4.6325C6.30267 3.20722 7.97947 2.07875 9.89919 1.24708C11.8186 0.415694 13.8734 0 16.0634 0C18.2536 0 20.3107 0.415555 22.2346 1.24667C24.1585 2.07778 25.8331 3.20569 27.2584 4.63042C28.6839 6.05514 29.8124 7.73056 30.6438 9.65667C31.4752 11.5828 31.8909 13.6383 31.8909 15.8233C31.8909 18.0153 31.4753 20.0715 30.6442 21.9921C29.8131 23.9126 28.6852 25.5878 27.2604 27.0175C25.8357 28.4472 24.1603 29.5794 22.2342 30.4142C20.3084 31.2492 18.2529 31.6667 16.0679 31.6667Z" fill="#00AB55"/>
</svg>
