<svg width="32" height="32" viewBox="0 0 32 32" fill="none" xmlns="http://www.w3.org/2000/svg">
<rect width="32" height="32" rx="16" fill="#919EAB" fill-opacity="0.08"/>
<g clip-path="url(#clip0_5145_59465)">
<path fill-rule="evenodd" clip-rule="evenodd" d="M22.8505 16.3521H21.6705V15.6483H22.8505C22.8138 15.7583 22.7937 15.876 22.7937 15.9984C22.7932 16.1239 22.8138 16.2421 22.8505 16.3521ZM23.1392 13.1252H20.5267C20.5143 13.1252 20.5025 13.1252 20.4901 13.1252L20.8237 12.7875L20.4694 12.4296C20.4859 12.4255 20.5061 12.4255 20.5262 12.4255H23.1392C23.355 12.4255 23.5337 12.2463 23.5337 12.0309V11.1846C23.6437 11.2212 23.7614 11.2414 23.8879 11.2414C24.0098 11.2414 24.1281 11.2212 24.2422 11.1846V12.0309C24.2381 12.6325 23.7454 13.1252 23.1392 13.1252Z" fill="#FFAB00"/>
<path fill-rule="evenodd" clip-rule="evenodd" d="M23.5342 20.82V19.9736C23.5342 19.7578 23.3592 19.5791 23.1397 19.5791H20.5396L20.8247 19.2904L20.4219 18.8794C20.4384 18.8752 20.4586 18.8752 20.4787 18.8752H23.1438C23.7501 18.8752 24.2427 19.3674 24.2427 19.9741V20.8205C24.1327 20.7838 24.015 20.7637 23.8885 20.7637C23.7619 20.7637 23.6437 20.7833 23.5342 20.82Z" fill="#FFAB00"/>
<path fill-rule="evenodd" clip-rule="evenodd" d="M10.3295 16.3521H9.1495C9.18616 16.2421 9.2063 16.1243 9.2063 15.9978C9.2063 15.876 9.18616 15.7577 9.1495 15.6477H10.3295V16.002V16.3521Z" fill="#FFAB00"/>
<path fill-rule="evenodd" clip-rule="evenodd" d="M7.76608 20.82V19.9736C7.76608 19.3674 8.2582 18.8748 8.86496 18.8748H11.5301C11.5502 18.8748 11.5667 18.8748 11.5869 18.8789L11.1841 19.2899L11.4691 19.5786H8.86858C8.6486 19.5786 8.47405 19.7578 8.47405 19.9731V20.8195C8.36406 20.7828 8.24632 20.7627 8.12394 20.7627C7.99381 20.7627 7.87607 20.7834 7.76608 20.82Z" fill="#FFAB00"/>
<path fill-rule="evenodd" clip-rule="evenodd" d="M11.4769 13.1252H8.86445C8.2582 13.1252 7.76556 12.6331 7.76556 12.0263V11.1799C7.87555 11.2166 7.99329 11.2367 8.1198 11.2367C8.24167 11.2367 8.35993 11.2166 8.47405 11.1799V12.0263C8.47405 12.2422 8.65324 12.4208 8.86858 12.4208H11.481C11.5012 12.4208 11.5177 12.4208 11.5378 12.425L11.1836 12.7828L11.5172 13.1205C11.5017 13.1252 11.4893 13.1252 11.4769 13.1252Z" fill="#FFAB00"/>
<path fill-rule="evenodd" clip-rule="evenodd" d="M15.371 14.8665C15.0493 14.8665 14.7849 15.1308 14.7849 15.4526V15.8311H15.9566V15.4526C15.9571 15.1314 15.6969 14.8665 15.371 14.8665Z" fill="#FFAB00"/>
<path fill-rule="evenodd" clip-rule="evenodd" d="M16.0021 13.0679C14.3945 13.0679 13.0886 14.3986 13.0886 16.0382C13.0886 17.6777 14.3945 19.0085 16.0021 19.0085C17.6096 19.0085 18.9156 17.6777 18.9156 16.0382C18.9156 14.3986 17.6091 13.0679 16.0021 13.0679ZM17.2146 17.4139V14.6671C17.2146 14.553 17.308 14.4596 17.4222 14.4596C17.5363 14.4596 17.6297 14.553 17.6297 14.6671V17.4139C17.6297 17.528 17.5363 17.6214 17.4222 17.6214C17.308 17.6173 17.2146 17.5238 17.2146 17.4139ZM15.371 14.4554C15.9205 14.4554 16.3682 14.9031 16.3682 15.4526V17.4097C16.3682 17.5238 16.2747 17.6173 16.1606 17.6173C16.0465 17.6173 15.953 17.5238 15.953 17.4097V16.2416H14.7813V17.4097C14.7813 17.5238 14.6878 17.6173 14.5737 17.6173C14.4596 17.6173 14.3661 17.5238 14.3661 17.4097V16.0346V15.4526C14.3744 14.9031 14.8221 14.4554 15.371 14.4554Z" fill="#FFAB00"/>
<path fill-rule="evenodd" clip-rule="evenodd" d="M15.2616 11.5382C15.2616 11.6358 15.1924 11.7174 15.0989 11.7375C14.582 11.8475 14.0981 12.0551 13.6545 12.3438C13.5729 12.3965 13.4635 12.3846 13.3943 12.3154L12.8004 11.7133L11.7506 12.7796L12.3486 13.3859C12.4178 13.4551 12.426 13.5609 12.377 13.642C12.0883 14.0939 11.8885 14.586 11.779 15.1112C11.7588 15.2046 11.6731 15.2738 11.5797 15.2738H10.7405V15.9942V16.7874H11.5786C11.6762 16.7874 11.7619 16.8566 11.778 16.95C11.8879 17.4752 12.0914 17.9715 12.3759 18.4192C12.4286 18.5008 12.4167 18.6061 12.3475 18.6753L11.7496 19.2816L12.7994 20.3479L13.3932 19.7458C13.4624 19.6766 13.5724 19.6642 13.6535 19.7174C14.0971 20.0102 14.5815 20.2137 15.0979 20.3236C15.1913 20.3438 15.2605 20.4295 15.2605 20.523V21.3817H16.7415V20.523C16.7415 20.4254 16.8107 20.3438 16.9042 20.3236C17.4211 20.2137 17.905 20.0061 18.3486 19.7174C18.4302 19.6647 18.5396 19.6766 18.6088 19.7458L19.2027 20.3479L20.2525 19.2816L19.6545 18.6753C19.5853 18.6061 19.5771 18.5003 19.6261 18.4192C19.9148 17.9673 20.1146 17.4752 20.2241 16.95C20.2443 16.8566 20.33 16.7874 20.4235 16.7874H21.2616V15.9937V15.2733H20.4235C20.3259 15.2733 20.2401 15.2041 20.2241 15.1106C20.1141 14.5855 19.9107 14.0892 19.6261 13.6415C19.5735 13.5599 19.5853 13.4546 19.6545 13.3854L20.2525 12.7791L19.2042 11.7128L18.6104 12.3154C18.5412 12.3846 18.4312 12.397 18.3501 12.3438C17.9065 12.051 17.4222 11.8475 16.9058 11.7375C16.8123 11.7174 16.7431 11.6317 16.7431 11.5382V10.6794H15.2621V11.5382H15.2616ZM12.6734 16.0386C12.6734 14.1749 14.1668 12.6572 16.0021 12.6572C17.8373 12.6572 19.3308 14.1749 19.3308 16.0386C19.3308 17.9023 17.8373 19.42 16.0021 19.42C14.1668 19.42 12.6734 17.9023 12.6734 16.0386Z" fill="#FFAB00"/>
<path fill-rule="evenodd" clip-rule="evenodd" d="M23.2042 10.1466C23.2042 10.521 23.5094 10.8262 23.8838 10.8262C24.2582 10.8262 24.5634 10.521 24.5634 10.1466C24.5634 9.77223 24.2582 9.46704 23.8838 9.46704C23.5094 9.46704 23.2042 9.77223 23.2042 10.1466Z" fill="#FFAB00"/>
<path fill-rule="evenodd" clip-rule="evenodd" d="M23.8838 15.3184C23.5094 15.3184 23.2042 15.6235 23.2042 15.9979C23.2042 16.3723 23.5094 16.6775 23.8838 16.6775C24.2582 16.6775 24.5634 16.3723 24.5634 15.9979C24.5634 15.6235 24.2582 15.3184 23.8838 15.3184Z" fill="#FFAB00"/>
<path fill-rule="evenodd" clip-rule="evenodd" d="M23.8838 21.1738C23.5094 21.1738 23.2042 21.479 23.2042 21.8534C23.2042 22.2278 23.5094 22.533 23.8838 22.533C24.2582 22.533 24.5634 22.2278 24.5634 21.8534C24.5634 21.479 24.2582 21.1738 23.8838 21.1738Z" fill="#FFAB00"/>
<path fill-rule="evenodd" clip-rule="evenodd" d="M8.11619 21.1738C7.7418 21.1738 7.43661 21.479 7.43661 21.8534C7.43661 22.2278 7.7418 22.533 8.11619 22.533C8.49058 22.533 8.79577 22.2278 8.79577 21.8534C8.79577 21.479 8.49058 21.1738 8.11619 21.1738Z" fill="#FFAB00"/>
<path fill-rule="evenodd" clip-rule="evenodd" d="M7.43661 10.1466C7.43661 10.521 7.7418 10.8262 8.11619 10.8262C8.49058 10.8262 8.79577 10.521 8.79577 10.1466C8.79577 9.77223 8.49058 9.46704 8.11619 9.46704C7.7418 9.46704 7.43661 9.77223 7.43661 10.1466Z" fill="#FFAB00"/>
<path fill-rule="evenodd" clip-rule="evenodd" d="M8.11619 15.3184C7.7418 15.3184 7.43661 15.6235 7.43661 15.9979C7.43661 16.3723 7.7418 16.6775 8.11619 16.6775C8.49058 16.6775 8.79577 16.3723 8.79577 15.9979C8.79577 15.6235 8.49058 15.3184 8.11619 15.3184Z" fill="#FFAB00"/>
</g>
<defs>
<clipPath id="clip0_5145_59465">
<rect width="20" height="20" fill="white" transform="translate(6 6)"/>
</clipPath>
</defs>
</svg>
