<svg width="32" height="32" viewBox="0 0 32 32" fill="none" xmlns="http://www.w3.org/2000/svg">
<rect width="32" height="32" rx="16" fill="#919EAB" fill-opacity="0.08"/>
<path d="M24 11.75C24 11.5511 23.921 11.3603 23.7803 11.2197C23.6397 11.079 23.4489 11 23.25 11H8.75C8.55109 11 8.36032 11.079 8.21967 11.2197C8.07902 11.3603 8 11.5511 8 11.75C8 11.9489 8.07902 12.1397 8.21967 12.2803C8.36032 12.421 8.55109 12.5 8.75 12.5H23.25C23.4489 12.5 23.6397 12.421 23.7803 12.2803C23.921 12.1397 24 11.9489 24 11.75ZM24 14.75C24 14.5511 23.921 14.3603 23.7803 14.2197C23.6397 14.079 23.4489 14 23.25 14H8.75C8.55109 14 8.36032 14.079 8.21967 14.2197C8.07902 14.3603 8 14.5511 8 14.75C8 14.9489 8.07902 15.1397 8.21967 15.2803C8.36032 15.421 8.55109 15.5 8.75 15.5H18.206C18.9256 15.1696 19.7082 14.999 20.5 15C21.2918 14.999 22.0744 15.1696 22.794 15.5H23.25C23.4489 15.5 23.6397 15.421 23.7803 15.2803C23.921 15.1397 24 14.9489 24 14.75ZM15.022 20C14.9772 20.5008 15.0004 21.0054 15.091 21.5H8.75C8.55109 21.5 8.36032 21.421 8.21967 21.2803C8.07902 21.1397 8 20.9489 8 20.75C8 20.5511 8.07902 20.3603 8.21967 20.2197C8.36032 20.079 8.55109 20 8.75 20H15.022ZM16.257 17C15.8852 17.45 15.5875 17.9563 15.375 18.5H8.75C8.55109 18.5 8.36032 18.421 8.21967 18.2803C8.07902 18.1397 8 17.9489 8 17.75C8 17.5511 8.07902 17.3603 8.21967 17.2197C8.36032 17.079 8.55109 17 8.75 17H16.257ZM25 20.5C25 19.3065 24.5259 18.1619 23.682 17.318C22.8381 16.4741 21.6935 16 20.5 16C19.3065 16 18.1619 16.4741 17.318 17.318C16.4741 18.1619 16 19.3065 16 20.5C16 21.6935 16.4741 22.8381 17.318 23.682C18.1619 24.5259 19.3065 25 20.5 25C21.6935 25 22.8381 24.5259 23.682 23.682C24.5259 22.8381 25 21.6935 25 20.5ZM22.5 18.5C22.5903 18.4133 22.7099 18.3637 22.835 18.3609C22.9602 18.358 23.0818 18.4023 23.1759 18.4848C23.2701 18.5674 23.3298 18.6822 23.3433 18.8067C23.3568 18.9312 23.3232 19.0562 23.249 19.157L23.189 19.225L19.677 22.865C19.588 22.9497 19.4709 22.9987 19.348 23.0026C19.2252 23.0065 19.1052 22.965 19.011 22.886L18.944 22.819L17.604 21.174C17.5244 21.0773 17.4841 20.9542 17.4909 20.8291C17.4977 20.704 17.5513 20.5861 17.6409 20.4986C17.7305 20.4111 17.8497 20.3604 17.9749 20.3566C18.1001 20.3528 18.2222 20.3961 18.317 20.478L18.38 20.542L19.379 21.769L22.5 18.5Z" fill="#8AC926"/>
</svg>
