<svg width="32" height="32" viewBox="0 0 32 32" fill="none" xmlns="http://www.w3.org/2000/svg">
<rect width="32" height="32" rx="16" fill="#919EAB" fill-opacity="0.08"/>
<path d="M22.6667 19.3333L25.1667 16.8333L22.6667 14.3333V16H21.6233C20.8833 13.1246 18.2731 11 15.1667 11C12.0603 11 9.4501 13.1246 8.71003 16H6.83334V17.6667H10.1667C10.1667 14.9052 12.4052 12.6667 15.1667 12.6667C17.9281 12.6667 20.1667 14.9052 20.1667 17.6667H22.6667V19.3333Z" fill="#FF5630"/>
<path d="M18.5 17.6666C18.5 19.5075 17.0077 20.9999 15.1667 20.9999C13.3257 20.9999 11.8334 19.5075 11.8334 17.6666C11.8334 15.8257 13.3257 14.3333 15.1667 14.3333C17.0077 14.3333 18.5 15.8257 18.5 17.6666Z" fill="#FF5630"/>
</svg>
