<svg width="32" height="32" viewBox="0 0 32 32" fill="none" xmlns="http://www.w3.org/2000/svg">
<rect width="32" height="32" rx="16" fill="#00A76F" fill-opacity="0.08"/>
<path d="M12.6668 14.3333H19.3335M12.6668 21H19.3335M12.6668 17.6667H16.0002M9.3335 23.8333V8.16667C9.3335 8.03406 9.38617 7.90689 9.47994 7.81312C9.57371 7.71935 9.70089 7.66667 9.8335 7.66667H19.5435C19.6761 7.66679 19.8032 7.71954 19.8968 7.81334L22.5202 10.4367C22.5668 10.4833 22.6038 10.5386 22.6289 10.5995C22.6541 10.6605 22.667 10.7258 22.6668 10.7917V23.8333C22.6668 23.899 22.6539 23.964 22.6288 24.0247C22.6036 24.0853 22.5668 24.1405 22.5204 24.1869C22.474 24.2333 22.4188 24.2702 22.3582 24.2953C22.2975 24.3204 22.2325 24.3333 22.1668 24.3333H9.8335C9.76784 24.3333 9.70282 24.3204 9.64215 24.2953C9.58149 24.2702 9.52637 24.2333 9.47994 24.1869C9.43351 24.1405 9.39668 24.0853 9.37156 24.0247C9.34643 23.964 9.3335 23.899 9.3335 23.8333Z" stroke="#FF595E" stroke-width="0.75" stroke-linecap="round" stroke-linejoin="round"/>
<path d="M19.3335 7.66667V10.5C19.3335 10.6326 19.3862 10.7598 19.4799 10.8536C19.5737 10.9473 19.7009 11 19.8335 11H22.6668" stroke="#FF595E" stroke-width="0.75" stroke-linecap="round" stroke-linejoin="round"/>
</svg>
