<svg width="32" height="32" viewBox="0 0 32 32" fill="none" xmlns="http://www.w3.org/2000/svg">
<rect width="32" height="32" rx="16" fill="#919EAB" fill-opacity="0.08"/>
<path d="M14.1061 7.66675C11.3884 7.66675 10.0295 7.66675 9.08589 8.33161C8.81551 8.52211 8.57548 8.74801 8.37308 9.00249C7.66666 9.89064 7.66666 11.1695 7.66666 13.7274V15.8486C7.66666 18.3179 7.66666 19.5525 8.05745 20.5386C8.68567 22.1239 10.0143 23.3743 11.6986 23.9656C12.7464 24.3334 14.0582 24.3334 16.6818 24.3334C18.1811 24.3334 18.9307 24.3334 19.5293 24.1232C20.4918 23.7854 21.251 23.0708 21.61 22.165C21.8333 21.6015 21.8333 20.896 21.8333 19.4849V18.9167" stroke="#F29B18" stroke-width="1.5" stroke-linecap="round" stroke-linejoin="round"/>
<path d="M18.5 12.2499C18.5 12.2499 18.9167 12.2499 19.3333 13.0833C19.3333 13.0833 20.6568 10.9999 21.8333 10.5833" stroke="#F29B18" stroke-width="2" stroke-linecap="round" stroke-linejoin="round"/>
<path d="M24.3333 11.8334C24.3333 14.1346 22.4678 16.0001 20.1667 16.0001C17.8655 16.0001 16 14.1346 16 11.8334C16 9.53223 17.8655 7.66675 20.1667 7.66675C22.4678 7.66675 24.3333 9.53223 24.3333 11.8334Z" stroke="#F29B18" stroke-width="1.5" stroke-linecap="round"/>
<path d="M7.66666 16C7.66666 17.5341 8.91031 18.7777 10.4444 18.7777C10.9993 18.7777 11.6534 18.6806 12.1928 18.8251C12.6721 18.9535 13.0465 19.3279 13.1749 19.8072C13.3194 20.3467 13.2222 21.0008 13.2222 21.5556C13.2222 23.0897 14.4659 24.3333 16 24.3333" stroke="#F29B18" stroke-width="1.5" stroke-linecap="round" stroke-linejoin="round"/>
</svg>
