<svg width="32" height="32" viewBox="0 0 32 32" fill="none" xmlns="http://www.w3.org/2000/svg">
<rect width="32" height="32" rx="16" fill="#919EAB" fill-opacity="0.08"/>
<path d="M22.6668 16V10.7908C22.6669 10.7251 22.654 10.6599 22.6288 10.5991C22.6036 10.5384 22.5667 10.4832 22.5202 10.4367L19.8968 7.81334C19.8032 7.71954 19.6761 7.66679 19.5435 7.66667H9.8335C9.70089 7.66667 9.57371 7.71935 9.47994 7.81312C9.38617 7.90689 9.3335 8.03406 9.3335 8.16667V23.8333C9.3335 23.9659 9.38617 24.0931 9.47994 24.1869C9.57371 24.2807 9.70089 24.3333 9.8335 24.3333H15.1668M12.6668 14.3333H19.3335M12.6668 11H16.0002M12.6668 17.6667H15.1668M20.9618 20.1167L21.7952 19.2833C21.8819 19.1965 21.9849 19.1276 22.0983 19.0806C22.2117 19.0336 22.3333 19.0094 22.456 19.0094C22.5787 19.0094 22.7003 19.0336 22.8137 19.0806C22.9271 19.1276 23.0301 19.1965 23.1168 19.2833C23.2919 19.4585 23.3903 19.6961 23.3903 19.9438C23.3903 20.1914 23.2919 20.429 23.1168 20.6042L22.2835 21.4375L20.9618 20.1158L18.4693 22.6083C18.3447 22.7334 18.263 22.8947 18.236 23.0692L18.0327 24.3667L19.3302 24.1642C19.5046 24.1372 19.666 24.0555 19.791 23.9308L22.2827 21.4375" stroke="#FFAB00" stroke-width="0.75" stroke-linecap="round" stroke-linejoin="round"/>
<path d="M19.3335 7.66667V10.5C19.3335 10.6326 19.3862 10.7598 19.4799 10.8536C19.5737 10.9473 19.7009 11 19.8335 11H22.6668" stroke="#FFAB00" stroke-width="0.75" stroke-linecap="round" stroke-linejoin="round"/>
</svg>
