<svg width="32" height="32" viewBox="0 0 32 32" fill="none" xmlns="http://www.w3.org/2000/svg">
<rect width="32" height="32" rx="16" fill="#919EAB" fill-opacity="0.08"/>
<g clip-path="url(#clip0_2603_18989)">
<path fill-rule="evenodd" clip-rule="evenodd" d="M26 6V26H6V6H26ZM16.495 25.3817L16.485 25.3833L16.4258 25.4125L16.4092 25.4158L16.3975 25.4125L16.3383 25.3825C16.33 25.38 16.3225 25.3825 16.3183 25.3875L16.315 25.3958L16.3008 25.7525L16.305 25.7692L16.3133 25.78L16.4 25.8417L16.4125 25.845L16.4225 25.8417L16.5092 25.78L16.5192 25.7667L16.5225 25.7525L16.5083 25.3967C16.5067 25.3883 16.5008 25.3825 16.495 25.3817ZM16.715 25.2875L16.7033 25.2892L16.55 25.3667L16.5417 25.375L16.5392 25.3842L16.5542 25.7425L16.5583 25.7525L16.565 25.7592L16.7325 25.8358C16.7425 25.8392 16.7517 25.8358 16.7567 25.8292L16.76 25.8175L16.7317 25.3058C16.7292 25.2958 16.7233 25.2892 16.715 25.2875ZM16.1192 25.2892C16.1154 25.2874 16.1111 25.287 16.1071 25.2879C16.103 25.2888 16.0994 25.291 16.0967 25.2942L16.0917 25.3058L16.0633 25.8175C16.0633 25.8275 16.0692 25.8342 16.0775 25.8375L16.09 25.8358L16.2575 25.7583L16.2658 25.7517L16.2683 25.7425L16.2833 25.3842L16.2808 25.3742L16.2725 25.3658L16.1192 25.2892Z" fill="#919EAB" fill-opacity="0.08"/>
<path fill-rule="evenodd" clip-rule="evenodd" d="M13.5 8.5C13.7041 8.50003 13.9011 8.57496 14.0536 8.7106C14.2062 8.84623 14.3036 9.03312 14.3275 9.23583L14.3333 9.33333V10.1667H17.6666C17.879 10.1671 18.0831 10.2486 18.2374 10.3945C18.3917 10.5403 18.4845 10.7396 18.4968 10.9516C18.5092 11.1635 18.4401 11.3722 18.3038 11.535C18.1675 11.6978 17.9742 11.8024 17.7633 11.8275L17.6666 11.8333H16.7875C16.6016 13.5267 15.8575 15.1583 14.6666 16.5733C15.1025 16.9517 15.585 17.305 16.1125 17.6283L16.4341 17.8183L18.1566 13.9917C18.2187 13.8536 18.3172 13.7351 18.4416 13.6488C18.5659 13.5626 18.7114 13.5118 18.8624 13.5019C19.0134 13.4921 19.1643 13.5235 19.2988 13.5929C19.4333 13.6623 19.5463 13.767 19.6258 13.8958L19.6758 13.9917L23.4258 22.325C23.5132 22.5189 23.5231 22.7389 23.4536 22.9399C23.384 23.1409 23.2402 23.3077 23.0517 23.4061C22.8632 23.5045 22.6441 23.5271 22.4394 23.4693C22.2348 23.4115 22.06 23.2775 21.9508 23.095L21.9066 23.0083L21.0025 21H16.83L15.9266 23.0083C15.8398 23.2028 15.6818 23.3566 15.4852 23.4382C15.2885 23.5198 15.068 23.5231 14.869 23.4472C14.67 23.3714 14.5076 23.2223 14.4151 23.0305C14.3226 22.8387 14.3071 22.6188 14.3716 22.4158L14.4066 22.3242L15.7483 19.3442C14.9434 18.9011 14.189 18.3718 13.4983 17.7658C12.4258 18.7125 11.125 19.5142 9.64248 20.1075C9.43727 20.1896 9.20785 20.1868 9.00468 20.0998C8.80152 20.0127 8.64125 19.8485 8.55915 19.6433C8.47704 19.4381 8.47982 19.2087 8.56686 19.0055C8.65391 18.8024 8.8181 18.6421 9.02331 18.56C10.3208 18.0408 11.4291 17.3592 12.3333 16.575C11.6297 15.7476 11.0722 14.8064 10.685 13.7917C10.6074 13.5847 10.6152 13.3554 10.7067 13.1542C10.7982 12.9529 10.9659 12.7963 11.1729 12.7188C11.3799 12.6412 11.6092 12.649 11.8104 12.7405C12.0116 12.832 12.1682 12.9997 12.2458 13.2067C12.5455 13.9902 12.9689 14.7206 13.5 15.37C14.3241 14.3475 14.8541 13.2233 15.0641 12.0942L15.1066 11.8333H9.33331C9.12091 11.8331 8.91662 11.7518 8.76217 11.606C8.60773 11.4602 8.51478 11.2609 8.50234 11.0488C8.48989 10.8368 8.55888 10.628 8.6952 10.4651C8.83153 10.3023 9.0249 10.1976 9.23581 10.1725L9.33331 10.1667H12.6666V9.33333C12.6666 9.11232 12.7544 8.90036 12.9107 8.74408C13.067 8.5878 13.279 8.5 13.5 8.5ZM20.2525 19.3333L18.9166 16.3642L17.5816 19.3333H20.2525Z" fill="#6A4C93"/>
</g>
<defs>
<clipPath id="clip0_2603_18989">
<rect width="20" height="20" fill="white" transform="translate(6 6)"/>
</clipPath>
</defs>
</svg>
