<svg width="32" height="32" viewBox="0 0 32 32" fill="none" xmlns="http://www.w3.org/2000/svg">
<rect width="32" height="32" rx="16" fill="#919EAB" fill-opacity="0.08"/>
<path d="M16 16C18.7614 16 21 13.7614 21 11C21 8.23858 18.7614 6 16 6C13.2386 6 11 8.23858 11 11C11 13.7614 13.2386 16 16 16Z" fill="#0E34A0"/>
<path d="M16 18C12.6863 18 9.5 19.3431 9.5 21.5V24.5C9.5 25.0523 9.94772 25.5 10.5 25.5H21.5C22.0523 25.5 22.5 25.0523 22.5 24.5V21.5C22.5 19.3431 19.3137 18 16 18Z" fill="#0E34A0"/>
</svg>
